SkeenaIndigenous-BlackItalic.ufo
<glyph name="exclam" format="2">
  <advance width="656"/>
  <unicode hex="0021"/>
  <outline>
    <contour>
      <point x="186" y="481" type="line"/>
      <point x="486" y="481" type="line"/>
      <point x="794" y="1359" type="line"/>
      <point x="304" y="1302" type="line"/>
    </contour>
    <contour>
      <point x="237" y="-24" type="curve" smooth="yes"/>
      <point x="373" y="-24"/>
      <point x="478" y="74"/>
      <point x="478" y="201" type="curve" smooth="yes"/>
      <point x="478" y="310"/>
      <point x="405" y="380"/>
      <point x="291" y="380" type="curve" smooth="yes"/>
      <point x="155" y="380"/>
      <point x="49" y="281"/>
      <point x="49" y="153" type="curve" smooth="yes"/>
      <point x="49" y="46"/>
      <point x="123" y="-24"/>
    </contour>
  </outline>
  <guideline angle="8.96731" x="0" y="1255.61"/>
  <guideline angle="76.0015" x="-20.1631" y="0"/>
</glyph>
<glyph name="numbersign" format="2">
  <advance width="1225"/>
  <unicode hex="0023"/>
  <outline>
    <contour>
      <point x="125" y="0" type="line"/>
      <point x="401" y="1106" type="line"/>
      <point x="696" y="1106" type="line"/>
      <point x="420" y="0" type="line"/>
    </contour>
    <contour>
      <point x="565" y="0" type="line"/>
      <point x="840" y="1106" type="line"/>
      <point x="1136" y="1106" type="line"/>
      <point x="860" y="0" type="line"/>
    </contour>
    <contour>
      <point x="28" y="259" type="line"/>
      <point x="78" y="461" type="line"/>
      <point x="1136" y="461" type="line"/>
      <point x="1087" y="259" type="line"/>
    </contour>
    <contour>
      <point x="124" y="647" type="line"/>
      <point x="173" y="849" type="line"/>
      <point x="1231" y="849" type="line"/>
      <point x="1182" y="647" type="line"/>
    </contour>
  </outline>
  <guideline angle="0" x="0" y="553"/>
  <guideline angle="76.0015" x="124.644" y="0"/>
</glyph>
<glyph name="dollar" format="2">
  <advance width="1069"/>
  <unicode hex="0024"/>
  <outline>
    <contour>
      <point x="32" y="155" type="line"/>
      <point x="121" y="73"/>
      <point x="284" y="20"/>
      <point x="459" y="20" type="curve" smooth="yes"/>
      <point x="789" y="20"/>
      <point x="1017" y="201"/>
      <point x="1017" y="464" type="curve" smooth="yes"/>
      <point x="1017" y="663"/>
      <point x="881" y="741"/>
      <point x="751" y="815" type="curve" smooth="yes"/>
      <point x="718" y="834"/>
      <point x="716" y="835"/>
      <point x="682" y="855" type="curve"/>
      <point x="571" y="407" type="line"/>
      <point x="591" y="394"/>
      <point x="599" y="379"/>
      <point x="599" y="355" type="curve" smooth="yes"/>
      <point x="599" y="291"/>
      <point x="528" y="258"/>
      <point x="388" y="258" type="curve" smooth="yes"/>
      <point x="247" y="258"/>
      <point x="124" y="296"/>
      <point x="12" y="375" type="curve"/>
      <point x="4" y="368" type="line"/>
    </contour>
    <contour>
      <point x="1076" y="992" type="curve"/>
      <point x="1130" y="1212" type="line"/>
      <point x="1040" y="1261"/>
      <point x="915" y="1297"/>
      <point x="752" y="1297" type="curve" smooth="yes"/>
      <point x="397" y="1297"/>
      <point x="144" y="1128"/>
      <point x="144" y="872" type="curve" smooth="yes"/>
      <point x="144" y="673"/>
      <point x="298" y="583"/>
      <point x="404" y="520" type="curve" smooth="yes"/>
      <point x="465" y="483"/>
      <point x="466" y="481"/>
      <point x="479" y="473" type="curve"/>
      <point x="588" y="912" type="line"/>
      <point x="561" y="925"/>
      <point x="556" y="944"/>
      <point x="556" y="959" type="curve" smooth="yes"/>
      <point x="556" y="1019"/>
      <point x="632" y="1065"/>
      <point x="783" y="1065" type="curve" smooth="yes"/>
      <point x="893" y="1065"/>
      <point x="999" y="1038"/>
    </contour>
    <contour>
      <point x="301" y="-139" type="line"/>
      <point x="469" y="-120" type="line"/>
      <point x="856" y="1432" type="line"/>
      <point x="685" y="1432" type="line"/>
    </contour>
  </outline>
  <guideline angle="97.5364" x="72.4038" y="0"/>
  <guideline angle="76.0015" x="878.927" y="0"/>
  <guideline angle="76.0015" x="954.081" y="0"/>
  <guideline angle="255.999" x="718" y="1432"/>
</glyph>
<glyph name="ampersand" format="2">
  <advance width="1321"/>
  <unicode hex="0026"/>
  <anchor x="505" y="0" name="bottom"/>
  <anchor x="753" y="1314" name="top"/>
  <anchor x="1336" y="946" name="topright"/>
  <outline>
    <contour>
      <point x="1284" y="564" type="line"/>
      <point x="1376" y="797" type="line"/>
      <point x="775" y="797" type="line" smooth="yes"/>
      <point x="671" y="797"/>
      <point x="612" y="844"/>
      <point x="612" y="926" type="curve" smooth="yes"/>
      <point x="612" y="1025"/>
      <point x="701" y="1087"/>
      <point x="845" y="1087" type="curve" smooth="yes"/>
      <point x="917" y="1087"/>
      <point x="994" y="1071"/>
      <point x="1045" y="1047" type="curve"/>
      <point x="1100" y="1267" type="line"/>
      <point x="1019" y="1312"/>
      <point x="898" y="1338"/>
      <point x="771" y="1338" type="curve" smooth="yes"/>
      <point x="447" y="1338"/>
      <point x="221" y="1179"/>
      <point x="221" y="952" type="curve" smooth="yes"/>
      <point x="221" y="837"/>
      <point x="278" y="746"/>
      <point x="379" y="700" type="curve"/>
      <point x="378" y="693" type="line"/>
      <point x="161" y="652"/>
      <point x="20" y="509"/>
      <point x="20" y="331" type="curve" smooth="yes"/>
      <point x="20" y="114"/>
      <point x="213" y="-24"/>
      <point x="515" y="-24" type="curve" smooth="yes"/>
      <point x="898" y="-24"/>
      <point x="1170" y="175"/>
      <point x="1170" y="456" type="curve" smooth="yes"/>
      <point x="1170" y="504"/>
      <point x="1163" y="552"/>
      <point x="1150" y="594" type="curve"/>
      <point x="767" y="594" type="line"/>
      <point x="776" y="561"/>
      <point x="782" y="517"/>
      <point x="782" y="481" type="curve" smooth="yes"/>
      <point x="782" y="324"/>
      <point x="700" y="219"/>
      <point x="579" y="219" type="curve" smooth="yes"/>
      <point x="493" y="219"/>
      <point x="442" y="272"/>
      <point x="442" y="362" type="curve" smooth="yes"/>
      <point x="442" y="485"/>
      <point x="537" y="564"/>
      <point x="684" y="564" type="curve" smooth="yes"/>
    </contour>
  </outline>
  <guideline angle="0" x="0" y="798"/>
  <guideline angle="0" x="0" y="561"/>
  <guideline angle="76.0015" x="1131.88" y="0"/>
  <guideline angle="76.0015" x="-68.7378" y="0"/>
</glyph>
<glyph name="quotesingle" format="2">
  <advance width="441"/>
  <unicode hex="0027"/>
  <outline>
    <contour>
      <point x="150" y="722" type="line"/>
      <point x="251" y="1305" type="line"/>
      <point x="616" y="1347" type="line"/>
      <point x="401" y="722" type="line"/>
    </contour>
  </outline>
  <guideline angle="76.0015" x="-74.2368" y="0"/>
</glyph>
<glyph name="parenleft" format="2">
  <advance width="737"/>
  <unicode hex="0028"/>
  <outline>
    <contour>
      <point x="291" y="-416" type="curve"/>
      <point x="484" y="-382" type="line"/>
      <point x="431" y="-253"/>
      <point x="397" y="-45"/>
      <point x="397" y="157" type="curve" smooth="yes"/>
      <point x="397" y="586"/>
      <point x="553" y="947"/>
      <point x="921" y="1369" type="curve"/>
      <point x="727" y="1411" type="line"/>
      <point x="278" y="1038"/>
      <point x="61" y="671"/>
      <point x="61" y="285" type="curve" smooth="yes"/>
      <point x="61" y="46"/>
      <point x="142" y="-201"/>
    </contour>
  </outline>
  <guideline angle="11.0397" x="0" y="-432.59"/>
  <guideline angle="347.571" x="0" y="1604.8"/>
  <guideline angle="0" x="0" y="1411"/>
  <guideline angle="0" x="0" y="-416"/>
</glyph>
<glyph name="parenright" format="2">
  <advance width="737"/>
  <unicode hex="0029"/>
  <outline>
    <contour>
      <point x="-174" y="-374" type="line"/>
      <point x="193" y="48"/>
      <point x="350" y="410"/>
      <point x="350" y="839" type="curve" smooth="yes"/>
      <point x="350" y="1041"/>
      <point x="316" y="1249"/>
      <point x="263" y="1378" type="curve"/>
      <point x="456" y="1411" type="line"/>
      <point x="605" y="1196"/>
      <point x="686" y="949"/>
      <point x="686" y="710" type="curve" smooth="yes"/>
      <point x="686" y="324"/>
      <point x="469" y="-43"/>
      <point x="20" y="-416" type="curve"/>
    </contour>
  </outline>
</glyph>
<glyph name="asterisk" format="2">
  <advance width="887"/>
  <unicode hex="002A"/>
  <outline>
    <contour>
      <point x="388" y="1305" type="line"/>
      <point x="635" y="1335" type="line"/>
      <point x="598" y="974" type="line"/>
      <point x="508" y="963" type="line"/>
    </contour>
    <contour>
      <point x="183" y="914" type="line"/>
      <point x="231" y="1159" type="line"/>
      <point x="563" y="1013" type="line"/>
      <point x="545" y="922" type="line"/>
    </contour>
    <contour>
      <point x="491" y="599" type="line"/>
      <point x="273" y="720" type="line"/>
      <point x="514" y="991" type="line"/>
      <point x="596" y="946" type="line"/>
    </contour>
    <contour>
      <point x="886" y="796" type="line"/>
      <point x="704" y="625" type="line"/>
      <point x="521" y="938" type="line"/>
      <point x="589" y="1002" type="line"/>
    </contour>
    <contour>
      <point x="822" y="1232" type="line"/>
      <point x="928" y="1005" type="line"/>
      <point x="573" y="928" type="line"/>
      <point x="533" y="1013" type="line"/>
    </contour>
  </outline>
</glyph>
<glyph name="plus" format="2">
  <advance width="1118"/>
  <unicode hex="002B"/>
  <outline>
    <contour>
      <point x="442" y="-9" type="line"/>
      <point x="704" y="-9" type="line"/>
      <point x="704" y="955" type="line"/>
      <point x="442" y="955" type="line"/>
    </contour>
    <contour>
      <point x="91" y="344" type="line"/>
      <point x="1055" y="344" type="line"/>
      <point x="1055" y="602" type="line"/>
      <point x="91" y="602" type="line"/>
    </contour>
  </outline>
  <guideline angle="0" x="0" y="576"/>
  <guideline angle="90" x="607" y="0"/>
</glyph>
<glyph name="comma" format="2">
  <advance width="596"/>
  <unicode hex="002C"/>
  <outline>
    <contour>
      <point x="-16" y="-313" type="line"/>
      <point x="260" y="-238"/>
      <point x="434" y="-53"/>
      <point x="434" y="166" type="curve" smooth="yes"/>
      <point x="434" y="307"/>
      <point x="363" y="387"/>
      <point x="236" y="387" type="curve" smooth="yes"/>
      <point x="98" y="387"/>
      <point x="-5" y="291"/>
      <point x="-5" y="164" type="curve" smooth="yes"/>
      <point x="-5" y="66"/>
      <point x="58" y="4"/>
      <point x="160" y="4" type="curve" smooth="yes"/>
      <point x="192" y="4"/>
      <point x="219" y="10"/>
      <point x="253" y="23" type="curve"/>
      <point x="188" y="59" type="line"/>
      <point x="188" y="-50"/>
      <point x="91" y="-133"/>
      <point x="-90" y="-179" type="curve"/>
    </contour>
  </outline>
  <guideline angle="76" x="-43" y="0"/>
  <guideline angle="0" x="0" y="387"/>
  <guideline angle="0" x="0" y="-320"/>
</glyph>
<glyph name="hyphen" format="2">
  <advance width="716"/>
  <unicode hex="002D"/>
  <outline>
    <contour>
      <point x="26" y="374" type="line"/>
      <point x="98" y="607" type="line"/>
      <point x="693" y="607" type="line"/>
      <point x="620" y="374" type="line"/>
    </contour>
  </outline>
</glyph>
<glyph name="period" format="2">
  <advance width="596"/>
  <unicode hex="002E"/>
  <outline>
    <contour>
      <point x="195" y="-24" type="curve" smooth="yes"/>
      <point x="331" y="-24"/>
      <point x="437" y="76"/>
      <point x="437" y="204" type="curve" smooth="yes"/>
      <point x="437" y="315"/>
      <point x="363" y="387"/>
      <point x="249" y="387" type="curve" smooth="yes"/>
      <point x="113" y="387"/>
      <point x="7" y="286"/>
      <point x="7" y="156" type="curve" smooth="yes"/>
      <point x="7" y="47"/>
      <point x="81" y="-24"/>
    </contour>
  </outline>
  <guideline angle="76.0015" x="-38.4932" y="0"/>
</glyph>
<glyph name="slash" format="2">
  <advance width="746"/>
  <unicode hex="002F"/>
  <outline>
    <contour>
      <point x="-170" y="-245" type="line"/>
      <point x="80" y="-245" type="line"/>
      <point x="957" y="1414" type="line"/>
      <point x="707" y="1414" type="line"/>
    </contour>
  </outline>
</glyph>
<glyph name="zero" format="2">
  <advance width="1118"/>
  <unicode hex="0030"/>
  <anchor x="453" y="0" name="bottom"/>
  <anchor x="746" y="1314" name="top"/>
  <outline>
    <contour>
      <point x="482" y="-22" type="curve" smooth="yes"/>
      <point x="203" y="-22"/>
      <point x="58" y="158"/>
      <point x="58" y="459" type="curve" smooth="yes"/>
      <point x="58" y="867"/>
      <point x="296" y="1338"/>
      <point x="724" y="1338" type="curve" smooth="yes"/>
      <point x="1008" y="1338"/>
      <point x="1146" y="1150"/>
      <point x="1146" y="856" type="curve" smooth="yes"/>
      <point x="1146" y="469"/>
      <point x="926" y="-22"/>
    </contour>
    <contour>
      <point x="498" y="211" type="curve" smooth="yes"/>
      <point x="624" y="211"/>
      <point x="758" y="732"/>
      <point x="758" y="969" type="curve" smooth="yes"/>
      <point x="758" y="1057"/>
      <point x="739" y="1103"/>
      <point x="704" y="1103" type="curve" smooth="yes"/>
      <point x="575" y="1103"/>
      <point x="444" y="541"/>
      <point x="444" y="335" type="curve" smooth="yes"/>
      <point x="444" y="254"/>
      <point x="463" y="211"/>
    </contour>
  </outline>
  <guideline angle="76.0015" x="963.246" y="0"/>
</glyph>
<glyph name="one" format="2">
  <advance width="1118"/>
  <unicode hex="0031"/>
  <anchor x="531" y="0" name="bottom"/>
  <anchor x="808" y="1314" name="top"/>
  <outline>
    <contour>
      <point x="308" y="0" type="line"/>
      <point x="560" y="1011" type="line"/>
      <point x="474" y="974"/>
      <point x="356" y="936"/>
      <point x="228" y="906" type="curve"/>
      <point x="220" y="911" type="line"/>
      <point x="270" y="1111" type="line"/>
      <point x="463" y="1190"/>
      <point x="581" y="1249"/>
      <point x="678" y="1314" type="curve"/>
      <point x="1074" y="1314" type="line"/>
      <point x="746" y="0" type="line"/>
    </contour>
  </outline>
  <guideline angle="76.0015" x="976.993" y="0"/>
  <guideline angle="75.9907" x="321.693" y="0"/>
</glyph>
<glyph name="two" format="2">
  <advance width="1118"/>
  <unicode hex="0032"/>
  <anchor x="436" y="0" name="bottom"/>
  <anchor x="718" y="1314" name="top"/>
  <anchor x="1295" y="1314" name="topright"/>
  <outline>
    <contour>
      <point x="-34" y="0" type="line"/>
      <point x="896" y="0" type="line"/>
      <point x="994" y="250" type="line"/>
      <point x="415" y="250" type="line"/>
      <point x="445" y="220" type="line"/>
      <point x="453" y="259" type="line"/>
      <point x="980" y="603"/>
      <point x="1130" y="767"/>
      <point x="1130" y="991" type="curve" smooth="yes"/>
      <point x="1130" y="1210"/>
      <point x="956" y="1338"/>
      <point x="699" y="1338" type="curve" smooth="yes"/>
      <point x="538" y="1338"/>
      <point x="361" y="1277"/>
      <point x="291" y="1229" type="curve"/>
      <point x="233" y="993" type="line"/>
      <point x="312" y="1041"/>
      <point x="419" y="1072"/>
      <point x="504" y="1072" type="curve" smooth="yes"/>
      <point x="614" y="1072"/>
      <point x="675" y="1019"/>
      <point x="675" y="923" type="curve" smooth="yes"/>
      <point x="675" y="771"/>
      <point x="553" y="637"/>
      <point x="27" y="242" type="curve"/>
    </contour>
  </outline>
  <guideline angle="68.6743" x="889.009" y="0"/>
</glyph>
<glyph name="three" format="2">
  <advance width="1118"/>
  <unicode hex="0033"/>
  <anchor x="432" y="0" name="bottom"/>
  <anchor x="701" y="1314" name="top"/>
  <anchor x="1295" y="1314" name="topright"/>
  <outline>
    <contour>
      <point x="12" y="80" type="line"/>
      <point x="95" y="17"/>
      <point x="250" y="-24"/>
      <point x="407" y="-24" type="curve" smooth="yes"/>
      <point x="782" y="-24"/>
      <point x="1036" y="141"/>
      <point x="1036" y="384" type="curve" smooth="yes"/>
      <point x="1036" y="537"/>
      <point x="934" y="655"/>
      <point x="775" y="686" type="curve"/>
      <point x="777" y="694" type="line"/>
      <point x="1005" y="749"/>
      <point x="1138" y="876"/>
      <point x="1138" y="1037" type="curve" smooth="yes"/>
      <point x="1138" y="1222"/>
      <point x="963" y="1338"/>
      <point x="683" y="1338" type="curve" smooth="yes"/>
      <point x="547" y="1338"/>
      <point x="419" y="1310"/>
      <point x="286" y="1250" type="curve"/>
      <point x="228" y="1021" type="line"/>
      <point x="309" y="1054"/>
      <point x="412" y="1075"/>
      <point x="499" y="1075" type="curve" smooth="yes"/>
      <point x="634" y="1075"/>
      <point x="719" y="1027"/>
      <point x="719" y="949" type="curve" smooth="yes"/>
      <point x="719" y="850"/>
      <point x="588" y="785"/>
      <point x="390" y="785" type="curve" smooth="yes"/>
      <point x="366" y="785"/>
      <point x="328" y="785"/>
      <point x="302" y="787" type="curve"/>
      <point x="243" y="557" type="line"/>
      <point x="272" y="559"/>
      <point x="315" y="561"/>
      <point x="349" y="561" type="curve" smooth="yes"/>
      <point x="524" y="561"/>
      <point x="612" y="512"/>
      <point x="612" y="414" type="curve" smooth="yes"/>
      <point x="612" y="302"/>
      <point x="495" y="229"/>
      <point x="317" y="229" type="curve" smooth="yes"/>
      <point x="197" y="229"/>
      <point x="66" y="263"/>
      <point x="-5" y="313" type="curve"/>
      <point x="-16" y="305" type="line"/>
    </contour>
  </outline>
  <guideline angle="104.349" x="629.638" y="0"/>
  <guideline angle="76.0015" x="838.601" y="0"/>
  <guideline angle="97.0686" x="39.4097" y="0"/>
  <guideline angle="76.0015" x="947.665" y="0"/>
</glyph>
<glyph name="four" format="2">
  <advance width="1118"/>
  <unicode hex="0034"/>
  <anchor x="459" y="0" name="bottom"/>
  <anchor x="786" y="1314" name="top"/>
  <outline>
    <contour>
      <point x="404" y="0" type="line"/>
      <point x="581" y="708" type="line" smooth="yes"/>
      <point x="595" y="763"/>
      <point x="617" y="847"/>
      <point x="631" y="887" type="curve"/>
      <point x="622" y="887" type="line"/>
      <point x="276" y="507" type="line"/>
      <point x="274" y="498" type="line"/>
      <point x="1109" y="498" type="line"/>
      <point x="1014" y="253" type="line"/>
      <point x="-38" y="253" type="line"/>
      <point x="18" y="478" type="line"/>
      <point x="786" y="1314" type="line"/>
      <point x="1159" y="1314" type="line"/>
      <point x="831" y="0" type="line"/>
    </contour>
  </outline>
  <guideline angle="76" x="459" y="0"/>
</glyph>
<glyph name="five" format="2">
  <advance width="1118"/>
  <unicode hex="0035"/>
  <anchor x="469" y="0" name="bottom"/>
  <anchor x="746" y="1314" name="top"/>
  <outline>
    <contour>
      <point x="37" y="82" type="curve"/>
      <point x="8" y="303" type="line"/>
      <point x="20" y="312" type="line"/>
      <point x="79" y="266"/>
      <point x="203" y="233"/>
      <point x="320" y="233" type="curve" smooth="yes"/>
      <point x="512" y="233"/>
      <point x="632" y="314"/>
      <point x="632" y="444" type="curve" smooth="yes"/>
      <point x="632" y="552"/>
      <point x="546" y="611"/>
      <point x="390" y="611" type="curve" smooth="yes"/>
      <point x="320" y="611"/>
      <point x="233" y="598"/>
      <point x="165" y="576" type="curve"/>
      <point x="153" y="587" type="line"/>
      <point x="376" y="1314" type="line"/>
      <point x="1156" y="1314" type="line"/>
      <point x="1092" y="1062" type="line"/>
      <point x="451" y="1062" type="line"/>
      <point x="496" y="1092" type="line"/>
      <point x="397" y="767" type="line"/>
      <point x="367" y="793" type="line"/>
      <point x="451" y="820"/>
      <point x="532" y="833"/>
      <point x="620" y="833" type="curve" smooth="yes"/>
      <point x="895" y="833"/>
      <point x="1050" y="704"/>
      <point x="1050" y="475" type="curve" smooth="yes"/>
      <point x="1050" y="179"/>
      <point x="794" y="-24"/>
      <point x="423" y="-24" type="curve" smooth="yes"/>
      <point x="268" y="-24"/>
      <point x="124" y="16"/>
    </contour>
  </outline>
  <guideline angle="97.0686" x="54.9902" y="0"/>
</glyph>
<glyph name="six" format="2">
  <advance width="1118"/>
  <unicode hex="0036"/>
  <anchor x="520" y="0" name="bottom"/>
  <anchor x="831" y="1314" name="top"/>
  <anchor x="1315" y="1314" name="topright"/>
  <outline>
    <contour>
      <point x="445" y="536" type="line"/>
      <point x="485" y="577"/>
      <point x="548" y="606"/>
      <point x="599" y="606" type="curve" smooth="yes"/>
      <point x="664" y="606"/>
      <point x="697" y="555"/>
      <point x="697" y="456" type="curve" smooth="yes"/>
      <point x="697" y="322"/>
      <point x="634" y="211"/>
      <point x="559" y="211" type="curve" smooth="yes"/>
      <point x="504" y="211"/>
      <point x="475" y="276"/>
      <point x="475" y="401" type="curve" smooth="yes"/>
      <point x="475" y="679"/>
      <point x="616" y="1099"/>
      <point x="941" y="1099" type="curve" smooth="yes"/>
      <point x="1013" y="1099"/>
      <point x="1089" y="1080"/>
      <point x="1142" y="1048" type="curve"/>
      <point x="1196" y="1273" type="line"/>
      <point x="1117" y="1315"/>
      <point x="1013" y="1338"/>
      <point x="901" y="1338" type="curve" smooth="yes"/>
      <point x="377" y="1338"/>
      <point x="60" y="866"/>
      <point x="60" y="463" type="curve" smooth="yes"/>
      <point x="60" y="156"/>
      <point x="237" y="-24"/>
      <point x="540" y="-24" type="curve" smooth="yes"/>
      <point x="863" y="-24"/>
      <point x="1100" y="187"/>
      <point x="1100" y="476" type="curve" smooth="yes"/>
      <point x="1100" y="688"/>
      <point x="960" y="826"/>
      <point x="744" y="826" type="curve" smooth="yes"/>
      <point x="635" y="826"/>
      <point x="535" y="787"/>
      <point x="445" y="708" type="curve"/>
    </contour>
  </outline>
  <guideline angle="90" x="445" y="0"/>
</glyph>
<glyph name="seven" format="2">
  <advance width="1118"/>
  <unicode hex="0037"/>
  <anchor x="396" y="0" name="bottom"/>
  <anchor x="722" y="1314" name="top"/>
  <anchor x="1335" y="1314" name="topright"/>
  <outline>
    <contour>
      <point x="116" y="0" type="curve"/>
      <point x="532" y="0" type="line"/>
      <point x="683" y="424"/>
      <point x="858" y="712"/>
      <point x="1186" y="1076" type="curve"/>
      <point x="1246" y="1314" type="line"/>
      <point x="265" y="1314" type="line"/>
      <point x="202" y="1062" type="line"/>
      <point x="932" y="1062" type="line"/>
      <point x="898" y="1092" type="line"/>
      <point x="898" y="1053" type="line"/>
      <point x="547" y="745"/>
      <point x="245" y="339"/>
    </contour>
  </outline>
</glyph>
<glyph name="eight" format="2">
  <advance width="1118"/>
  <unicode hex="0038"/>
  <anchor x="456" y="0" name="bottom"/>
  <anchor x="725" y="1314" name="top"/>
  <outline>
    <contour>
      <point x="310" y="690" type="line"/>
      <point x="527" y="559" type="line"/>
      <point x="450" y="506"/>
      <point x="399" y="418"/>
      <point x="399" y="335" type="curve" smooth="yes"/>
      <point x="399" y="258"/>
      <point x="440" y="211"/>
      <point x="507" y="211" type="curve" smooth="yes"/>
      <point x="583" y="211"/>
      <point x="635" y="268"/>
      <point x="635" y="351" type="curve" smooth="yes"/>
      <point x="635" y="428"/>
      <point x="597" y="473"/>
      <point x="448" y="561" type="curve" smooth="yes"/>
      <point x="247" y="679"/>
      <point x="177" y="778"/>
      <point x="177" y="921" type="curve" smooth="yes"/>
      <point x="177" y="1165"/>
      <point x="404" y="1338"/>
      <point x="726" y="1338" type="curve" smooth="yes"/>
      <point x="989" y="1338"/>
      <point x="1162" y="1220"/>
      <point x="1162" y="1039" type="curve" smooth="yes"/>
      <point x="1162" y="900"/>
      <point x="1059" y="778"/>
      <point x="884" y="710" type="curve"/>
      <point x="872" y="670" type="line"/>
      <point x="656" y="798" type="line"/>
      <point x="740" y="850"/>
      <point x="796" y="930"/>
      <point x="796" y="999" type="curve" smooth="yes"/>
      <point x="796" y="1062"/>
      <point x="753" y="1103"/>
      <point x="686" y="1103" type="curve" smooth="yes"/>
      <point x="608" y="1103"/>
      <point x="554" y="1051"/>
      <point x="554" y="978" type="curve" smooth="yes"/>
      <point x="554" y="887"/>
      <point x="638" y="842"/>
      <point x="756" y="780" type="curve" smooth="yes"/>
      <point x="967" y="668"/>
      <point x="1050" y="566"/>
      <point x="1050" y="404" type="curve" smooth="yes"/>
      <point x="1050" y="151"/>
      <point x="816" y="-24"/>
      <point x="477" y="-24" type="curve" smooth="yes"/>
      <point x="192" y="-24"/>
      <point x="5" y="107"/>
      <point x="5" y="306" type="curve" smooth="yes"/>
      <point x="5" y="458"/>
      <point x="112" y="582"/>
      <point x="304" y="652" type="curve"/>
    </contour>
  </outline>
  <guideline angle="76.0015" x="411.51" y="0"/>
  <guideline angle="76.0015" x="965.995" y="0"/>
</glyph>
<glyph name="nine" format="2">
  <advance width="1118"/>
  <unicode hex="0039"/>
  <anchor x="412" y="0" name="bottom"/>
  <anchor x="643" y="1314" name="top"/>
  <anchor x="1295" y="1314" name="topright"/>
  <outline>
    <contour>
      <point x="41" y="81" type="line"/>
      <point x="116" y="16"/>
      <point x="244" y="-24"/>
      <point x="376" y="-24" type="curve" smooth="yes"/>
      <point x="797" y="-24"/>
      <point x="1137" y="359"/>
      <point x="1137" y="820" type="curve" smooth="yes"/>
      <point x="1137" y="1146"/>
      <point x="954" y="1339"/>
      <point x="644" y="1339" type="curve" smooth="yes"/>
      <point x="328" y="1339"/>
      <point x="102" y="1133"/>
      <point x="102" y="845" type="curve" smooth="yes"/>
      <point x="102" y="624"/>
      <point x="233" y="489"/>
      <point x="448" y="489" type="curve" smooth="yes"/>
      <point x="554" y="489"/>
      <point x="665" y="526"/>
      <point x="752" y="589" type="curve"/>
      <point x="752" y="766" type="line"/>
      <point x="720" y="734"/>
      <point x="657" y="709"/>
      <point x="609" y="709" type="curve" smooth="yes"/>
      <point x="541" y="709"/>
      <point x="503" y="760"/>
      <point x="503" y="852" type="curve" smooth="yes"/>
      <point x="503" y="959"/>
      <point x="547" y="1103"/>
      <point x="631" y="1103" type="curve" smooth="yes"/>
      <point x="692" y="1103"/>
      <point x="722" y="1033"/>
      <point x="722" y="888" type="curve" smooth="yes"/>
      <point x="722" y="578"/>
      <point x="618" y="222"/>
      <point x="316" y="222" type="curve" smooth="yes"/>
      <point x="210" y="222"/>
      <point x="83" y="262"/>
      <point x="25" y="313" type="curve"/>
      <point x="14" y="305" type="line"/>
    </contour>
  </outline>
  <guideline angle="97.0686" x="59.5728" y="0"/>
  <guideline angle="90" x="752" y="0"/>
</glyph>
<glyph name="less" format="2">
  <advance width="1118"/>
  <unicode hex="003C"/>
  <outline>
    <contour>
      <point x="104" y="362" type="line"/>
      <point x="964" y="-24" type="line"/>
      <point x="1068" y="217" type="line"/>
      <point x="234" y="565" type="line"/>
      <point x="234" y="381" type="line"/>
      <point x="1068" y="729" type="line"/>
      <point x="964" y="970" type="line"/>
      <point x="104" y="584" type="line"/>
    </contour>
  </outline>
  <guideline angle="90" x="934" y="0"/>
</glyph>
<glyph name="greater" format="2">
  <advance width="1118"/>
  <unicode hex="003E"/>
  <outline>
    <contour>
      <point x="204" y="-24" type="line"/>
      <point x="101" y="217" type="line"/>
      <point x="935" y="565" type="line"/>
      <point x="935" y="381" type="line"/>
      <point x="101" y="729" type="line"/>
      <point x="204" y="970" type="line"/>
      <point x="1064" y="584" type="line"/>
      <point x="1064" y="362" type="line"/>
    </contour>
  </outline>
  <guideline angle="112.45" x="-251.122" y="0"/>
</glyph>
<glyph name="question" format="2">
  <advance width="917"/>
  <unicode hex="003F"/>
  <outline>
    <contour>
      <point x="221" y="481" type="curve"/>
      <point x="503" y="481" type="line"/>
      <point x="519" y="607"/>
      <point x="610" y="656"/>
      <point x="737" y="725" type="curve" smooth="yes"/>
      <point x="865" y="795"/>
      <point x="998" y="866"/>
      <point x="998" y="1048" type="curve" smooth="yes"/>
      <point x="998" y="1234"/>
      <point x="855" y="1338"/>
      <point x="596" y="1338" type="curve" smooth="yes"/>
      <point x="474" y="1338"/>
      <point x="355" y="1313"/>
      <point x="258" y="1268" type="curve"/>
      <point x="203" y="1050" type="line"/>
      <point x="269" y="1083"/>
      <point x="364" y="1106"/>
      <point x="436" y="1106" type="curve" smooth="yes"/>
      <point x="529" y="1106"/>
      <point x="580" y="1070"/>
      <point x="580" y="1004" type="curve" smooth="yes"/>
      <point x="580" y="938"/>
      <point x="531" y="905"/>
      <point x="454" y="852" type="curve" smooth="yes"/>
      <point x="291" y="740"/>
      <point x="226" y="636"/>
    </contour>
    <contour>
      <point x="271" y="-24" type="curve" smooth="yes"/>
      <point x="407" y="-24"/>
      <point x="512" y="74"/>
      <point x="512" y="201" type="curve" smooth="yes"/>
      <point x="512" y="309"/>
      <point x="438" y="380"/>
      <point x="324" y="380" type="curve" smooth="yes"/>
      <point x="188" y="380"/>
      <point x="83" y="281"/>
      <point x="83" y="154" type="curve" smooth="yes"/>
      <point x="83" y="46"/>
      <point x="157" y="-24"/>
    </contour>
  </outline>
</glyph>
<glyph name="at" format="2">
  <advance width="1883"/>
  <unicode hex="0040"/>
  <outline>
    <contour>
      <point x="995" y="166" type="curve"/>
      <point x="1005" y="319" type="line"/>
      <point x="984" y="281"/>
      <point x="930" y="244"/>
      <point x="894" y="244" type="curve" smooth="yes"/>
      <point x="840" y="244"/>
      <point x="807" y="301"/>
      <point x="807" y="395" type="curve" smooth="yes"/>
      <point x="807" y="535"/>
      <point x="871" y="729"/>
      <point x="992" y="729" type="curve" smooth="yes"/>
      <point x="1032" y="729"/>
      <point x="1080" y="709"/>
      <point x="1089" y="688" type="curve"/>
      <point x="1148" y="832" type="line"/>
      <point x="1081" y="880"/>
      <point x="997" y="904"/>
      <point x="900" y="904" type="curve" smooth="yes"/>
      <point x="622" y="904"/>
      <point x="422" y="694"/>
      <point x="422" y="402" type="curve" smooth="yes"/>
      <point x="422" y="180"/>
      <point x="543" y="39"/>
      <point x="734" y="39" type="curve" smooth="yes"/>
      <point x="836" y="39"/>
      <point x="928" y="83"/>
    </contour>
    <contour>
      <point x="1224" y="-66" type="line"/>
      <point x="1120" y="-114"/>
      <point x="963" y="-147"/>
      <point x="833" y="-147" type="curve" smooth="yes"/>
      <point x="501" y="-147"/>
      <point x="292" y="66"/>
      <point x="292" y="403" type="curve" smooth="yes"/>
      <point x="292" y="813"/>
      <point x="590" y="1092"/>
      <point x="1027" y="1092" type="curve" smooth="yes"/>
      <point x="1387" y="1092"/>
      <point x="1621" y="889"/>
      <point x="1621" y="576" type="curve" smooth="yes"/>
      <point x="1621" y="376"/>
      <point x="1512" y="179"/>
      <point x="1401" y="179" type="curve" smooth="yes"/>
      <point x="1362" y="179"/>
      <point x="1338" y="207"/>
      <point x="1338" y="253" type="curve" smooth="yes"/>
      <point x="1338" y="274"/>
      <point x="1343" y="304"/>
      <point x="1354" y="348" type="curve" smooth="yes"/>
      <point x="1487" y="882" type="line"/>
      <point x="1139" y="882" type="line"/>
      <point x="1066" y="715" type="line"/>
      <point x="959" y="281" type="line" smooth="yes"/>
      <point x="954" y="259"/>
      <point x="951" y="243"/>
      <point x="951" y="223" type="curve" smooth="yes"/>
      <point x="951" y="88"/>
      <point x="1057" y="-8"/>
      <point x="1273" y="-8" type="curve" smooth="yes"/>
      <point x="1596" y="-8"/>
      <point x="1828" y="242"/>
      <point x="1828" y="588" type="curve" smooth="yes"/>
      <point x="1828" y="993"/>
      <point x="1508" y="1264"/>
      <point x="1029" y="1264" type="curve" smooth="yes"/>
      <point x="467" y="1264"/>
      <point x="66" y="902"/>
      <point x="66" y="393" type="curve" smooth="yes"/>
      <point x="66" y="-29"/>
      <point x="366" y="-321"/>
      <point x="799" y="-321" type="curve" smooth="yes"/>
      <point x="930" y="-321"/>
      <point x="1068" y="-293"/>
      <point x="1145" y="-250" type="curve"/>
      <point x="1232" y="-72" type="line"/>
    </contour>
  </outline>
  <guideline angle="76.0015" x="1266.61" y="0"/>
  <guideline angle="90" x="404" y="0"/>
  <guideline angle="115.375" x="1039.32" y="0"/>
  <guideline angle="76.0015" x="1700.11" y="0"/>
</glyph>
<glyph name="A" format="2">
  <advance width="1409"/>
  <unicode hex="0041"/>
  <anchor x="583" y="0" name="bottom"/>
  <anchor x="893" y="1314" name="top"/>
  <anchor x="1496" y="1314" name="topright"/>
  <outline>
    <contour>
      <point x="-97" y="0" type="line"/>
      <point x="249" y="0" type="line"/>
      <point x="756" y="1007" type="line"/>
      <point x="763" y="1007" type="line"/>
      <point x="812" y="0" type="line"/>
      <point x="1279" y="0" type="line"/>
      <point x="1169" y="1314" type="line"/>
      <point x="625" y="1314" type="line"/>
    </contour>
    <contour>
      <point x="387" y="333" type="line"/>
      <point x="826" y="333" type="line"/>
      <point x="814" y="570" type="line"/>
      <point x="506" y="570" type="line"/>
    </contour>
  </outline>
  <guideline angle="0" x="0" y="569"/>
  <guideline angle="0" x="0" y="336"/>
</glyph>
<glyph name="B" format="2">
  <advance width="1288"/>
  <unicode hex="0042"/>
  <anchor x="505" y="0" name="bottom"/>
  <anchor x="793" y="1314" name="top"/>
  <outline>
    <contour>
      <point x="-17" y="0" type="line"/>
      <point x="311" y="1314" type="line"/>
      <point x="869" y="1314" type="line" smooth="yes"/>
      <point x="1153" y="1314"/>
      <point x="1299" y="1212"/>
      <point x="1299" y="1022" type="curve" smooth="yes"/>
      <point x="1299" y="858"/>
      <point x="1188" y="734"/>
      <point x="998" y="687" type="curve"/>
      <point x="996" y="679" type="line"/>
      <point x="1139" y="636"/>
      <point x="1213" y="539"/>
      <point x="1213" y="398" type="curve" smooth="yes"/>
      <point x="1213" y="150"/>
      <point x="981" y="0"/>
      <point x="596" y="0" type="curve" smooth="yes"/>
    </contour>
    <contour>
      <point x="461" y="234" type="line"/>
      <point x="564" y="234" type="line" smooth="yes"/>
      <point x="691" y="234"/>
      <point x="774" y="313"/>
      <point x="774" y="434" type="curve" smooth="yes"/>
      <point x="774" y="524"/>
      <point x="729" y="566"/>
      <point x="631" y="566" type="curve" smooth="yes"/>
      <point x="543" y="566" type="line"/>
      <point x="599" y="792" type="line"/>
      <point x="694" y="792" type="line" smooth="yes"/>
      <point x="805" y="792"/>
      <point x="874" y="859"/>
      <point x="874" y="967" type="curve" smooth="yes"/>
      <point x="874" y="1046"/>
      <point x="836" y="1081"/>
      <point x="752" y="1081" type="curve" smooth="yes"/>
      <point x="671" y="1081" type="line"/>
      <point x="709" y="1112" type="line"/>
      <point x="484" y="211" type="line"/>
    </contour>
  </outline>
  <guideline angle="75.9745" x="1117.22" y="0"/>
  <guideline angle="76.0015" x="464" y="0"/>
</glyph>
<glyph name="C" format="2">
  <advance width="1317"/>
  <unicode hex="0043"/>
  <anchor x="676" y="0" name="bottom"/>
  <anchor x="943" y="1314" name="top"/>
  <outline>
    <contour>
      <point x="1349" y="1016" type="line"/>
      <point x="1272" y="1061"/>
      <point x="1166" y="1088"/>
      <point x="1062" y="1088" type="curve" smooth="yes"/>
      <point x="774" y="1088"/>
      <point x="576" y="880"/>
      <point x="576" y="577" type="curve" smooth="yes"/>
      <point x="576" y="348"/>
      <point x="691" y="231"/>
      <point x="916" y="231" type="curve" smooth="yes"/>
      <point x="1022" y="231"/>
      <point x="1150" y="258"/>
      <point x="1248" y="302" type="curve"/>
      <point x="1254" y="295" type="line"/>
      <point x="1139" y="65" type="line"/>
      <point x="1019" y="7"/>
      <point x="878" y="-24"/>
      <point x="733" y="-24" type="curve" smooth="yes"/>
      <point x="346" y="-24"/>
      <point x="113" y="192"/>
      <point x="113" y="552" type="curve" smooth="yes"/>
      <point x="113" y="1011"/>
      <point x="471" y="1338"/>
      <point x="990" y="1338" type="curve" smooth="yes"/>
      <point x="1163" y="1338"/>
      <point x="1319" y="1302"/>
      <point x="1414" y="1240" type="curve"/>
    </contour>
  </outline>
  <guideline angle="76.0015" x="951.331" y="0"/>
  <guideline angle="63.4395" x="1080.56" y="0"/>
  <guideline angle="73.8384" x="1054.9" y="0"/>
</glyph>
<glyph name="D" format="2">
  <advance width="1432"/>
  <unicode hex="0044"/>
  <anchor x="541" y="0" name="bottom"/>
  <anchor x="837" y="1314" name="top"/>
  <anchor x="1559" y="1314" name="topright"/>
  <outline>
    <contour>
      <point x="-17" y="0" type="line"/>
      <point x="501" y="0" type="line" smooth="yes"/>
      <point x="1195" y="0"/>
      <point x="1421" y="481"/>
      <point x="1421" y="817" type="curve" smooth="yes"/>
      <point x="1421" y="1142"/>
      <point x="1210" y="1314"/>
      <point x="808" y="1314" type="curve" smooth="yes"/>
      <point x="311" y="1314" type="line"/>
    </contour>
    <contour>
      <point x="465" y="241" type="line"/>
      <point x="488" y="212" type="line"/>
      <point x="710" y="1103" type="line"/>
      <point x="673" y="1073" type="line"/>
      <point x="774" y="1073" type="line" smooth="yes"/>
      <point x="897" y="1073"/>
      <point x="956" y="992"/>
      <point x="956" y="823" type="curve" smooth="yes"/>
      <point x="956" y="632"/>
      <point x="882" y="241"/>
      <point x="551" y="241" type="curve" smooth="yes"/>
    </contour>
  </outline>
</glyph>
<glyph name="E" format="2">
  <advance width="1064"/>
  <unicode hex="0045"/>
  <anchor x="449" y="0" name="bottom"/>
  <anchor x="760" y="1314" name="top"/>
  <anchor x="1291" y="1314" name="topright"/>
  <outline>
    <contour>
      <point x="-17" y="0" type="line"/>
      <point x="906" y="0" type="line"/>
      <point x="967" y="241" type="line"/>
      <point x="465" y="241" type="line"/>
      <point x="488" y="212" type="line"/>
      <point x="709" y="1103" type="line"/>
      <point x="668" y="1073" type="line"/>
      <point x="1118" y="1073" type="line"/>
      <point x="1213" y="1314" type="line"/>
      <point x="311" y="1314" type="line"/>
    </contour>
    <contour>
      <point x="544" y="561" type="line"/>
      <point x="930" y="561" type="line"/>
      <point x="989" y="798" type="line"/>
      <point x="603" y="798" type="line"/>
    </contour>
  </outline>
  <guideline angle="76.0015" x="814.772" y="0"/>
  <guideline angle="0" x="0" y="797"/>
</glyph>
<glyph name="F" format="2">
  <advance width="1026"/>
  <unicode hex="0046"/>
  <anchor x="411" y="0" name="bottom"/>
  <anchor x="757" y="1314" name="top"/>
  <anchor x="1273" y="1314" name="topright"/>
  <outline>
    <contour>
      <point x="-17" y="0" type="line"/>
      <point x="434" y="0" type="line"/>
      <point x="710" y="1103" type="line"/>
      <point x="669" y="1073" type="line"/>
      <point x="1114" y="1073" type="line"/>
      <point x="1209" y="1314" type="line"/>
      <point x="311" y="1314" type="line"/>
    </contour>
    <contour>
      <point x="538" y="533" type="line"/>
      <point x="923" y="533" type="line"/>
      <point x="982" y="771" type="line"/>
      <point x="597" y="771" type="line"/>
    </contour>
  </outline>
  <guideline angle="0" x="0" y="539"/>
</glyph>
<glyph name="G" format="2">
  <advance width="1370"/>
  <unicode hex="0047"/>
  <anchor x="696" y="0" name="bottom"/>
  <anchor x="965" y="1314" name="top"/>
  <outline>
    <contour>
      <point x="1387" y="1012" type="line"/>
      <point x="1305" y="1060"/>
      <point x="1194" y="1088"/>
      <point x="1081" y="1088" type="curve" smooth="yes"/>
      <point x="773" y="1088"/>
      <point x="571" y="874"/>
      <point x="571" y="548" type="curve" smooth="yes"/>
      <point x="571" y="328"/>
      <point x="668" y="220"/>
      <point x="866" y="220" type="curve" smooth="yes"/>
      <point x="905" y="220"/>
      <point x="951" y="224"/>
      <point x="1026" y="235" type="curve"/>
      <point x="1176" y="47" type="line"/>
      <point x="1078" y="5"/>
      <point x="904" y="-24"/>
      <point x="754" y="-24" type="curve" smooth="yes"/>
      <point x="352" y="-24"/>
      <point x="113" y="192"/>
      <point x="113" y="555" type="curve" smooth="yes"/>
      <point x="113" y="1014"/>
      <point x="485" y="1338"/>
      <point x="1011" y="1338" type="curve" smooth="yes"/>
      <point x="1190" y="1338"/>
      <point x="1353" y="1300"/>
      <point x="1452" y="1235" type="curve"/>
    </contour>
    <contour>
      <point x="773" y="47" type="line"/>
      <point x="919" y="636" type="line"/>
      <point x="1323" y="636" type="line"/>
      <point x="1176" y="47" type="line"/>
    </contour>
  </outline>
  <guideline angle="76.0015" x="2440.65" y="0"/>
  <guideline angle="76.0015" x="1163.96" y="0"/>
</glyph>
<glyph name="H" format="2">
  <advance width="1407"/>
  <unicode hex="0048"/>
  <anchor x="598" y="0" name="bottom"/>
  <anchor x="898" y="1314" name="top"/>
  <outline>
    <contour>
      <point x="-17" y="0" type="line"/>
      <point x="312" y="1314" type="line"/>
      <point x="764" y="1314" type="line"/>
      <point x="435" y="0" type="line"/>
    </contour>
    <contour>
      <point x="730" y="0" type="line"/>
      <point x="1058" y="1314" type="line"/>
      <point x="1510" y="1314" type="line"/>
      <point x="1182" y="0" type="line"/>
    </contour>
    <contour>
      <point x="546" y="561" type="line"/>
      <point x="605" y="798" type="line"/>
      <point x="959" y="798" type="line"/>
      <point x="900" y="561" type="line"/>
    </contour>
  </outline>
  <guideline angle="0" x="0" y="797"/>
</glyph>
<glyph name="I" format="2">
  <advance width="660"/>
  <unicode hex="0049"/>
  <anchor x="207" y="0" name="bottom"/>
  <anchor x="535" y="1314" name="top"/>
  <anchor x="867" y="1314" name="topright"/>
  <outline>
    <contour>
      <point x="-17" y="0" type="line"/>
      <point x="434" y="0" type="line"/>
      <point x="763" y="1314" type="line"/>
      <point x="311" y="1314" type="line"/>
    </contour>
  </outline>
  <guideline angle="76.0015" x="-17.4136" y="0"/>
</glyph>
<glyph name="J" format="2">
  <advance width="905"/>
  <unicode hex="004A"/>
  <anchor x="336" y="0" name="bottom"/>
  <anchor x="788" y="1314" name="top"/>
  <outline>
    <contour>
      <point x="-17" y="49" type="curve"/>
      <point x="-47" y="247" type="line"/>
      <point x="-39" y="254" type="line"/>
      <point x="-2" y="228"/>
      <point x="64" y="210"/>
      <point x="125" y="210" type="curve" smooth="yes"/>
      <point x="255" y="210"/>
      <point x="306" y="281"/>
      <point x="345" y="438" type="curve" smooth="yes"/>
      <point x="563" y="1314" type="line"/>
      <point x="1013" y="1314" type="line"/>
      <point x="786" y="407" type="line" smooth="yes"/>
      <point x="711" y="106"/>
      <point x="557" y="-24"/>
      <point x="278" y="-24" type="curve" smooth="yes"/>
      <point x="157" y="-24"/>
      <point x="52" y="2"/>
    </contour>
  </outline>
  <guideline angle="0" x="0" y="1007"/>
  <guideline angle="98.4859" x="0" y="0"/>
</glyph>
<glyph name="K" format="2">
  <advance width="1394"/>
  <unicode hex="004B"/>
  <anchor x="620" y="0" name="bottom"/>
  <anchor x="886" y="1314" name="top"/>
  <outline>
    <contour>
      <point x="-17" y="0" type="line"/>
      <point x="311" y="1314" type="line"/>
      <point x="763" y="1314" type="line"/>
      <point x="434" y="0" type="line"/>
    </contour>
    <contour>
      <point x="811" y="0" type="line"/>
      <point x="575" y="666" type="line"/>
      <point x="1138" y="1314" type="line"/>
      <point x="1528" y="1314" type="line"/>
      <point x="964" y="665" type="line"/>
      <point x="988" y="760" type="line"/>
      <point x="1278" y="0" type="line"/>
    </contour>
  </outline>
  <guideline angle="42.2552" x="0" y="-1168.54"/>
  <guideline angle="76.0015" x="962.329" y="0"/>
  <guideline angle="48.8595" x="375.767" y="0"/>
</glyph>
<glyph name="L" format="2">
  <advance width="1038"/>
  <unicode hex="004C"/>
  <anchor x="447" y="0" name="bottom"/>
  <anchor x="538" y="1314" name="top"/>
  <outline>
    <contour>
      <point x="-17" y="0" type="line"/>
      <point x="311" y="1314" type="line"/>
      <point x="763" y="1314" type="line"/>
      <point x="487" y="210" type="line"/>
      <point x="456" y="241" type="line"/>
      <point x="964" y="241" type="line"/>
      <point x="870" y="0" type="line"/>
    </contour>
  </outline>
</glyph>
<glyph name="M" format="2">
  <advance width="1822"/>
  <unicode hex="004D"/>
  <anchor x="788" y="0" name="bottom"/>
  <anchor x="1121" y="1314" name="top"/>
  <outline>
    <contour>
      <point x="-51" y="0" type="line"/>
      <point x="381" y="1314" type="line"/>
      <point x="914" y="1314" type="line"/>
      <point x="938" y="768" type="line" smooth="yes"/>
      <point x="941" y="711"/>
      <point x="940" y="646"/>
      <point x="940" y="598" type="curve"/>
      <point x="948" y="598" type="line"/>
      <point x="965" y="643"/>
      <point x="990" y="700"/>
      <point x="1017" y="749" type="curve" smooth="yes"/>
      <point x="1328" y="1314" type="line"/>
      <point x="1855" y="1314" type="line"/>
      <point x="1632" y="0" type="line"/>
      <point x="1181" y="0" type="line"/>
      <point x="1337" y="821" type="line"/>
      <point x="1325" y="821" type="line"/>
      <point x="1300" y="766"/>
      <point x="1263" y="690"/>
      <point x="1232" y="636" type="curve" smooth="yes"/>
      <point x="873" y="0" type="line"/>
      <point x="598" y="0" type="line"/>
      <point x="564" y="579" type="line" smooth="yes"/>
      <point x="558" y="692"/>
      <point x="557" y="755"/>
      <point x="557" y="821" type="curve"/>
      <point x="545" y="821" type="line"/>
      <point x="280" y="0" type="line"/>
    </contour>
  </outline>
  <guideline angle="0" x="0" y="1098"/>
  <guideline angle="88.2129" x="187.883" y="0"/>
</glyph>
<glyph name="N" format="2">
  <advance width="1396"/>
  <unicode hex="004E"/>
  <anchor x="599" y="0" name="bottom"/>
  <anchor x="907" y="1314" name="top"/>
  <outline>
    <contour>
      <point x="-17" y="0" type="line"/>
      <point x="311" y="1314" type="line"/>
      <point x="706" y="1314" type="line"/>
      <point x="903" y="867" type="line" smooth="yes"/>
      <point x="931" y="803"/>
      <point x="963" y="721"/>
      <point x="987" y="656" type="curve"/>
      <point x="997" y="656" type="line"/>
      <point x="1160" y="1314" type="line"/>
      <point x="1499" y="1314" type="line"/>
      <point x="1171" y="0" type="line"/>
      <point x="784" y="0" type="line"/>
      <point x="584" y="451" type="line" smooth="yes"/>
      <point x="553" y="521"/>
      <point x="521" y="606"/>
      <point x="498" y="670" type="curve"/>
      <point x="488" y="670" type="line"/>
      <point x="322" y="0" type="line"/>
    </contour>
  </outline>
  <guideline angle="90" x="339" y="0"/>
  <guideline angle="90" x="1029" y="0"/>
</glyph>
<glyph name="O" format="2">
  <advance width="1506"/>
  <unicode hex="004F"/>
  <anchor x="675" y="0" name="bottom"/>
  <anchor x="939" y="1314" name="top"/>
  <outline>
    <contour>
      <point x="113" y="543" type="curve" smooth="yes"/>
      <point x="113" y="995"/>
      <point x="448" y="1338"/>
      <point x="891" y="1338" type="curve" smooth="yes"/>
      <point x="1261" y="1338"/>
      <point x="1478" y="1129"/>
      <point x="1478" y="772" type="curve" smooth="yes"/>
      <point x="1478" y="320"/>
      <point x="1141" y="-24"/>
      <point x="698" y="-24" type="curve" smooth="yes"/>
      <point x="329" y="-24"/>
      <point x="113" y="186"/>
    </contour>
    <contour>
      <point x="697" y="211" type="curve" smooth="yes"/>
      <point x="925" y="211"/>
      <point x="1026" y="691"/>
      <point x="1026" y="885" type="curve" smooth="yes"/>
      <point x="1026" y="1025"/>
      <point x="979" y="1103"/>
      <point x="895" y="1103" type="curve" smooth="yes"/>
      <point x="673" y="1103"/>
      <point x="566" y="644"/>
      <point x="566" y="429" type="curve" smooth="yes"/>
      <point x="566" y="289"/>
      <point x="613" y="211"/>
    </contour>
  </outline>
  <guideline angle="76.0015" x="1302.35" y="0"/>
  <guideline angle="76.0015" x="607.642" y="0"/>
</glyph>
<glyph name="P" format="2">
  <advance width="1293"/>
  <unicode hex="0050"/>
  <anchor x="481" y="0" name="bottom"/>
  <anchor x="810" y="1314" name="top"/>
  <anchor x="1450" y="1314" name="topright"/>
  <outline>
    <contour>
      <point x="-17" y="0" type="line"/>
      <point x="435" y="0" type="line"/>
      <point x="719" y="1141" type="line"/>
      <point x="631" y="1075" type="line"/>
      <point x="752" y="1075" type="line" smooth="yes"/>
      <point x="847" y="1075"/>
      <point x="895" y="1025"/>
      <point x="895" y="925" type="curve" smooth="yes"/>
      <point x="895" y="789"/>
      <point x="806" y="703"/>
      <point x="666" y="703" type="curve" smooth="yes"/>
      <point x="580" y="703" type="line"/>
      <point x="519" y="457" type="line"/>
      <point x="688" y="457" type="line" smooth="yes"/>
      <point x="1093" y="457"/>
      <point x="1357" y="653"/>
      <point x="1357" y="951" type="curve" smooth="yes"/>
      <point x="1357" y="1189"/>
      <point x="1182" y="1314"/>
      <point x="848" y="1314" type="curve" smooth="yes"/>
      <point x="311" y="1314" type="line"/>
    </contour>
  </outline>
  <guideline angle="0" x="0" y="698"/>
</glyph>
<glyph name="Q" format="2">
  <advance width="1506"/>
  <unicode hex="0051"/>
  <anchor x="611" y="-174" name="bottom"/>
  <anchor x="939" y="1314" name="top"/>
  <anchor x="1633" y="1314" name="topright"/>
  <outline>
    <contour>
      <point x="1478" y="-120" type="line"/>
      <point x="1349" y="-36"/>
      <point x="1186" y="16"/>
      <point x="1015" y="41" type="curve"/>
      <point x="1015" y="94" type="line"/>
      <point x="858" y="-3" type="line"/>
      <point x="1227" y="76"/>
      <point x="1478" y="391"/>
      <point x="1478" y="773" type="curve" smooth="yes"/>
      <point x="1478" y="1130"/>
      <point x="1262" y="1338"/>
      <point x="892" y="1338" type="curve" smooth="yes"/>
      <point x="448" y="1338"/>
      <point x="113" y="994"/>
      <point x="113" y="539" type="curve" smooth="yes"/>
      <point x="113" y="254"/>
      <point x="237" y="94"/>
      <point x="538" y="-9" type="curve" smooth="yes"/>
      <point x="867" y="-122"/>
      <point x="1045" y="-215"/>
      <point x="1270" y="-428" type="curve"/>
    </contour>
    <contour>
      <point x="697" y="211" type="curve" smooth="yes"/>
      <point x="611" y="211"/>
      <point x="566" y="285"/>
      <point x="566" y="429" type="curve" smooth="yes"/>
      <point x="566" y="648"/>
      <point x="680" y="1103"/>
      <point x="895" y="1103" type="curve" smooth="yes"/>
      <point x="981" y="1103"/>
      <point x="1026" y="1029"/>
      <point x="1026" y="885" type="curve" smooth="yes"/>
      <point x="1026" y="643"/>
      <point x="904" y="211"/>
    </contour>
  </outline>
  <guideline angle="76" x="655" y="0"/>
</glyph>
<glyph name="R" format="2">
  <advance width="1386"/>
  <unicode hex="0052"/>
  <anchor x="579" y="0" name="bottom"/>
  <anchor x="810" y="1314" name="top"/>
  <anchor x="1513" y="1314" name="topright"/>
  <outline>
    <contour>
      <point x="-17" y="0" type="line"/>
      <point x="433" y="0" type="line"/>
      <point x="710" y="1105" type="line"/>
      <point x="664" y="1075" type="line"/>
      <point x="752" y="1075" type="line" smooth="yes"/>
      <point x="847" y="1075"/>
      <point x="895" y="1029"/>
      <point x="895" y="938" type="curve" smooth="yes"/>
      <point x="895" y="815"/>
      <point x="807" y="735"/>
      <point x="671" y="735" type="curve" smooth="yes"/>
      <point x="587" y="735" type="line"/>
      <point x="526" y="491" type="line"/>
      <point x="660" y="491" type="line" smooth="yes"/>
      <point x="1082" y="491"/>
      <point x="1353" y="676"/>
      <point x="1353" y="967" type="curve" smooth="yes"/>
      <point x="1353" y="1195"/>
      <point x="1180" y="1314"/>
      <point x="848" y="1314" type="curve" smooth="yes"/>
      <point x="311" y="1314" type="line"/>
    </contour>
    <contour>
      <point x="786" y="0" type="line"/>
      <point x="1275" y="0" type="line"/>
      <point x="979" y="553" type="line"/>
      <point x="534" y="553" type="line"/>
    </contour>
  </outline>
  <guideline angle="90" x="1166" y="0"/>
  <guideline angle="0" x="0" y="723"/>
</glyph>
<glyph name="S" format="2">
  <advance width="1164"/>
  <unicode hex="0053"/>
  <anchor x="511" y="0" name="bottom"/>
  <anchor x="819" y="1314" name="top"/>
  <anchor x="1351" y="1314" name="topright"/>
  <outline>
    <contour>
      <point x="45" y="120" type="line"/>
      <point x="101" y="70"/>
      <point x="251" y="-24"/>
      <point x="500" y="-24" type="curve" smooth="yes"/>
      <point x="879" y="-24"/>
      <point x="1095" y="189"/>
      <point x="1095" y="445" type="curve" smooth="yes"/>
      <point x="1095" y="648"/>
      <point x="949" y="742"/>
      <point x="824" y="814" type="curve" smooth="yes"/>
      <point x="722" y="873"/>
      <point x="653" y="909"/>
      <point x="653" y="972" type="curve" smooth="yes"/>
      <point x="653" y="1055"/>
      <point x="747" y="1091"/>
      <point x="865" y="1091" type="curve" smooth="yes"/>
      <point x="968" y="1091"/>
      <point x="1087" y="1062"/>
      <point x="1163" y="1013" type="curve"/>
      <point x="1221" y="1247" type="line"/>
      <point x="1126" y="1300"/>
      <point x="991" y="1338"/>
      <point x="818" y="1338" type="curve" smooth="yes"/>
      <point x="440" y="1338"/>
      <point x="169" y="1160"/>
      <point x="169" y="888" type="curve" smooth="yes"/>
      <point x="169" y="694"/>
      <point x="308" y="600"/>
      <point x="429" y="524" type="curve" smooth="yes"/>
      <point x="535" y="458"/>
      <point x="603" y="418"/>
      <point x="603" y="346" type="curve" smooth="yes"/>
      <point x="603" y="275"/>
      <point x="548" y="230"/>
      <point x="411" y="230" type="curve" smooth="yes"/>
      <point x="284" y="230"/>
      <point x="138" y="271"/>
      <point x="24" y="355" type="curve"/>
      <point x="15" y="348" type="line"/>
    </contour>
  </outline>
  <guideline angle="76.0015" x="997.156" y="0"/>
  <guideline angle="97.5421" x="54.9902" y="0"/>
  <guideline angle="76.0015" x="-65.9883" y="0"/>
</glyph>
<glyph name="T" format="2">
  <advance width="1146"/>
  <unicode hex="0054"/>
  <anchor x="451" y="0" name="bottom"/>
  <anchor x="779" y="1314" name="top"/>
  <outline>
    <contour>
      <point x="225" y="0" type="line"/>
      <point x="501" y="1103" type="line"/>
      <point x="953" y="1103" type="line"/>
      <point x="678" y="0" type="line"/>
    </contour>
    <contour>
      <point x="162" y="1073" type="line"/>
      <point x="222" y="1314" type="line"/>
      <point x="1354" y="1314" type="line"/>
      <point x="1259" y="1073" type="line"/>
    </contour>
  </outline>
</glyph>
<glyph name="U" format="2">
  <advance width="1324"/>
  <unicode hex="0055"/>
  <anchor x="608" y="0" name="bottom"/>
  <anchor x="893" y="1314" name="top"/>
  <outline>
    <contour>
      <point x="301" y="1314" type="line"/>
      <point x="752" y="1314" type="line"/>
      <point x="569" y="580" type="line" smooth="yes"/>
      <point x="536" y="449"/>
      <point x="528" y="402"/>
      <point x="528" y="357" type="curve" smooth="yes"/>
      <point x="528" y="264"/>
      <point x="574" y="215"/>
      <point x="659" y="215" type="curve" smooth="yes"/>
      <point x="820" y="215"/>
      <point x="863" y="393"/>
      <point x="898" y="532" type="curve" smooth="yes"/>
      <point x="1092" y="1314" type="line"/>
      <point x="1436" y="1314" type="line"/>
      <point x="1246" y="549" type="line" smooth="yes"/>
      <point x="1148" y="154"/>
      <point x="951" y="-24"/>
      <point x="597" y="-24" type="curve" smooth="yes"/>
      <point x="280" y="-24"/>
      <point x="87" y="126"/>
      <point x="87" y="371" type="curve" smooth="yes"/>
      <point x="87" y="426"/>
      <point x="97" y="496"/>
      <point x="117" y="578" type="curve" smooth="yes"/>
    </contour>
  </outline>
  <guideline angle="0" x="0" y="869"/>
  <guideline angle="76.0015" x="460.085" y="0"/>
</glyph>
<glyph name="V" format="2">
  <advance width="1396"/>
  <unicode hex="0056"/>
  <anchor x="585" y="0" name="bottom"/>
  <anchor x="923" y="1314" name="top"/>
  <anchor x="1633" y="1314" name="topright"/>
  <outline>
    <contour>
      <point x="320" y="0" type="line"/>
      <point x="851" y="0" type="line"/>
      <point x="1573" y="1314" type="line"/>
      <point x="1229" y="1314" type="line"/>
      <point x="738" y="381" type="line"/>
      <point x="731" y="381" type="line"/>
      <point x="672" y="1314" type="line"/>
      <point x="207" y="1314" type="line"/>
    </contour>
  </outline>
</glyph>
<glyph name="W" format="2">
  <advance width="1891"/>
  <unicode hex="0057"/>
  <anchor x="845" y="0" name="bottom"/>
  <anchor x="1183" y="1314" name="top"/>
  <outline>
    <contour>
      <point x="251" y="0" type="line"/>
      <point x="220" y="1314" type="line"/>
      <point x="688" y="1314" type="line"/>
      <point x="660" y="649" type="line" smooth="yes"/>
      <point x="657" y="576"/>
      <point x="652" y="538"/>
      <point x="644" y="459" type="curve"/>
      <point x="653" y="459" type="line"/>
      <point x="670" y="510"/>
      <point x="683" y="574"/>
      <point x="721" y="660" type="curve" smooth="yes"/>
      <point x="1006" y="1314" type="line"/>
      <point x="1349" y="1314" type="line"/>
      <point x="1358" y="664" type="line" smooth="yes"/>
      <point x="1359" y="584"/>
      <point x="1349" y="510"/>
      <point x="1340" y="459" type="curve"/>
      <point x="1348" y="459" type="line"/>
      <point x="1368" y="510"/>
      <point x="1391" y="576"/>
      <point x="1431" y="665" type="curve" smooth="yes"/>
      <point x="1721" y="1314" type="line"/>
      <point x="2066" y="1314" type="line"/>
      <point x="1409" y="0" type="line"/>
      <point x="972" y="0" type="line"/>
      <point x="987" y="499" type="line" smooth="yes"/>
      <point x="988" y="546"/>
      <point x="994" y="633"/>
      <point x="999" y="679" type="curve"/>
      <point x="992" y="679" type="line"/>
      <point x="976" y="633"/>
      <point x="937" y="546"/>
      <point x="908" y="482" type="curve" smooth="yes"/>
      <point x="689" y="0" type="line"/>
    </contour>
  </outline>
  <guideline angle="0" x="0" y="224"/>
  <guideline angle="0" x="0" y="1039"/>
</glyph>
<glyph name="X" format="2">
  <advance width="1358"/>
  <unicode hex="0058"/>
  <anchor x="546" y="0" name="bottom"/>
  <anchor x="887" y="1314" name="top"/>
  <anchor x="1605" y="1314" name="topright"/>
  <outline>
    <contour>
      <point x="756" y="0" type="line"/>
      <point x="1233" y="0" type="line"/>
      <point x="701" y="1314" type="line"/>
      <point x="225" y="1314" type="line"/>
    </contour>
    <contour>
      <point x="-117" y="0" type="line"/>
      <point x="262" y="0" type="line"/>
      <point x="623" y="400" type="line"/>
      <point x="517" y="662" type="line"/>
    </contour>
    <contour>
      <point x="827" y="930" type="line"/>
      <point x="932" y="672" type="line"/>
      <point x="1549" y="1314" type="line"/>
      <point x="1179" y="1314" type="line"/>
    </contour>
  </outline>
  <guideline angle="227.934" x="623" y="400"/>
</glyph>
<glyph name="Y" format="2">
  <advance width="1325"/>
  <unicode hex="0059"/>
  <anchor x="530" y="0" name="bottom"/>
  <anchor x="866" y="1314" name="top"/>
  <anchor x="1572" y="1314" name="topright"/>
  <outline>
    <contour>
      <point x="316" y="0" type="line"/>
      <point x="768" y="0" type="line"/>
      <point x="888" y="485" type="line"/>
      <point x="1553" y="1314" type="line"/>
      <point x="1185" y="1314" type="line"/>
      <point x="796" y="789" type="line"/>
      <point x="788" y="789" type="line"/>
      <point x="645" y="1314" type="line"/>
      <point x="179" y="1314" type="line"/>
      <point x="438" y="491" type="line"/>
    </contour>
  </outline>
  <guideline angle="76.0123" x="467.417" y="0"/>
  <guideline angle="75.9422" x="287.782" y="0"/>
</glyph>
<glyph name="Z" format="2">
  <advance width="1140"/>
  <unicode hex="005A"/>
  <anchor x="455" y="0" name="bottom"/>
  <anchor x="778" y="1314" name="top"/>
  <anchor x="1357" y="1314" name="topright"/>
  <outline>
    <contour>
      <point x="-93" y="0" type="line"/>
      <point x="954" y="0" type="line"/>
      <point x="1048" y="241" type="line"/>
      <point x="461" y="241" type="line"/>
      <point x="501" y="201" type="line"/>
      <point x="501" y="249" type="line"/>
      <point x="1234" y="1082" type="line"/>
      <point x="1291" y="1314" type="line"/>
      <point x="264" y="1314" type="line"/>
      <point x="204" y="1073" type="line"/>
      <point x="730" y="1073" type="line"/>
      <point x="700" y="1103" type="line"/>
      <point x="700" y="1066" type="line"/>
      <point x="-35" y="232" type="line"/>
    </contour>
  </outline>
  <guideline angle="76.0015" x="-92.5669" y="0"/>
</glyph>
<glyph name="bracketleft" format="2">
  <advance width="766"/>
  <unicode hex="005B"/>
  <outline>
    <contour>
      <point x="-108" y="-389" type="line"/>
      <point x="330" y="1375" type="line"/>
      <point x="949" y="1375" type="line"/>
      <point x="898" y="1169" type="line"/>
      <point x="549" y="1169" type="line"/>
      <point x="602" y="1209" type="line"/>
      <point x="247" y="-223" type="line"/>
      <point x="214" y="-182" type="line"/>
      <point x="563" y="-182" type="line"/>
      <point x="511" y="-389" type="line"/>
    </contour>
  </outline>
  <guideline angle="76.0015" x="534.322" y="0"/>
</glyph>
<glyph name="backslash" format="2">
  <advance width="1141"/>
  <unicode hex="005C"/>
  <outline>
    <contour>
      <point x="742" y="-245" type="line"/>
      <point x="229" y="1414" type="line"/>
      <point x="467" y="1414" type="line"/>
      <point x="980" y="-245" type="line"/>
    </contour>
  </outline>
</glyph>
<glyph name="bracketright" format="2">
  <advance width="766"/>
  <unicode hex="005D"/>
  <outline>
    <contour>
      <point x="-180" y="-389" type="line"/>
      <point x="-128" y="-182" type="line"/>
      <point x="221" y="-182" type="line"/>
      <point x="168" y="-223" type="line"/>
      <point x="523" y="1209" type="line"/>
      <point x="556" y="1169" type="line"/>
      <point x="207" y="1169" type="line"/>
      <point x="258" y="1375" type="line"/>
      <point x="878" y="1375" type="line"/>
      <point x="440" y="-389" type="line"/>
    </contour>
  </outline>
  <guideline angle="76.0015" x="462.834" y="0"/>
</glyph>
<glyph name="asciicircum" format="2">
  <advance width="1008"/>
  <unicode hex="005E"/>
  <outline>
    <contour>
      <point x="579" y="1187" type="line"/>
      <point x="511" y="1187" type="line"/>
      <point x="797" y="525" type="line"/>
      <point x="1013" y="618" type="line"/>
      <point x="693" y="1314" type="line"/>
      <point x="398" y="1314" type="line"/>
      <point x="78" y="618" type="line"/>
      <point x="293" y="525" type="line"/>
    </contour>
  </outline>
</glyph>
<glyph name="underscore" format="2">
  <advance width="809"/>
  <unicode hex="005F"/>
  <outline>
    <contour>
      <point x="-209" y="-245" type="line"/>
      <point x="-173" y="-101" type="line"/>
      <point x="691" y="-101" type="line"/>
      <point x="655" y="-245" type="line"/>
    </contour>
  </outline>
  <guideline angle="0" x="0" y="-160"/>
</glyph>
<glyph name="a" format="2">
  <advance width="1276"/>
  <unicode hex="0061"/>
  <anchor x="567" y="0" name="bottom"/>
  <anchor x="750" y="946" name="top"/>
  <outline>
    <contour>
      <point x="706" y="135" type="line"/>
      <point x="616" y="26"/>
      <point x="511" y="-24"/>
      <point x="389" y="-24" type="curve" smooth="yes"/>
      <point x="177" y="-24"/>
      <point x="43" y="126"/>
      <point x="43" y="363" type="curve" smooth="yes"/>
      <point x="43" y="685"/>
      <point x="278" y="971"/>
      <point x="644" y="971" type="curve" smooth="yes"/>
      <point x="750" y="971"/>
      <point x="823" y="947"/>
      <point x="899" y="887" type="curve"/>
      <point x="832" y="727" type="line"/>
      <point x="793" y="756"/>
      <point x="769" y="766"/>
      <point x="735" y="766" type="curve" smooth="yes"/>
      <point x="571" y="766"/>
      <point x="491" y="522"/>
      <point x="491" y="358" type="curve" smooth="yes"/>
      <point x="491" y="262"/>
      <point x="525" y="210"/>
      <point x="587" y="210" type="curve" smooth="yes"/>
      <point x="637" y="210"/>
      <point x="685" y="244"/>
      <point x="723" y="307" type="curve"/>
    </contour>
    <contour>
      <point x="680" y="0" type="line"/>
      <point x="669" y="39"/>
      <point x="663" y="80"/>
      <point x="663" y="124" type="curve" smooth="yes"/>
      <point x="663" y="167"/>
      <point x="668" y="209"/>
      <point x="679" y="251" type="curve" smooth="yes"/>
      <point x="804" y="750" type="line"/>
      <point x="883" y="946" type="line"/>
      <point x="1296" y="946" type="line"/>
      <point x="1130" y="280" type="line" smooth="yes"/>
      <point x="1101" y="163"/>
      <point x="1092" y="108"/>
      <point x="1092" y="49" type="curve" smooth="yes"/>
      <point x="1092" y="31"/>
      <point x="1091" y="16"/>
      <point x="1093" y="0" type="curve"/>
    </contour>
  </outline>
  <guideline angle="76.0015" x="511" y="0"/>
  <guideline angle="90" x="116" y="0"/>
  <guideline angle="75.9367" x="709" y="251"/>
</glyph>
<glyph name="b" format="2">
  <advance width="1279"/>
  <unicode hex="0062"/>
  <anchor x="515" y="0" name="bottom"/>
  <anchor x="802" y="1417" name="top"/>
  <anchor x="1304" y="946" name="topright"/>
  <outline>
    <contour>
      <point x="-27" y="0" type="line"/>
      <point x="390" y="0" type="line"/>
      <point x="463" y="190" type="line"/>
      <point x="775" y="1443" type="line"/>
      <point x="321" y="1389" type="line"/>
    </contour>
    <contour>
      <point x="369" y="66" type="line"/>
      <point x="441" y="3"/>
      <point x="519" y="-24"/>
      <point x="632" y="-24" type="curve" smooth="yes"/>
      <point x="1009" y="-24"/>
      <point x="1227" y="278"/>
      <point x="1227" y="583" type="curve" smooth="yes"/>
      <point x="1227" y="823"/>
      <point x="1092" y="971"/>
      <point x="874" y="971" type="curve" smooth="yes"/>
      <point x="772" y="971"/>
      <point x="680" y="937"/>
      <point x="602" y="870" type="curve"/>
      <point x="553" y="670" type="line"/>
      <point x="594" y="715"/>
      <point x="636" y="738"/>
      <point x="678" y="738" type="curve" smooth="yes"/>
      <point x="744" y="738"/>
      <point x="779" y="685"/>
      <point x="779" y="586" type="curve" smooth="yes"/>
      <point x="779" y="369"/>
      <point x="667" y="181"/>
      <point x="538" y="181" type="curve" smooth="yes"/>
      <point x="502" y="181"/>
      <point x="466" y="194"/>
      <point x="440" y="217" type="curve"/>
    </contour>
  </outline>
  <guideline angle="256.018" x="745" y="1443"/>
</glyph>
<glyph name="c" format="2">
  <advance width="1070"/>
  <unicode hex="0063"/>
  <anchor x="487" y="0" name="bottom"/>
  <anchor x="691" y="946" name="top"/>
  <outline>
    <contour>
      <point x="1019" y="706" type="line"/>
      <point x="963" y="735"/>
      <point x="892" y="751"/>
      <point x="824" y="751" type="curve" smooth="yes"/>
      <point x="632" y="751"/>
      <point x="499" y="621"/>
      <point x="499" y="435" type="curve" smooth="yes"/>
      <point x="499" y="282"/>
      <point x="594" y="190"/>
      <point x="752" y="190" type="curve" smooth="yes"/>
      <point x="820" y="190"/>
      <point x="915" y="211"/>
      <point x="966" y="238" type="curve"/>
      <point x="975" y="232" type="line"/>
      <point x="883" y="43" type="line"/>
      <point x="797" y="1"/>
      <point x="669" y="-24"/>
      <point x="544" y="-24" type="curve" smooth="yes"/>
      <point x="234" y="-24"/>
      <point x="49" y="136"/>
      <point x="49" y="405" type="curve" smooth="yes"/>
      <point x="49" y="741"/>
      <point x="330" y="971"/>
      <point x="739" y="971" type="curve" smooth="yes"/>
      <point x="872" y="971"/>
      <point x="984" y="948"/>
      <point x="1070" y="902" type="curve"/>
    </contour>
  </outline>
  <guideline angle="76.0015" x="625.972" y="0"/>
  <guideline angle="63.9553" x="852.349" y="0"/>
</glyph>
<glyph name="d" format="2">
  <advance width="1278"/>
  <unicode hex="0064"/>
  <anchor x="567" y="0" name="bottom"/>
  <anchor x="886" y="1417" name="top"/>
  <anchor x="1510" y="1417" name="topright"/>
  <outline>
    <contour>
      <point x="694" y="121" type="curve"/>
      <point x="725" y="310" type="line"/>
      <point x="686" y="245"/>
      <point x="637" y="210"/>
      <point x="587" y="210" type="curve" smooth="yes"/>
      <point x="525" y="210"/>
      <point x="491" y="262"/>
      <point x="491" y="358" type="curve" smooth="yes"/>
      <point x="491" y="501"/>
      <point x="562" y="766"/>
      <point x="733" y="766" type="curve" smooth="yes"/>
      <point x="767" y="766"/>
      <point x="797" y="756"/>
      <point x="831" y="732" type="curve"/>
      <point x="875" y="908" type="line"/>
      <point x="805" y="952"/>
      <point x="734" y="971"/>
      <point x="640" y="971" type="curve" smooth="yes"/>
      <point x="267" y="971"/>
      <point x="43" y="673"/>
      <point x="43" y="363" type="curve" smooth="yes"/>
      <point x="43" y="126"/>
      <point x="177" y="-24"/>
      <point x="389" y="-24" type="curve" smooth="yes"/>
      <point x="510" y="-24"/>
      <point x="609" y="25"/>
    </contour>
    <contour>
      <point x="681" y="0" type="curve"/>
      <point x="1095" y="0" type="line"/>
      <point x="1093" y="16"/>
      <point x="1093" y="31"/>
      <point x="1093" y="46" type="curve" smooth="yes"/>
      <point x="1093" y="124"/>
      <point x="1111" y="195"/>
      <point x="1132" y="280" type="curve" smooth="yes"/>
      <point x="1421" y="1443" type="line"/>
      <point x="965" y="1389" type="line"/>
      <point x="678" y="240" type="line" smooth="yes"/>
      <point x="669" y="202"/>
      <point x="664" y="156"/>
      <point x="664" y="112" type="curve" smooth="yes"/>
      <point x="664" y="63"/>
      <point x="670" y="24"/>
    </contour>
  </outline>
</glyph>
<glyph name="e" format="2">
  <advance width="1122"/>
  <unicode hex="0065"/>
  <anchor x="486" y="0" name="bottom"/>
  <anchor x="692" y="946" name="top"/>
  <anchor x="1197" y="946" name="topright"/>
  <outline>
    <contour>
      <point x="459" y="510" type="curve"/>
      <point x="459" y="366" type="line"/>
      <point x="901" y="416"/>
      <point x="1104" y="530"/>
      <point x="1104" y="724" type="curve" smooth="yes"/>
      <point x="1104" y="881"/>
      <point x="969" y="971"/>
      <point x="731" y="971" type="curve" smooth="yes"/>
      <point x="335" y="971"/>
      <point x="46" y="725"/>
      <point x="46" y="387" type="curve" smooth="yes"/>
      <point x="46" y="124"/>
      <point x="220" y="-24"/>
      <point x="528" y="-24" type="curve" smooth="yes"/>
      <point x="674" y="-24"/>
      <point x="829" y="11"/>
      <point x="923" y="65" type="curve"/>
      <point x="1016" y="257" type="line"/>
      <point x="1008" y="263" type="line"/>
      <point x="940" y="221"/>
      <point x="824" y="192"/>
      <point x="727" y="192" type="curve" smooth="yes"/>
      <point x="570" y="192"/>
      <point x="489" y="274"/>
      <point x="489" y="433" type="curve" smooth="yes"/>
      <point x="489" y="608"/>
      <point x="592" y="786"/>
      <point x="693" y="786" type="curve" smooth="yes"/>
      <point x="733" y="786"/>
      <point x="757" y="754"/>
      <point x="757" y="701" type="curve" smooth="yes"/>
      <point x="757" y="595"/>
      <point x="663" y="534"/>
    </contour>
  </outline>
  <guideline angle="90" x="978" y="0"/>
  <guideline angle="76.0015" x="421" y="0"/>
  <guideline angle="76.0015" x="751" y="0"/>
  <guideline angle="63.9553" x="882" y="0"/>
  <guideline angle="90" x="459" y="0"/>
</glyph>
<glyph name="f" format="2">
  <advance width="780"/>
  <unicode hex="0066"/>
  <anchor x="247" y="0" name="bottom"/>
  <anchor x="673" y="1417" name="top"/>
  <anchor x="1059" y="1417" name="topright"/>
  <outline>
    <contour>
      <point x="-13" y="0" type="line"/>
      <point x="430" y="0" type="line"/>
      <point x="668" y="960" type="line" smooth="yes"/>
      <point x="713" y="1141"/>
      <point x="765" y="1208"/>
      <point x="910" y="1208" type="curve" smooth="yes"/>
      <point x="944" y="1208"/>
      <point x="975" y="1204"/>
      <point x="1004" y="1196" type="curve"/>
      <point x="1059" y="1416" type="line"/>
      <point x="999" y="1431"/>
      <point x="918" y="1443"/>
      <point x="829" y="1443" type="curve" smooth="yes"/>
      <point x="596" y="1443"/>
      <point x="326" y="1362"/>
      <point x="233" y="987" type="curve" smooth="yes"/>
    </contour>
    <contour>
      <point x="59" y="731" type="line"/>
      <point x="824" y="731" type="line"/>
      <point x="875" y="937" type="line"/>
      <point x="436" y="937" type="line"/>
      <point x="135" y="925" type="line"/>
    </contour>
  </outline>
  <guideline angle="76.0015" x="21.0796" y="0"/>
  <guideline angle="76.0015" x="706.625" y="0"/>
</glyph>
<glyph name="g" format="2">
  <advance width="1276"/>
  <unicode hex="0067"/>
  <anchor x="466" y="-419" name="bottom"/>
  <anchor x="750" y="946" name="top"/>
  <anchor x="1391" y="946" name="topright"/>
  <outline>
    <contour>
      <point x="672" y="92" type="curve"/>
      <point x="726" y="311" type="line"/>
      <point x="700" y="252"/>
      <point x="643" y="210"/>
      <point x="589" y="210" type="curve" smooth="yes"/>
      <point x="525" y="210"/>
      <point x="491" y="261"/>
      <point x="491" y="358" type="curve" smooth="yes"/>
      <point x="491" y="525"/>
      <point x="573" y="766"/>
      <point x="735" y="766" type="curve" smooth="yes"/>
      <point x="769" y="766"/>
      <point x="793" y="756"/>
      <point x="832" y="727" type="curve"/>
      <point x="895" y="890" type="line"/>
      <point x="821" y="948"/>
      <point x="748" y="971"/>
      <point x="644" y="971" type="curve" smooth="yes"/>
      <point x="300" y="971"/>
      <point x="43" y="708"/>
      <point x="43" y="363" type="curve" smooth="yes"/>
      <point x="43" y="125"/>
      <point x="177" y="-24"/>
      <point x="392" y="-24" type="curve" smooth="yes"/>
      <point x="499" y="-24"/>
      <point x="594" y="15"/>
    </contour>
    <contour>
      <point x="-4" y="-134" type="curve"/>
      <point x="-14" y="-139" type="line"/>
      <point x="16" y="-342" type="line"/>
      <point x="133" y="-412"/>
      <point x="281" y="-447"/>
      <point x="442" y="-447" type="curve" smooth="yes"/>
      <point x="786" y="-447"/>
      <point x="988" y="-295"/>
      <point x="1067" y="23" type="curve" smooth="yes"/>
      <point x="1296" y="946" type="line"/>
      <point x="884" y="946" type="line"/>
      <point x="806" y="750" type="line"/>
      <point x="614" y="-18" type="line" smooth="yes"/>
      <point x="577" y="-166"/>
      <point x="503" y="-221"/>
      <point x="343" y="-221" type="curve" smooth="yes"/>
      <point x="217" y="-221"/>
      <point x="66" y="-181"/>
    </contour>
  </outline>
  <guideline angle="98.57" x="-25.6621" y="0"/>
  <guideline angle="255.964" x="836" y="750"/>
</glyph>
<glyph name="h" format="2">
  <advance width="1258"/>
  <unicode hex="0068"/>
  <anchor x="523" y="0" name="bottom"/>
  <anchor x="858" y="1417" name="top"/>
  <outline>
    <contour>
      <point x="-27" y="0" type="line"/>
      <point x="320" y="1389" type="line"/>
      <point x="775" y="1442" type="line"/>
      <point x="416" y="0" type="line"/>
    </contour>
    <contour>
      <point x="612" y="0" type="line"/>
      <point x="749" y="547" type="line" smooth="yes"/>
      <point x="767" y="618"/>
      <point x="771" y="644"/>
      <point x="771" y="665" type="curve" smooth="yes"/>
      <point x="771" y="709"/>
      <point x="750" y="731"/>
      <point x="708" y="731" type="curve" smooth="yes"/>
      <point x="661" y="731"/>
      <point x="601" y="700"/>
      <point x="547" y="648" type="curve"/>
      <point x="593" y="831" type="line"/>
      <point x="696" y="923"/>
      <point x="815" y="971"/>
      <point x="939" y="971" type="curve" smooth="yes"/>
      <point x="1113" y="971"/>
      <point x="1215" y="877"/>
      <point x="1215" y="717" type="curve" smooth="yes"/>
      <point x="1215" y="680"/>
      <point x="1210" y="640"/>
      <point x="1200" y="598" type="curve" smooth="yes"/>
      <point x="1052" y="0" type="line"/>
    </contour>
  </outline>
  <guideline angle="76.0015" x="616.807" y="0"/>
  <guideline angle="76.0199" x="195" y="0"/>
  <guideline angle="0" x="0" y="1389"/>
  <guideline angle="90" x="541" y="0"/>
</glyph>
<glyph name="i" format="2">
  <advance width="632"/>
  <unicode hex="0069"/>
  <anchor x="195" y="0" name="bottom"/>
  <anchor x="540" y="1410" name="top.mkmk"/>
  <outline>
    <contour>
      <point x="-27" y="0" type="line"/>
      <point x="209" y="946" type="line"/>
      <point x="653" y="946" type="line"/>
      <point x="417" y="0" type="line"/>
    </contour>
    <contour>
      <point x="473" y="1034" type="curve" smooth="yes"/>
      <point x="338" y="1034"/>
      <point x="255" y="1099"/>
      <point x="255" y="1206" type="curve" smooth="yes"/>
      <point x="255" y="1334"/>
      <point x="370" y="1428"/>
      <point x="526" y="1428" type="curve" smooth="yes"/>
      <point x="661" y="1428"/>
      <point x="744" y="1362"/>
      <point x="744" y="1254" type="curve" smooth="yes"/>
      <point x="744" y="1127"/>
      <point x="629" y="1034"/>
    </contour>
  </outline>
  <guideline angle="76.0015" x="438.089" y="0"/>
</glyph>
<glyph name="j" format="2">
  <advance width="631"/>
  <unicode hex="006A"/>
  <anchor x="-16" y="-419" name="bottom"/>
  <anchor x="540" y="1410" name="top.mkmk"/>
  <outline>
    <contour>
      <point x="-355" y="-195" type="line"/>
      <point x="-325" y="-210"/>
      <point x="-281" y="-230"/>
      <point x="-218" y="-230" type="curve" smooth="yes"/>
      <point x="-123" y="-230"/>
      <point x="-73" y="-184"/>
      <point x="-35" y="-34" type="curve" smooth="yes"/>
      <point x="209" y="946" type="line"/>
      <point x="651" y="946" type="line"/>
      <point x="409" y="-26" type="line" smooth="yes"/>
      <point x="349" y="-265"/>
      <point x="202" y="-444"/>
      <point x="-87" y="-444" type="curve" smooth="yes"/>
      <point x="-208" y="-444"/>
      <point x="-298" y="-413"/>
      <point x="-332" y="-389" type="curve"/>
      <point x="-361" y="-201" type="line"/>
    </contour>
    <contour>
      <point x="473" y="1034" type="curve" smooth="yes"/>
      <point x="338" y="1034"/>
      <point x="255" y="1099"/>
      <point x="255" y="1206" type="curve" smooth="yes"/>
      <point x="255" y="1334"/>
      <point x="370" y="1428"/>
      <point x="526" y="1428" type="curve" smooth="yes"/>
      <point x="661" y="1428"/>
      <point x="744" y="1362"/>
      <point x="744" y="1254" type="curve" smooth="yes"/>
      <point x="744" y="1127"/>
      <point x="629" y="1034"/>
    </contour>
  </outline>
  <guideline angle="98.5308" x="-384.015" y="0"/>
</glyph>
<glyph name="k" format="2">
  <advance width="1286"/>
  <unicode hex="006B"/>
  <anchor x="554" y="0" name="bottom"/>
  <anchor x="853" y="1417" name="top"/>
  <outline>
    <contour>
      <point x="-27" y="0" type="line"/>
      <point x="320" y="1389" type="line"/>
      <point x="775" y="1443" type="line"/>
      <point x="416" y="0" type="line"/>
    </contour>
    <contour>
      <point x="716" y="0" type="line"/>
      <point x="516" y="520" type="line"/>
      <point x="938" y="946" type="line"/>
      <point x="1316" y="946" type="line"/>
      <point x="898" y="526" type="line"/>
      <point x="914" y="596" type="line"/>
      <point x="1172" y="0" type="line"/>
    </contour>
  </outline>
  <guideline angle="76.0015" x="873.428" y="0"/>
</glyph>
<glyph name="l" format="2">
  <advance width="631"/>
  <unicode hex="006C"/>
  <anchor x="195" y="0" name="bottom"/>
  <anchor x="551" y="1417" name="top"/>
  <anchor x="863" y="1417" name="topright"/>
  <outline>
    <contour>
      <point x="-27" y="0" type="line"/>
      <point x="416" y="0" type="line"/>
      <point x="775" y="1443" type="line"/>
      <point x="320" y="1389" type="line"/>
    </contour>
  </outline>
</glyph>
<glyph name="m" format="2">
  <advance width="1860"/>
  <unicode hex="006D"/>
  <anchor x="829" y="0" name="bottom"/>
  <anchor x="1069" y="946" name="top"/>
  <outline>
    <contour>
      <point x="-27" y="0" type="line"/>
      <point x="139" y="665" type="line" smooth="yes"/>
      <point x="163" y="762"/>
      <point x="180" y="881"/>
      <point x="180" y="946" type="curve"/>
      <point x="582" y="946" type="line"/>
      <point x="589" y="920"/>
      <point x="593" y="880"/>
      <point x="593" y="841" type="curve" smooth="yes"/>
      <point x="593" y="802"/>
      <point x="590" y="764"/>
      <point x="584" y="736" type="curve"/>
      <point x="587" y="705" type="line"/>
      <point x="412" y="0" type="line"/>
    </contour>
    <contour>
      <point x="598" y="0" type="line"/>
      <point x="734" y="547" type="line" smooth="yes"/>
      <point x="752" y="618"/>
      <point x="756" y="644"/>
      <point x="756" y="665" type="curve" smooth="yes"/>
      <point x="756" y="709"/>
      <point x="736" y="731"/>
      <point x="697" y="731" type="curve" smooth="yes"/>
      <point x="650" y="731"/>
      <point x="596" y="699"/>
      <point x="542" y="643" type="curve"/>
      <point x="556" y="798" type="line"/>
      <point x="666" y="912"/>
      <point x="790" y="971"/>
      <point x="926" y="971" type="curve" smooth="yes"/>
      <point x="1096" y="971"/>
      <point x="1197" y="877"/>
      <point x="1197" y="717" type="curve" smooth="yes"/>
      <point x="1197" y="682"/>
      <point x="1192" y="643"/>
      <point x="1181" y="598" type="curve" smooth="yes"/>
      <point x="1034" y="0" type="line"/>
    </contour>
    <contour>
      <point x="1218" y="0" type="line"/>
      <point x="1355" y="547" type="line" smooth="yes"/>
      <point x="1373" y="618"/>
      <point x="1377" y="644"/>
      <point x="1377" y="665" type="curve" smooth="yes"/>
      <point x="1377" y="708"/>
      <point x="1356" y="731"/>
      <point x="1317" y="731" type="curve" smooth="yes"/>
      <point x="1269" y="731"/>
      <point x="1209" y="695"/>
      <point x="1161" y="640" type="curve"/>
      <point x="1161" y="781" type="line"/>
      <point x="1273" y="905"/>
      <point x="1405" y="971"/>
      <point x="1546" y="971" type="curve" smooth="yes"/>
      <point x="1716" y="971"/>
      <point x="1817" y="877"/>
      <point x="1817" y="717" type="curve" smooth="yes"/>
      <point x="1817" y="680"/>
      <point x="1812" y="640"/>
      <point x="1802" y="598" type="curve" smooth="yes"/>
      <point x="1654" y="0" type="line"/>
    </contour>
  </outline>
  <guideline angle="0" x="0" y="628"/>
  <guideline angle="256.059" x="557" y="705"/>
  <guideline angle="256.189" x="1151" y="598"/>
</glyph>
<glyph name="n" format="2">
  <advance width="1258"/>
  <unicode hex="006E"/>
  <anchor x="523" y="0" name="bottom"/>
  <anchor x="741" y="946" name="top"/>
  <outline>
    <contour>
      <point x="-27" y="0" type="line"/>
      <point x="139" y="665" type="line" smooth="yes"/>
      <point x="163" y="762"/>
      <point x="180" y="881"/>
      <point x="180" y="946" type="curve"/>
      <point x="586" y="946" type="line"/>
      <point x="593" y="920"/>
      <point x="597" y="880"/>
      <point x="597" y="841" type="curve" smooth="yes"/>
      <point x="597" y="805"/>
      <point x="593" y="767"/>
      <point x="587" y="736" type="curve"/>
      <point x="591" y="705" type="line"/>
      <point x="416" y="0" type="line"/>
    </contour>
    <contour>
      <point x="612" y="0" type="line"/>
      <point x="749" y="547" type="line" smooth="yes"/>
      <point x="767" y="618"/>
      <point x="771" y="644"/>
      <point x="771" y="665" type="curve" smooth="yes"/>
      <point x="771" y="708"/>
      <point x="749" y="731"/>
      <point x="708" y="731" type="curve" smooth="yes"/>
      <point x="657" y="731"/>
      <point x="595" y="695"/>
      <point x="532" y="627" type="curve"/>
      <point x="568" y="804" type="line"/>
      <point x="683" y="916"/>
      <point x="806" y="971"/>
      <point x="939" y="971" type="curve" smooth="yes"/>
      <point x="1112" y="971"/>
      <point x="1215" y="877"/>
      <point x="1215" y="717" type="curve" smooth="yes"/>
      <point x="1215" y="680"/>
      <point x="1210" y="640"/>
      <point x="1200" y="598" type="curve" smooth="yes"/>
      <point x="1052" y="0" type="line"/>
    </contour>
  </outline>
</glyph>
<glyph name="o" format="2">
  <advance width="1267"/>
  <unicode hex="006F"/>
  <anchor x="544" y="0" name="bottom"/>
  <anchor x="727" y="946" name="top"/>
  <anchor x="1292" y="946" name="topright"/>
  <outline>
    <contour>
      <point x="562" y="-24" type="curve" smooth="yes"/>
      <point x="1000" y="-24"/>
      <point x="1212" y="266"/>
      <point x="1212" y="549" type="curve" smooth="yes"/>
      <point x="1212" y="814"/>
      <point x="1021" y="971"/>
      <point x="700" y="971" type="curve" smooth="yes"/>
      <point x="268" y="971"/>
      <point x="49" y="685"/>
      <point x="49" y="399" type="curve" smooth="yes"/>
      <point x="49" y="133"/>
      <point x="240" y="-24"/>
    </contour>
    <contour>
      <point x="570" y="170" type="curve" smooth="yes"/>
      <point x="518" y="170"/>
      <point x="491" y="220"/>
      <point x="491" y="319" type="curve" smooth="yes"/>
      <point x="491" y="494"/>
      <point x="566" y="777"/>
      <point x="690" y="777" type="curve" smooth="yes"/>
      <point x="742" y="777"/>
      <point x="769" y="727"/>
      <point x="769" y="628" type="curve" smooth="yes"/>
      <point x="769" y="438"/>
      <point x="690" y="170"/>
    </contour>
  </outline>
  <guideline angle="90" x="554" y="0"/>
</glyph>
<glyph name="p" format="2">
  <advance width="1279"/>
  <unicode hex="0070"/>
  <anchor x="392" y="-419" name="bottom"/>
  <anchor x="731" y="946" name="top"/>
  <outline>
    <contour>
      <point x="-131" y="-419" type="line"/>
      <point x="139" y="665" type="line" smooth="yes"/>
      <point x="163" y="762"/>
      <point x="180" y="881"/>
      <point x="180" y="946" type="curve"/>
      <point x="587" y="946" type="line"/>
      <point x="594" y="917"/>
      <point x="598" y="866"/>
      <point x="598" y="810" type="curve" smooth="yes"/>
      <point x="598" y="762"/>
      <point x="595" y="722"/>
      <point x="590" y="702" type="curve" smooth="yes"/>
      <point x="312" y="-419" type="line"/>
    </contour>
    <contour>
      <point x="395" y="36" type="curve"/>
      <point x="438" y="208" type="line"/>
      <point x="469" y="191"/>
      <point x="505" y="181"/>
      <point x="538" y="181" type="curve" smooth="yes"/>
      <point x="705" y="181"/>
      <point x="779" y="424"/>
      <point x="779" y="586" type="curve" smooth="yes"/>
      <point x="779" y="685"/>
      <point x="744" y="738"/>
      <point x="678" y="738" type="curve" smooth="yes"/>
      <point x="632" y="738"/>
      <point x="580" y="707"/>
      <point x="550" y="660" type="curve"/>
      <point x="561" y="829" type="line"/>
      <point x="657" y="927"/>
      <point x="755" y="971"/>
      <point x="875" y="971" type="curve" smooth="yes"/>
      <point x="1093" y="971"/>
      <point x="1227" y="823"/>
      <point x="1227" y="583" type="curve" smooth="yes"/>
      <point x="1227" y="260"/>
      <point x="993" y="-24"/>
      <point x="631" y="-24" type="curve" smooth="yes"/>
      <point x="538" y="-24"/>
      <point x="463" y="-5"/>
    </contour>
  </outline>
  <guideline angle="76.072" x="282" y="-419"/>
</glyph>
<glyph name="q" format="2">
  <advance width="1277"/>
  <unicode hex="0071"/>
  <anchor x="531" y="-419" name="bottom"/>
  <anchor x="750" y="946" name="top"/>
  <outline>
    <contour>
      <point x="673" y="99" type="line"/>
      <point x="594" y="18"/>
      <point x="501" y="-24"/>
      <point x="389" y="-24" type="curve" smooth="yes"/>
      <point x="177" y="-24"/>
      <point x="43" y="126"/>
      <point x="43" y="363" type="curve" smooth="yes"/>
      <point x="43" y="691"/>
      <point x="286" y="971"/>
      <point x="644" y="971" type="curve" smooth="yes"/>
      <point x="749" y="971"/>
      <point x="818" y="948"/>
      <point x="898" y="888" type="curve"/>
      <point x="830" y="728" type="line"/>
      <point x="793" y="756"/>
      <point x="769" y="766"/>
      <point x="735" y="766" type="curve" smooth="yes"/>
      <point x="556" y="766"/>
      <point x="491" y="487"/>
      <point x="491" y="358" type="curve" smooth="yes"/>
      <point x="491" y="262"/>
      <point x="525" y="210"/>
      <point x="587" y="210" type="curve" smooth="yes"/>
      <point x="640" y="210"/>
      <point x="696" y="252"/>
      <point x="728" y="318" type="curve"/>
    </contour>
    <contour>
      <point x="514" y="-419" type="line"/>
      <point x="806" y="750" type="line"/>
      <point x="884" y="946" type="line"/>
      <point x="1298" y="946" type="line"/>
      <point x="956" y="-419" type="line"/>
    </contour>
  </outline>
</glyph>
<glyph name="r" format="2">
  <advance width="893"/>
  <unicode hex="0072"/>
  <anchor x="243" y="0" name="bottom"/>
  <anchor x="583" y="938" name="top"/>
  <outline>
    <contour>
      <point x="-27" y="0" type="line"/>
      <point x="139" y="665" type="line" smooth="yes"/>
      <point x="164" y="764"/>
      <point x="180" y="879"/>
      <point x="180" y="946" type="curve"/>
      <point x="587" y="946" type="line"/>
      <point x="594" y="917"/>
      <point x="598" y="879"/>
      <point x="598" y="840" type="curve" smooth="yes"/>
      <point x="598" y="775"/>
      <point x="587" y="688"/>
      <point x="569" y="617" type="curve" smooth="yes"/>
      <point x="416" y="0" type="line"/>
    </contour>
    <contour>
      <point x="516" y="526" type="curve"/>
      <point x="556" y="690" type="line"/>
      <point x="644" y="871"/>
      <point x="772" y="967"/>
      <point x="928" y="967" type="curve" smooth="yes"/>
      <point x="953" y="967"/>
      <point x="976" y="965"/>
      <point x="993" y="960" type="curve"/>
      <point x="918" y="655" type="line"/>
      <point x="891" y="661"/>
      <point x="863" y="664"/>
      <point x="834" y="664" type="curve" smooth="yes"/>
      <point x="703" y="664"/>
      <point x="568" y="607"/>
    </contour>
  </outline>
  <guideline angle="76.0015" x="385" y="0"/>
</glyph>
<glyph name="s" format="2">
  <advance width="982"/>
  <unicode hex="0073"/>
  <anchor x="412" y="0" name="bottom"/>
  <anchor x="613" y="946" name="top"/>
  <outline>
    <contour>
      <point x="20" y="78" type="curve"/>
      <point x="-6" y="271" type="line"/>
      <point x="1" y="276" type="line"/>
      <point x="103" y="215"/>
      <point x="219" y="180"/>
      <point x="318" y="180" type="curve" smooth="yes"/>
      <point x="401" y="180"/>
      <point x="445" y="202"/>
      <point x="445" y="245" type="curve" smooth="yes"/>
      <point x="445" y="283"/>
      <point x="410" y="300"/>
      <point x="332" y="336" type="curve" smooth="yes"/>
      <point x="230" y="383"/>
      <point x="93" y="444"/>
      <point x="93" y="614" type="curve" smooth="yes"/>
      <point x="93" y="835"/>
      <point x="322" y="971"/>
      <point x="622" y="971" type="curve" smooth="yes"/>
      <point x="756" y="971"/>
      <point x="891" y="944"/>
      <point x="979" y="901" type="curve"/>
      <point x="928" y="708" type="line"/>
      <point x="852" y="743"/>
      <point x="740" y="764"/>
      <point x="656" y="764" type="curve" smooth="yes"/>
      <point x="567" y="764"/>
      <point x="514" y="740"/>
      <point x="514" y="699" type="curve" smooth="yes"/>
      <point x="514" y="664"/>
      <point x="550" y="650"/>
      <point x="630" y="619" type="curve" smooth="yes"/>
      <point x="745" y="573"/>
      <point x="888" y="515"/>
      <point x="888" y="324" type="curve" smooth="yes"/>
      <point x="888" y="75"/>
      <point x="643" y="-24"/>
      <point x="399" y="-24" type="curve" smooth="yes"/>
      <point x="252" y="-24"/>
      <point x="107" y="15"/>
    </contour>
  </outline>
  <guideline angle="98.1943" x="37.5767" y="0"/>
  <guideline angle="76.0015" x="-123.728" y="0"/>
</glyph>
<glyph name="t" format="2">
  <advance width="852"/>
  <unicode hex="0074"/>
  <anchor x="387" y="0" name="bottom"/>
  <anchor x="531" y="1241" name="top"/>
  <outline>
    <contour>
      <point x="694" y="49" type="line"/>
      <point x="603" y="2"/>
      <point x="486" y="-24"/>
      <point x="369" y="-24" type="curve" smooth="yes"/>
      <point x="168" y="-24"/>
      <point x="60" y="62"/>
      <point x="60" y="221" type="curve" smooth="yes"/>
      <point x="60" y="258"/>
      <point x="66" y="299"/>
      <point x="77" y="343" type="curve" smooth="yes"/>
      <point x="295" y="1215" type="line"/>
      <point x="747" y="1268" type="line"/>
      <point x="520" y="358" type="line" smooth="yes"/>
      <point x="510" y="318"/>
      <point x="505" y="292"/>
      <point x="505" y="273" type="curve" smooth="yes"/>
      <point x="505" y="217"/>
      <point x="536" y="189"/>
      <point x="598" y="189" type="curve" smooth="yes"/>
      <point x="650" y="189"/>
      <point x="726" y="210"/>
      <point x="774" y="237" type="curve"/>
      <point x="783" y="231" type="line"/>
    </contour>
    <contour>
      <point x="59" y="731" type="line"/>
      <point x="135" y="925" type="line"/>
      <point x="436" y="937" type="line"/>
      <point x="914" y="937" type="line"/>
      <point x="862" y="731" type="line"/>
    </contour>
  </outline>
  <guideline angle="76.0015" x="680.962" y="0"/>
  <guideline angle="63.9876" x="672.714" y="0"/>
</glyph>
<glyph name="u" format="2">
  <advance width="1256"/>
  <unicode hex="0075"/>
  <anchor x="555" y="0" name="bottom"/>
  <anchor x="732" y="946" name="top"/>
  <anchor x="1371" y="946" name="topright"/>
  <outline>
    <contour>
      <point x="668" y="135" type="curve"/>
      <point x="707" y="319" type="line"/>
      <point x="670" y="261"/>
      <point x="599" y="216"/>
      <point x="543" y="216" type="curve" smooth="yes"/>
      <point x="502" y="216"/>
      <point x="480" y="239"/>
      <point x="480" y="281" type="curve" smooth="yes"/>
      <point x="480" y="302"/>
      <point x="484" y="329"/>
      <point x="503" y="404" type="curve" smooth="yes"/>
      <point x="639" y="946" type="line"/>
      <point x="199" y="946" type="line"/>
      <point x="53" y="359" type="line" smooth="yes"/>
      <point x="42" y="313"/>
      <point x="36" y="270"/>
      <point x="36" y="230" type="curve" smooth="yes"/>
      <point x="36" y="71"/>
      <point x="140" y="-24"/>
      <point x="312" y="-24" type="curve" smooth="yes"/>
      <point x="440" y="-24"/>
      <point x="562" y="30"/>
    </contour>
    <contour>
      <point x="661" y="0" type="curve"/>
      <point x="1073" y="0" type="line"/>
      <point x="1071" y="16"/>
      <point x="1071" y="31"/>
      <point x="1071" y="46" type="curve" smooth="yes"/>
      <point x="1071" y="124"/>
      <point x="1089" y="195"/>
      <point x="1110" y="280" type="curve" smooth="yes"/>
      <point x="1276" y="946" type="line"/>
      <point x="833" y="946" type="line"/>
      <point x="661" y="256" type="line" smooth="yes"/>
      <point x="648" y="204"/>
      <point x="642" y="163"/>
      <point x="642" y="125" type="curve" smooth="yes"/>
      <point x="642" y="88"/>
      <point x="648" y="47"/>
    </contour>
  </outline>
</glyph>
<glyph name="v" format="2">
  <advance width="1176"/>
  <unicode hex="0076"/>
  <anchor x="473" y="0" name="bottom"/>
  <anchor x="714" y="946" name="top"/>
  <anchor x="1311" y="946" name="topright"/>
  <outline>
    <contour>
      <point x="247" y="0" type="line"/>
      <point x="703" y="0" type="line"/>
      <point x="1278" y="946" type="line"/>
      <point x="979" y="946" type="line"/>
      <point x="639" y="341" type="line"/>
      <point x="630" y="341" type="line"/>
      <point x="574" y="946" type="line"/>
      <point x="104" y="946" type="line"/>
    </contour>
  </outline>
</glyph>
<glyph name="w" format="2">
  <advance width="1603"/>
  <unicode hex="0077"/>
  <anchor x="693" y="0" name="bottom"/>
  <anchor x="930" y="946" name="top"/>
  <outline>
    <contour>
      <point x="156" y="0" type="line"/>
      <point x="126" y="946" type="line"/>
      <point x="586" y="946" type="line"/>
      <point x="577" y="584" type="line" smooth="yes"/>
      <point x="576" y="546"/>
      <point x="573" y="450"/>
      <point x="568" y="405" type="curve"/>
      <point x="577" y="405" type="line"/>
      <point x="598" y="451"/>
      <point x="635" y="528"/>
      <point x="664" y="588" type="curve" smooth="yes"/>
      <point x="839" y="946" type="line"/>
      <point x="1152" y="946" type="line"/>
      <point x="1150" y="574" type="line" smooth="yes"/>
      <point x="1150" y="524"/>
      <point x="1149" y="448"/>
      <point x="1145" y="405" type="curve"/>
      <point x="1154" y="405" type="line"/>
      <point x="1171" y="451"/>
      <point x="1208" y="529"/>
      <point x="1231" y="578" type="curve" smooth="yes"/>
      <point x="1400" y="946" type="line"/>
      <point x="1704" y="946" type="line"/>
      <point x="1204" y="0" type="line"/>
      <point x="793" y="0" type="line"/>
      <point x="794" y="241" type="line" smooth="yes"/>
      <point x="794" y="318"/>
      <point x="794" y="419"/>
      <point x="799" y="477" type="curve"/>
      <point x="790" y="477" type="line"/>
      <point x="765" y="420"/>
      <point x="720" y="328"/>
      <point x="685" y="251" type="curve" smooth="yes"/>
      <point x="570" y="0" type="line"/>
    </contour>
  </outline>
  <guideline angle="107.087" x="298.78" y="0"/>
</glyph>
<glyph name="x" format="2">
  <advance width="1180"/>
  <unicode hex="0078"/>
  <anchor x="448" y="0" name="bottom"/>
  <anchor x="710" y="946" name="top"/>
  <anchor x="1303" y="938" name="topright"/>
  <outline>
    <contour>
      <point x="565" y="0" type="line"/>
      <point x="1049" y="0" type="line"/>
      <point x="615" y="946" type="line"/>
      <point x="131" y="946" type="line"/>
    </contour>
    <contour>
      <point x="-113" y="0" type="line"/>
      <point x="227" y="0" type="line"/>
      <point x="485" y="256" type="line"/>
      <point x="388" y="468" type="line"/>
    </contour>
    <contour>
      <point x="692" y="704" type="line"/>
      <point x="791" y="491" type="line"/>
      <point x="1268" y="946" type="line"/>
      <point x="937" y="946" type="line"/>
    </contour>
  </outline>
  <guideline angle="76.0015" x="-111.814" y="0"/>
  <guideline angle="76.0015" x="780.861" y="0"/>
  <guideline angle="114.806" x="568.232" y="0"/>
</glyph>
<glyph name="y" format="2">
  <advance width="1156"/>
  <unicode hex="0079"/>
  <anchor x="376" y="-419" name="bottom"/>
  <anchor x="736" y="946" name="top"/>
  <outline>
    <contour>
      <point x="-110" y="-110" type="line"/>
      <point x="-41" y="-139"/>
      <point x="33" y="-153"/>
      <point x="123" y="-153" type="curve" smooth="yes"/>
      <point x="273" y="-153"/>
      <point x="348" y="-111"/>
      <point x="420" y="10" type="curve" smooth="yes"/>
      <point x="977" y="946" type="line"/>
      <point x="1270" y="946" type="line"/>
      <point x="620" y="-75" type="line" smooth="yes"/>
      <point x="513" y="-243"/>
      <point x="389" y="-446"/>
      <point x="120" y="-446" type="curve" smooth="yes"/>
      <point x="46" y="-446"/>
      <point x="-26" y="-430"/>
      <point x="-79" y="-402" type="curve"/>
      <point x="-118" y="-116" type="line"/>
    </contour>
    <contour>
      <point x="263" y="22" type="curve"/>
      <point x="104" y="946" type="line"/>
      <point x="564" y="946" type="line"/>
      <point x="638" y="393" type="line"/>
      <point x="685" y="393" type="line"/>
      <point x="442" y="-16" type="line"/>
      <point x="377" y="-16"/>
      <point x="307" y="-1"/>
    </contour>
  </outline>
  <guideline angle="98.0146" x="-128.31" y="0"/>
</glyph>
<glyph name="z" format="2">
  <advance width="1071"/>
  <unicode hex="007A"/>
  <anchor x="437" y="0" name="bottom"/>
  <anchor x="657" y="946" name="top"/>
  <outline>
    <contour>
      <point x="-59" y="0" type="line"/>
      <point x="-11" y="192" type="line"/>
      <point x="500" y="723" type="line"/>
      <point x="500" y="760" type="line"/>
      <point x="530" y="730" type="line"/>
      <point x="139" y="730" type="line"/>
      <point x="193" y="946" type="line"/>
      <point x="1107" y="946" type="line"/>
      <point x="1059" y="753" type="line"/>
      <point x="548" y="223" type="line"/>
      <point x="548" y="185" type="line"/>
      <point x="518" y="215" type="line"/>
      <point x="957" y="215" type="line"/>
      <point x="873" y="0" type="line"/>
    </contour>
  </outline>
  <guideline angle="76.0015" x="-59.5728" y="0"/>
  <guideline angle="68.4906" x="900.007" y="0"/>
  <guideline angle="46.1125" x="333.607" y="0"/>
</glyph>
<glyph name="braceleft" format="2">
  <advance width="879"/>
  <unicode hex="007B"/>
  <outline>
    <contour>
      <point x="26" y="394" type="curve"/>
      <point x="74" y="592" type="line"/>
      <point x="266" y="612"/>
      <point x="334" y="688"/>
      <point x="368" y="824" type="curve" smooth="yes"/>
      <point x="383" y="883"/>
      <point x="403" y="1002"/>
      <point x="420" y="1070" type="curve" smooth="yes"/>
      <point x="472" y="1274"/>
      <point x="592" y="1384"/>
      <point x="870" y="1384" type="curve" smooth="yes"/>
      <point x="927" y="1384"/>
      <point x="992" y="1379"/>
      <point x="1064" y="1369" type="curve"/>
      <point x="1015" y="1169" type="line"/>
      <point x="987" y="1172"/>
      <point x="954" y="1176"/>
      <point x="925" y="1176" type="curve" smooth="yes"/>
      <point x="770" y="1176"/>
      <point x="735" y="1077"/>
      <point x="711" y="986" type="curve" smooth="yes"/>
      <point x="688" y="901"/>
      <point x="671" y="803"/>
      <point x="662" y="762" type="curve" smooth="yes"/>
      <point x="624" y="593"/>
      <point x="535" y="522"/>
      <point x="371" y="491" type="curve"/>
      <point x="369" y="484" type="line"/>
      <point x="495" y="451"/>
      <point x="539" y="390"/>
      <point x="539" y="308" type="curve" smooth="yes"/>
      <point x="539" y="220"/>
      <point x="492" y="113"/>
      <point x="462" y="-1" type="curve" smooth="yes"/>
      <point x="455" y="-29"/>
      <point x="447" y="-59"/>
      <point x="447" y="-86" type="curve" smooth="yes"/>
      <point x="447" y="-146"/>
      <point x="478" y="-191"/>
      <point x="602" y="-191" type="curve" smooth="yes"/>
      <point x="627" y="-191"/>
      <point x="649" y="-189"/>
      <point x="676" y="-186" type="curve"/>
      <point x="626" y="-389" type="line"/>
      <point x="577" y="-395"/>
      <point x="535" y="-399"/>
      <point x="483" y="-399" type="curve" smooth="yes"/>
      <point x="204" y="-399"/>
      <point x="126" y="-295"/>
      <point x="126" y="-169" type="curve" smooth="yes"/>
      <point x="126" y="-80"/>
      <point x="167" y="23"/>
      <point x="194" y="113" type="curve" smooth="yes"/>
      <point x="210" y="162"/>
      <point x="222" y="209"/>
      <point x="222" y="247" type="curve" smooth="yes"/>
      <point x="222" y="335"/>
      <point x="163" y="378"/>
    </contour>
  </outline>
  <guideline angle="0" x="0" y="567"/>
  <guideline angle="0" x="0" y="-399"/>
  <guideline angle="0" x="0" y="1384"/>
  <guideline angle="76.0015" x="524.24" y="0"/>
  <guideline angle="76.0015" x="247.456" y="0"/>
  <guideline angle="76.0015" x="723.122" y="0"/>
</glyph>
<glyph name="bar" format="2">
  <advance width="631"/>
  <unicode hex="007C"/>
  <outline>
    <contour>
      <point x="-39" y="-456" type="line"/>
      <point x="202" y="-456" type="line"/>
      <point x="679" y="1460" type="line"/>
      <point x="438" y="1460" type="line"/>
    </contour>
  </outline>
</glyph>
<glyph name="braceright" format="2">
  <advance width="879"/>
  <unicode hex="007D"/>
  <outline>
    <contour>
      <point x="-182" y="-384" type="curve"/>
      <point x="-133" y="-184" type="line"/>
      <point x="-105" y="-187"/>
      <point x="-72" y="-191"/>
      <point x="-43" y="-191" type="curve" smooth="yes"/>
      <point x="112" y="-191"/>
      <point x="146" y="-92"/>
      <point x="170" y="-1" type="curve" smooth="yes"/>
      <point x="193" y="84"/>
      <point x="211" y="183"/>
      <point x="220" y="224" type="curve" smooth="yes"/>
      <point x="258" y="393"/>
      <point x="346" y="464"/>
      <point x="510" y="495" type="curve"/>
      <point x="512" y="502" type="line"/>
      <point x="386" y="535"/>
      <point x="343" y="596"/>
      <point x="343" y="678" type="curve" smooth="yes"/>
      <point x="343" y="766"/>
      <point x="390" y="872"/>
      <point x="420" y="986" type="curve" smooth="yes"/>
      <point x="427" y="1014"/>
      <point x="434" y="1044"/>
      <point x="434" y="1071" type="curve" smooth="yes"/>
      <point x="434" y="1131"/>
      <point x="404" y="1176"/>
      <point x="280" y="1176" type="curve" smooth="yes"/>
      <point x="255" y="1176"/>
      <point x="232" y="1174"/>
      <point x="205" y="1171" type="curve"/>
      <point x="256" y="1374" type="line"/>
      <point x="305" y="1380"/>
      <point x="347" y="1384"/>
      <point x="399" y="1384" type="curve" smooth="yes"/>
      <point x="678" y="1384"/>
      <point x="755" y="1280"/>
      <point x="755" y="1154" type="curve" smooth="yes"/>
      <point x="755" y="1065"/>
      <point x="714" y="963"/>
      <point x="687" y="873" type="curve" smooth="yes"/>
      <point x="671" y="824"/>
      <point x="660" y="777"/>
      <point x="660" y="739" type="curve" smooth="yes"/>
      <point x="660" y="651"/>
      <point x="719" y="608"/>
      <point x="856" y="592" type="curve"/>
      <point x="807" y="394" type="line"/>
      <point x="615" y="374"/>
      <point x="548" y="297"/>
      <point x="514" y="161" type="curve" smooth="yes"/>
      <point x="499" y="102"/>
      <point x="479" y="-16"/>
      <point x="462" y="-84" type="curve" smooth="yes"/>
      <point x="410" y="-288"/>
      <point x="290" y="-399"/>
      <point x="12" y="-399" type="curve" smooth="yes"/>
      <point x="-45" y="-399"/>
      <point x="-110" y="-394"/>
    </contour>
  </outline>
</glyph>
<glyph name="asciitilde" format="2">
  <advance width="1118"/>
  <unicode hex="007E"/>
  <outline>
    <contour>
      <point x="1092" y="602" type="curve"/>
      <point x="932" y="650" type="line"/>
      <point x="905" y="568"/>
      <point x="858" y="521"/>
      <point x="781" y="521" type="curve" smooth="yes"/>
      <point x="729" y="521"/>
      <point x="682" y="545"/>
      <point x="613" y="580" type="curve" smooth="yes"/>
      <point x="540" y="618"/>
      <point x="467" y="653"/>
      <point x="376" y="653" type="curve" smooth="yes"/>
      <point x="217" y="653"/>
      <point x="95" y="542"/>
      <point x="53" y="347" type="curve"/>
      <point x="223" y="296" type="line"/>
      <point x="251" y="381"/>
      <point x="300" y="424"/>
      <point x="374" y="424" type="curve" smooth="yes"/>
      <point x="427" y="424"/>
      <point x="476" y="401"/>
      <point x="543" y="367" type="curve" smooth="yes"/>
      <point x="617" y="329"/>
      <point x="688" y="294"/>
      <point x="779" y="294" type="curve" smooth="yes"/>
      <point x="938" y="294"/>
      <point x="1048" y="405"/>
    </contour>
  </outline>
</glyph>
<glyph name="exclamdown" format="2">
  <advance width="656"/>
  <unicode hex="00A1"/>
  <outline>
    <contour>
      <point x="-148" y="-430" type="line"/>
      <point x="341" y="-373" type="line"/>
      <point x="459" y="448" type="line"/>
      <point x="159" y="448" type="line"/>
    </contour>
    <contour>
      <point x="355" y="549" type="curve" smooth="yes"/>
      <point x="491" y="549"/>
      <point x="596" y="647"/>
      <point x="596" y="774" type="curve" smooth="yes"/>
      <point x="596" y="882"/>
      <point x="522" y="953"/>
      <point x="408" y="953" type="curve" smooth="yes"/>
      <point x="272" y="953"/>
      <point x="167" y="854"/>
      <point x="167" y="726" type="curve" smooth="yes"/>
      <point x="167" y="619"/>
      <point x="241" y="549"/>
    </contour>
  </outline>
  <guideline angle="76.0015" x="434.423" y="0"/>
</glyph>
<glyph name="sterling" format="2">
  <advance width="1117"/>
  <unicode hex="00A3"/>
  <outline>
    <contour>
      <point x="-39" y="0" type="line"/>
      <point x="19" y="236" type="line"/>
      <point x="161" y="313"/>
      <point x="253" y="417"/>
      <point x="253" y="575" type="curve" smooth="yes"/>
      <point x="253" y="616"/>
      <point x="246" y="665"/>
      <point x="239" y="714" type="curve" smooth="yes"/>
      <point x="232" y="764"/>
      <point x="225" y="816"/>
      <point x="225" y="867" type="curve" smooth="yes"/>
      <point x="225" y="1153"/>
      <point x="453" y="1338"/>
      <point x="807" y="1338" type="curve" smooth="yes"/>
      <point x="948" y="1338"/>
      <point x="1100" y="1303"/>
      <point x="1196" y="1249" type="curve"/>
      <point x="1130" y="1026" type="line"/>
      <point x="1060" y="1066"/>
      <point x="976" y="1088"/>
      <point x="896" y="1088" type="curve" smooth="yes"/>
      <point x="725" y="1088"/>
      <point x="623" y="991"/>
      <point x="623" y="828" type="curve" smooth="yes"/>
      <point x="623" y="790"/>
      <point x="629" y="755"/>
      <point x="635" y="719" type="curve" smooth="yes"/>
      <point x="640" y="687"/>
      <point x="646" y="653"/>
      <point x="646" y="611" type="curve" smooth="yes"/>
      <point x="646" y="441"/>
      <point x="554" y="353"/>
      <point x="416" y="260" type="curve"/>
      <point x="407" y="225" type="line"/>
      <point x="382" y="250" type="line"/>
      <point x="1007" y="250" type="line"/>
      <point x="909" y="0" type="line"/>
    </contour>
    <contour>
      <point x="70" y="513" type="line"/>
      <point x="121" y="719" type="line"/>
      <point x="995" y="719" type="line"/>
      <point x="944" y="513" type="line"/>
    </contour>
  </outline>
  <guideline angle="76.0015" x="-26.5786" y="0"/>
  <guideline angle="76.0015" x="1080" y="40"/>
</glyph>
<glyph name="currency" format="2">
  <advance width="1301"/>
  <unicode hex="00A4"/>
  <outline>
    <contour>
      <point x="697" y="182" type="curve" smooth="yes"/>
      <point x="977" y="182"/>
      <point x="1181" y="383"/>
      <point x="1181" y="658" type="curve" smooth="yes"/>
      <point x="1181" y="932"/>
      <point x="975" y="1135"/>
      <point x="697" y="1135" type="curve" smooth="yes"/>
      <point x="417" y="1135"/>
      <point x="214" y="934"/>
      <point x="214" y="658" type="curve" smooth="yes"/>
      <point x="214" y="383"/>
      <point x="418" y="182"/>
    </contour>
    <contour>
      <point x="697" y="444" type="curve" smooth="yes"/>
      <point x="573" y="444"/>
      <point x="486" y="532"/>
      <point x="486" y="658" type="curve" smooth="yes"/>
      <point x="486" y="785"/>
      <point x="573" y="873"/>
      <point x="697" y="873" type="curve" smooth="yes"/>
      <point x="822" y="873"/>
      <point x="910" y="784"/>
      <point x="910" y="658" type="curve" smooth="yes"/>
      <point x="910" y="533"/>
      <point x="822" y="444"/>
    </contour>
    <contour>
      <point x="306" y="70" type="line"/>
      <point x="488" y="251" type="line"/>
      <point x="292" y="448" type="line"/>
      <point x="110" y="266" type="line"/>
    </contour>
    <contour>
      <point x="1288" y="266" type="line"/>
      <point x="1105" y="448" type="line"/>
      <point x="909" y="251" type="line"/>
      <point x="1092" y="70" type="line"/>
    </contour>
    <contour>
      <point x="1092" y="1247" type="line"/>
      <point x="906" y="1063" type="line"/>
      <point x="1102" y="866" type="line"/>
      <point x="1288" y="1051" type="line"/>
    </contour>
    <contour>
      <point x="111" y="1051" type="line"/>
      <point x="296" y="866" type="line"/>
      <point x="492" y="1063" type="line"/>
      <point x="307" y="1247" type="line"/>
    </contour>
  </outline>
  <guideline angle="0" x="0" y="658"/>
</glyph>
<glyph name="yen" format="2">
  <advance width="1291"/>
  <unicode hex="00A5"/>
  <outline>
    <contour>
      <point x="300" y="0" type="line"/>
      <point x="752" y="0" type="line"/>
      <point x="904" y="614" type="line"/>
      <point x="1484" y="1314" type="line"/>
      <point x="1115" y="1314" type="line"/>
      <point x="812" y="918" type="line"/>
      <point x="804" y="918" type="line"/>
      <point x="686" y="1314" type="line"/>
      <point x="219" y="1314" type="line"/>
      <point x="454" y="620" type="line"/>
    </contour>
    <contour>
      <point x="128" y="160" type="line"/>
      <point x="1003" y="160" type="line"/>
      <point x="1053" y="362" type="line"/>
      <point x="179" y="362" type="line"/>
    </contour>
    <contour>
      <point x="201" y="452" type="line"/>
      <point x="1076" y="452" type="line"/>
      <point x="1126" y="653" type="line"/>
      <point x="252" y="653" type="line"/>
    </contour>
  </outline>
  <guideline angle="76.0933" x="752.45" y="0"/>
  <guideline angle="76.0933" x="300.613" y="0"/>
  <guideline angle="76.0015" x="75.1533" y="0"/>
</glyph>
<glyph name="brokenbar" format="2">
  <advance width="703"/>
  <unicode hex="00A6"/>
  <outline>
    <contour>
      <point x="201" y="563" type="line"/>
      <point x="542" y="563" type="line"/>
      <point x="399" y="-9" type="line"/>
      <point x="58" y="-9" type="line"/>
    </contour>
    <contour>
      <point x="388" y="1314" type="line"/>
      <point x="729" y="1314" type="line"/>
      <point x="587" y="742" type="line"/>
      <point x="246" y="742" type="line"/>
    </contour>
  </outline>
</glyph>
<glyph name="section" format="2">
  <advance width="1017"/>
  <unicode hex="00A7"/>
  <outline>
    <contour>
      <point x="654" y="254" type="curve"/>
      <point x="494" y="368" type="line"/>
      <point x="582" y="368"/>
      <point x="653" y="426"/>
      <point x="653" y="504" type="curve" smooth="yes"/>
      <point x="653" y="576"/>
      <point x="590" y="617"/>
      <point x="499" y="675" type="curve" smooth="yes"/>
      <point x="393" y="743"/>
      <point x="260" y="821"/>
      <point x="260" y="993" type="curve" smooth="yes"/>
      <point x="260" y="1201"/>
      <point x="449" y="1338"/>
      <point x="735" y="1338" type="curve" smooth="yes"/>
      <point x="842" y="1338"/>
      <point x="955" y="1319"/>
      <point x="1023" y="1290" type="curve"/>
      <point x="974" y="1103" type="line"/>
      <point x="919" y="1128"/>
      <point x="840" y="1144"/>
      <point x="768" y="1144" type="curve" smooth="yes"/>
      <point x="659" y="1144"/>
      <point x="596" y="1110"/>
      <point x="596" y="1051" type="curve" smooth="yes"/>
      <point x="596" y="994"/>
      <point x="650" y="958"/>
      <point x="742" y="899" type="curve" smooth="yes"/>
      <point x="851" y="829"/>
      <point x="982" y="750"/>
      <point x="982" y="587" type="curve" smooth="yes"/>
      <point x="982" y="419"/>
      <point x="845" y="314"/>
    </contour>
    <contour>
      <point x="14" y="-180" type="curve"/>
      <point x="-13" y="14" type="line"/>
      <point x="-5" y="18" type="line"/>
      <point x="82" y="-44"/>
      <point x="202" y="-83"/>
      <point x="304" y="-83" type="curve" smooth="yes"/>
      <point x="398" y="-83"/>
      <point x="447" y="-52"/>
      <point x="447" y="6" type="curve" smooth="yes"/>
      <point x="447" y="57"/>
      <point x="416" y="91"/>
      <point x="300" y="166" type="curve" smooth="yes"/>
      <point x="189" y="238"/>
      <point x="62" y="316"/>
      <point x="62" y="478" type="curve" smooth="yes"/>
      <point x="62" y="643"/>
      <point x="194" y="742"/>
      <point x="392" y="803" type="curve"/>
      <point x="549" y="693" type="line"/>
      <point x="459" y="693"/>
      <point x="388" y="635"/>
      <point x="388" y="554" type="curve" smooth="yes"/>
      <point x="388" y="488"/>
      <point x="436" y="454"/>
      <point x="542" y="388" type="curve" smooth="yes"/>
      <point x="653" y="319"/>
      <point x="783" y="239"/>
      <point x="783" y="69" type="curve" smooth="yes"/>
      <point x="783" y="-133"/>
      <point x="605" y="-278"/>
      <point x="357" y="-278" type="curve" smooth="yes"/>
      <point x="220" y="-278"/>
      <point x="79" y="-237"/>
    </contour>
  </outline>
  <guideline angle="0" x="0" y="-280"/>
  <guideline angle="97.8235" x="-13.7476" y="0"/>
  <guideline angle="76.0015" x="845.933" y="0"/>
</glyph>
<glyph name="copyright" format="2">
  <advance width="1610"/>
  <unicode hex="00A9"/>
  <outline>
    <contour>
      <point x="846" y="-46" type="curve" smooth="yes"/>
      <point x="1271" y="-46"/>
      <point x="1563" y="241"/>
      <point x="1563" y="657" type="curve" smooth="yes"/>
      <point x="1563" y="1073"/>
      <point x="1271" y="1360"/>
      <point x="847" y="1360" type="curve" smooth="yes"/>
      <point x="423" y="1360"/>
      <point x="131" y="1073"/>
      <point x="131" y="656" type="curve" smooth="yes"/>
      <point x="131" y="240"/>
      <point x="422" y="-46"/>
    </contour>
    <contour>
      <point x="846" y="110" type="curve" smooth="yes"/>
      <point x="525" y="110"/>
      <point x="312" y="328"/>
      <point x="312" y="656" type="curve" smooth="yes"/>
      <point x="312" y="985"/>
      <point x="526" y="1204"/>
      <point x="846" y="1204" type="curve" smooth="yes"/>
      <point x="1167" y="1204"/>
      <point x="1382" y="985"/>
      <point x="1382" y="656" type="curve" smooth="yes"/>
      <point x="1382" y="328"/>
      <point x="1168" y="110"/>
    </contour>
    <contour>
      <point x="1124" y="882" type="curve"/>
      <point x="1124" y="1044" type="line"/>
      <point x="1058" y="1073"/>
      <point x="976" y="1089"/>
      <point x="890" y="1089" type="curve" smooth="yes"/>
      <point x="603" y="1089"/>
      <point x="430" y="925"/>
      <point x="430" y="653" type="curve" smooth="yes"/>
      <point x="430" y="388"/>
      <point x="597" y="226"/>
      <point x="870" y="226" type="curve" smooth="yes"/>
      <point x="964" y="226"/>
      <point x="1056" y="248"/>
      <point x="1113" y="284" type="curve"/>
      <point x="1150" y="437" type="line"/>
      <point x="1146" y="441" type="line"/>
      <point x="1094" y="415"/>
      <point x="1030" y="401"/>
      <point x="971" y="401" type="curve" smooth="yes"/>
      <point x="821" y="401"/>
      <point x="743" y="490"/>
      <point x="743" y="661" type="curve" smooth="yes"/>
      <point x="743" y="829"/>
      <point x="818" y="917"/>
      <point x="962" y="917" type="curve" smooth="yes"/>
      <point x="1016" y="917"/>
      <point x="1075" y="904"/>
    </contour>
  </outline>
  <guideline angle="0" x="0" y="1089"/>
  <guideline angle="0" x="0" y="227"/>
  <guideline angle="73.8437" x="932.085" y="0"/>
  <guideline angle="63.5267" x="904.589" y="0"/>
</glyph>
<glyph name="ordfeminine" format="2">
  <advance width="944"/>
  <unicode hex="00AA"/>
  <outline>
    <contour>
      <point x="589" y="633" type="line"/>
      <point x="517" y="554"/>
      <point x="460" y="525"/>
      <point x="376" y="525" type="curve" smooth="yes"/>
      <point x="231" y="525"/>
      <point x="139" y="625"/>
      <point x="139" y="782" type="curve" smooth="yes"/>
      <point x="139" y="995"/>
      <point x="294" y="1179"/>
      <point x="534" y="1179" type="curve" smooth="yes"/>
      <point x="612" y="1179"/>
      <point x="664" y="1161"/>
      <point x="722" y="1112" type="curve"/>
      <point x="674" y="1003" type="line"/>
      <point x="649" y="1024"/>
      <point x="635" y="1036"/>
      <point x="612" y="1036" type="curve" smooth="yes"/>
      <point x="517" y="1036"/>
      <point x="477" y="860"/>
      <point x="477" y="776" type="curve" smooth="yes"/>
      <point x="477" y="724"/>
      <point x="496" y="691"/>
      <point x="527" y="691" type="curve" smooth="yes"/>
      <point x="560" y="691"/>
      <point x="579" y="712"/>
      <point x="614" y="785" type="curve"/>
    </contour>
    <contour>
      <point x="574" y="541" type="line"/>
      <point x="565" y="571"/>
      <point x="561" y="601"/>
      <point x="561" y="628" type="curve" smooth="yes"/>
      <point x="561" y="651"/>
      <point x="563" y="670"/>
      <point x="570" y="700" type="curve" smooth="yes"/>
      <point x="650" y="1027" type="line"/>
      <point x="707" y="1161" type="line"/>
      <point x="1022" y="1161" type="line"/>
      <point x="917" y="732" type="line" smooth="yes"/>
      <point x="902" y="673"/>
      <point x="888" y="627"/>
      <point x="888" y="570" type="curve" smooth="yes"/>
      <point x="888" y="562"/>
      <point x="888" y="551"/>
      <point x="889" y="541" type="curve"/>
    </contour>
  </outline>
  <guideline angle="76.0015" color="1,0,0,1" x="728.621" y="0"/>
  <guideline angle="90" x="96" y="0"/>
</glyph>
<glyph name="guillemotleft" format="2">
  <advance width="1108"/>
  <unicode hex="00AB"/>
  <outline>
    <contour>
      <point x="47" y="506" type="line"/>
      <point x="471" y="917" type="line"/>
      <point x="675" y="875" type="line"/>
      <point x="412" y="488" type="line"/>
      <point x="510" y="105" type="line"/>
      <point x="316" y="65" type="line"/>
    </contour>
    <contour>
      <point x="520" y="492" type="line"/>
      <point x="953" y="917" type="line"/>
      <point x="1157" y="875" type="line"/>
      <point x="885" y="475" type="line"/>
      <point x="965" y="105" type="line"/>
      <point x="771" y="65" type="line"/>
    </contour>
  </outline>
  <guideline angle="0" x="0" y="482"/>
</glyph>
<glyph name="registered" format="2">
  <advance width="1358"/>
  <unicode hex="00AE"/>
  <outline>
    <contour>
      <point x="786" y="343" type="curve" smooth="yes"/>
      <point x="438" y="343"/>
      <point x="192" y="584"/>
      <point x="192" y="925" type="curve" smooth="yes"/>
      <point x="192" y="1266"/>
      <point x="438" y="1508"/>
      <point x="786" y="1508" type="curve" smooth="yes"/>
      <point x="1134" y="1508"/>
      <point x="1382" y="1266"/>
      <point x="1382" y="925" type="curve" smooth="yes"/>
      <point x="1382" y="584"/>
      <point x="1135" y="343"/>
    </contour>
    <contour>
      <point x="786" y="499" type="curve" smooth="yes"/>
      <point x="1035" y="499"/>
      <point x="1208" y="674"/>
      <point x="1208" y="925" type="curve" smooth="yes"/>
      <point x="1208" y="1177"/>
      <point x="1035" y="1352"/>
      <point x="786" y="1352" type="curve" smooth="yes"/>
      <point x="539" y="1352"/>
      <point x="366" y="1177"/>
      <point x="366" y="925" type="curve" smooth="yes"/>
      <point x="366" y="674"/>
      <point x="538" y="499"/>
    </contour>
    <contour>
      <point x="445" y="620" type="line"/>
      <point x="598" y="1235" type="line"/>
      <point x="844" y="1235" type="line" smooth="yes"/>
      <point x="1015" y="1235"/>
      <point x="1108" y="1176"/>
      <point x="1108" y="1066" type="curve" smooth="yes"/>
      <point x="1108" y="928"/>
      <point x="971" y="842"/>
      <point x="755" y="842" type="curve" smooth="yes"/>
      <point x="696" y="842" type="line"/>
      <point x="726" y="962" type="line"/>
      <point x="779" y="962" type="line" smooth="yes"/>
      <point x="832" y="962"/>
      <point x="867" y="997"/>
      <point x="867" y="1051" type="curve" smooth="yes"/>
      <point x="867" y="1089"/>
      <point x="847" y="1115"/>
      <point x="817" y="1115" type="curve" smooth="yes"/>
      <point x="771" y="1115" type="line"/>
      <point x="801" y="1145" type="line"/>
      <point x="672" y="620" type="line"/>
    </contour>
    <contour>
      <point x="810" y="620" type="line"/>
      <point x="716" y="883" type="line"/>
      <point x="946" y="883" type="line"/>
      <point x="1059" y="620" type="line"/>
    </contour>
  </outline>
  <guideline angle="76.0015" x="1174.96" y="0"/>
  <guideline angle="0" x="0" y="961"/>
</glyph>
<glyph name="degree" format="2">
  <advance width="895"/>
  <unicode hex="00B0"/>
  <outline>
    <contour>
      <point x="573" y="630" type="curve" smooth="yes"/>
      <point x="788" y="630"/>
      <point x="951" y="783"/>
      <point x="951" y="984" type="curve" smooth="yes"/>
      <point x="951" y="1185"/>
      <point x="788" y="1338"/>
      <point x="573" y="1338" type="curve" smooth="yes"/>
      <point x="358" y="1338"/>
      <point x="195" y="1185"/>
      <point x="195" y="984" type="curve" smooth="yes"/>
      <point x="195" y="783"/>
      <point x="358" y="630"/>
    </contour>
    <contour>
      <point x="573" y="845" type="curve" smooth="yes"/>
      <point x="495" y="845"/>
      <point x="441" y="902"/>
      <point x="441" y="984" type="curve" smooth="yes"/>
      <point x="441" y="1066"/>
      <point x="495" y="1123"/>
      <point x="573" y="1123" type="curve" smooth="yes"/>
      <point x="651" y="1123"/>
      <point x="705" y="1066"/>
      <point x="705" y="984" type="curve" smooth="yes"/>
      <point x="705" y="902"/>
      <point x="651" y="845"/>
    </contour>
  </outline>
  <guideline angle="90" x="452" y="0"/>
</glyph>
<glyph name="plusminus" format="2">
  <advance width="1118"/>
  <unicode hex="00B1"/>
  <outline>
    <contour>
      <point x="104" y="-24" type="line"/>
      <point x="1069" y="-24" type="line"/>
      <point x="1069" y="225" type="line"/>
      <point x="104" y="225" type="line"/>
    </contour>
    <contour>
      <point x="104" y="510" type="line"/>
      <point x="1069" y="510" type="line"/>
      <point x="1069" y="759" type="line"/>
      <point x="104" y="759" type="line"/>
    </contour>
    <contour>
      <point x="456" y="290" type="line"/>
      <point x="718" y="290" type="line"/>
      <point x="718" y="980" type="line"/>
      <point x="456" y="980" type="line"/>
    </contour>
  </outline>
</glyph>
<glyph name="twosuperior" format="2">
  <advance width="730"/>
  <unicode hex="00B2"/>
  <outline>
    <contour>
      <point x="50" y="571" type="line"/>
      <point x="681" y="571" type="line"/>
      <point x="754" y="752" type="line"/>
      <point x="378" y="752" type="line"/>
      <point x="401" y="729" type="line"/>
      <point x="407" y="759" type="line"/>
      <point x="730" y="953"/>
      <point x="833" y="1064"/>
      <point x="833" y="1210" type="curve" smooth="yes"/>
      <point x="833" y="1350"/>
      <point x="718" y="1440"/>
      <point x="539" y="1440" type="curve" smooth="yes"/>
      <point x="428" y="1440"/>
      <point x="307" y="1399"/>
      <point x="261" y="1369" type="curve"/>
      <point x="218" y="1200" type="line"/>
      <point x="267" y="1228"/>
      <point x="330" y="1245"/>
      <point x="382" y="1245" type="curve" smooth="yes"/>
      <point x="448" y="1245"/>
      <point x="484" y="1213"/>
      <point x="484" y="1156" type="curve" smooth="yes"/>
      <point x="484" y="1041"/>
      <point x="351" y="942"/>
      <point x="97" y="748" type="curve"/>
    </contour>
  </outline>
  <guideline angle="76.1558" x="651" y="0"/>
  <guideline angle="76" x="-92" y="0"/>
</glyph>
<glyph name="threesuperior" format="2">
  <advance width="795"/>
  <unicode hex="00B3"/>
  <outline>
    <contour>
      <point x="99" y="785" type="line"/>
      <point x="107" y="791" type="line"/>
      <point x="150" y="761"/>
      <point x="237" y="739"/>
      <point x="314" y="739" type="curve" smooth="yes"/>
      <point x="422" y="739"/>
      <point x="495" y="780"/>
      <point x="495" y="840" type="curve" smooth="yes"/>
      <point x="495" y="894"/>
      <point x="439" y="921"/>
      <point x="327" y="921" type="curve" smooth="yes"/>
      <point x="313" y="921"/>
      <point x="284" y="921"/>
      <point x="262" y="919" type="curve"/>
      <point x="305" y="1084" type="line"/>
      <point x="319" y="1083"/>
      <point x="345" y="1083"/>
      <point x="361" y="1083" type="curve" smooth="yes"/>
      <point x="483" y="1083"/>
      <point x="567" y="1120"/>
      <point x="567" y="1174" type="curve" smooth="yes"/>
      <point x="567" y="1218"/>
      <point x="508" y="1247"/>
      <point x="420" y="1247" type="curve" smooth="yes"/>
      <point x="365" y="1247"/>
      <point x="300" y="1235"/>
      <point x="250" y="1216" type="curve"/>
      <point x="292" y="1381" type="line"/>
      <point x="385" y="1421"/>
      <point x="475" y="1440"/>
      <point x="573" y="1440" type="curve" smooth="yes"/>
      <point x="771" y="1440"/>
      <point x="895" y="1364"/>
      <point x="895" y="1242" type="curve" smooth="yes"/>
      <point x="895" y="1136"/>
      <point x="807" y="1054"/>
      <point x="654" y="1017" type="curve"/>
      <point x="652" y="1012" type="line"/>
      <point x="753" y="993"/>
      <point x="827" y="917"/>
      <point x="827" y="815" type="curve" smooth="yes"/>
      <point x="827" y="659"/>
      <point x="651" y="555"/>
      <point x="388" y="555" type="curve" smooth="yes"/>
      <point x="282" y="555"/>
      <point x="179" y="580"/>
      <point x="119" y="621" type="curve"/>
    </contour>
  </outline>
  <guideline angle="75.8222" x="534" y="0"/>
</glyph>
<glyph name="micro" format="2">
  <advance width="1274"/>
  <unicode hex="00B5"/>
  <outline>
    <contour>
      <point x="-132" y="-419" type="line"/>
      <point x="301" y="-419" type="line"/>
      <point x="501" y="386" type="line"/>
      <point x="509" y="397" type="line"/>
      <point x="651" y="946" type="line"/>
      <point x="209" y="946" type="line"/>
    </contour>
    <contour>
      <point x="403" y="397" type="line"/>
      <point x="386" y="326"/>
      <point x="380" y="283"/>
      <point x="380" y="232" type="curve" smooth="yes"/>
      <point x="380" y="97"/>
      <point x="421" y="-24"/>
      <point x="507" y="-24" type="curve" smooth="yes"/>
      <point x="573" y="-24"/>
      <point x="634" y="46"/>
      <point x="689" y="145" type="curve"/>
      <point x="710" y="286" type="line"/>
      <point x="689" y="260"/>
      <point x="624" y="212"/>
      <point x="555" y="212" type="curve" smooth="yes"/>
      <point x="510" y="212"/>
      <point x="485" y="233"/>
      <point x="485" y="272" type="curve" smooth="yes"/>
      <point x="485" y="294"/>
      <point x="492" y="330"/>
      <point x="509" y="397" type="curve"/>
    </contour>
    <contour>
      <point x="681" y="0" type="curve"/>
      <point x="1091" y="0" type="line"/>
      <point x="1089" y="16"/>
      <point x="1090" y="31"/>
      <point x="1090" y="49" type="curve" smooth="yes"/>
      <point x="1090" y="124"/>
      <point x="1108" y="195"/>
      <point x="1129" y="280" type="curve" smooth="yes"/>
      <point x="1295" y="946" type="line"/>
      <point x="854" y="946" type="line"/>
      <point x="681" y="256" type="line" smooth="yes"/>
      <point x="669" y="208"/>
      <point x="663" y="166"/>
      <point x="663" y="125" type="curve" smooth="yes"/>
      <point x="663" y="85"/>
      <point x="669" y="44"/>
    </contour>
  </outline>
  <guideline angle="255.925" x="884" y="946"/>
</glyph>
<glyph name="paragraph" format="2">
  <advance width="1335"/>
  <unicode hex="00B6"/>
  <outline>
    <contour>
      <point x="350" y="-306" type="line"/>
      <point x="548" y="490" type="line"/>
      <point x="280" y="513"/>
      <point x="146" y="629"/>
      <point x="146" y="837" type="curve" smooth="yes"/>
      <point x="146" y="1132"/>
      <point x="398" y="1314"/>
      <point x="807" y="1314" type="curve" smooth="yes"/>
      <point x="1419" y="1314" type="line"/>
      <point x="1036" y="-224" type="line"/>
      <point x="755" y="-258" type="line"/>
      <point x="1091" y="1088" type="line"/>
      <point x="970" y="1088" type="line"/>
      <point x="631" y="-272" type="line"/>
    </contour>
  </outline>
  <guideline angle="6.87103" x="0" y="-347.355"/>
</glyph>
<glyph name="onesuperior" format="2">
  <advance width="680"/>
  <unicode hex="00B9"/>
  <outline>
    <contour>
      <point x="261" y="571" type="line"/>
      <point x="420" y="1211" type="line"/>
      <point x="368" y="1191"/>
      <point x="294" y="1170"/>
      <point x="209" y="1152" type="curve"/>
      <point x="204" y="1155" type="line"/>
      <point x="241" y="1300" type="line"/>
      <point x="369" y="1350"/>
      <point x="443" y="1385"/>
      <point x="503" y="1425" type="curve"/>
      <point x="817" y="1425" type="line"/>
      <point x="605" y="571" type="line"/>
    </contour>
  </outline>
  <guideline angle="76" x="463" y="0"/>
</glyph>
<glyph name="ordmasculine" format="2">
  <advance width="922"/>
  <unicode hex="00BA"/>
  <outline>
    <contour>
      <point x="510" y="525" type="curve" smooth="yes"/>
      <point x="798" y="525"/>
      <point x="953" y="698"/>
      <point x="953" y="895" type="curve" smooth="yes"/>
      <point x="953" y="1073"/>
      <point x="817" y="1179"/>
      <point x="589" y="1179" type="curve" smooth="yes"/>
      <point x="298" y="1179"/>
      <point x="145" y="1001"/>
      <point x="145" y="808" type="curve" smooth="yes"/>
      <point x="145" y="630"/>
      <point x="280" y="525"/>
    </contour>
    <contour>
      <point x="510" y="658" type="curve" smooth="yes"/>
      <point x="483" y="658"/>
      <point x="471" y="683"/>
      <point x="471" y="738" type="curve" smooth="yes"/>
      <point x="471" y="842"/>
      <point x="512" y="1045"/>
      <point x="588" y="1045" type="curve" smooth="yes"/>
      <point x="614" y="1045"/>
      <point x="627" y="1017"/>
      <point x="627" y="962" type="curve" smooth="yes"/>
      <point x="627" y="845"/>
      <point x="583" y="658"/>
    </contour>
  </outline>
  <guideline angle="90" color="1,0,0,1" x="553" y="0"/>
</glyph>
<glyph name="guillemotright" format="2">
  <advance width="1108"/>
  <unicode hex="00BB"/>
  <outline>
    <contour>
      <point x="-46" y="106" type="line"/>
      <point x="158" y="65" type="line"/>
      <point x="591" y="489" type="line"/>
      <point x="340" y="917" type="line"/>
      <point x="146" y="876" type="line"/>
      <point x="225" y="507" type="line"/>
    </contour>
    <contour>
      <point x="436" y="106" type="line"/>
      <point x="640" y="65" type="line"/>
      <point x="1064" y="476" type="line"/>
      <point x="795" y="917" type="line"/>
      <point x="600" y="876" type="line"/>
      <point x="698" y="493" type="line"/>
    </contour>
  </outline>
  <guideline angle="0" x="0" y="481"/>
</glyph>
<glyph name="questiondown" format="2">
  <advance width="889"/>
  <unicode hex="00BF"/>
  <outline>
    <contour>
      <point x="639" y="-339" type="line"/>
      <point x="549" y="-381"/>
      <point x="433" y="-409"/>
      <point x="302" y="-409" type="curve" smooth="yes"/>
      <point x="100" y="-409"/>
      <point x="-101" y="-344"/>
      <point x="-101" y="-119" type="curve" smooth="yes"/>
      <point x="-101" y="63"/>
      <point x="32" y="134"/>
      <point x="160" y="204" type="curve" smooth="yes"/>
      <point x="287" y="273"/>
      <point x="378" y="322"/>
      <point x="394" y="448" type="curve"/>
      <point x="676" y="448" type="line"/>
      <point x="669" y="239"/>
      <point x="551" y="151"/>
      <point x="444" y="77" type="curve" smooth="yes"/>
      <point x="367" y="24"/>
      <point x="317" y="-9"/>
      <point x="317" y="-75" type="curve" smooth="yes"/>
      <point x="317" y="-147"/>
      <point x="377" y="-177"/>
      <point x="461" y="-177" type="curve" smooth="yes"/>
      <point x="542" y="-177"/>
      <point x="636" y="-150"/>
      <point x="694" y="-121" type="curve"/>
    </contour>
    <contour>
      <point x="573" y="549" type="curve" smooth="yes"/>
      <point x="459" y="549"/>
      <point x="385" y="619"/>
      <point x="385" y="727" type="curve" smooth="yes"/>
      <point x="385" y="854"/>
      <point x="490" y="953"/>
      <point x="626" y="953" type="curve" smooth="yes"/>
      <point x="740" y="953"/>
      <point x="814" y="882"/>
      <point x="814" y="774" type="curve" smooth="yes"/>
      <point x="814" y="647"/>
      <point x="709" y="549"/>
    </contour>
  </outline>
  <guideline angle="76.0015" x="-90.7339" y="0"/>
</glyph>
<glyph name="AE" format="2">
  <advance width="1819"/>
  <unicode hex="00C6"/>
  <anchor x="787" y="0" name="bottom"/>
  <anchor x="1385" y="1314" name="top"/>
  <outline>
    <contour>
      <point x="-160" y="0" type="line"/>
      <point x="848" y="1314" type="line"/>
      <point x="1969" y="1314" type="line"/>
      <point x="1873" y="1073" type="line"/>
      <point x="984" y="1073" type="line"/>
      <point x="211" y="0" type="line"/>
    </contour>
    <contour>
      <point x="474" y="406" type="line"/>
      <point x="644" y="643" type="line"/>
      <point x="943" y="643" type="line"/>
      <point x="884" y="406" type="line"/>
    </contour>
    <contour>
      <point x="752" y="0" type="line"/>
      <point x="1028" y="1103" type="line"/>
      <point x="1474" y="1103" type="line"/>
      <point x="1251" y="210" type="line"/>
      <point x="1220" y="241" type="line"/>
      <point x="1722" y="241" type="line"/>
      <point x="1662" y="0" type="line"/>
    </contour>
    <contour>
      <point x="1309" y="561" type="line"/>
      <point x="1368" y="798" type="line"/>
      <point x="1744" y="798" type="line"/>
      <point x="1685" y="561" type="line"/>
    </contour>
  </outline>
  <guideline angle="0" x="0" y="236"/>
</glyph>
<glyph name="Eth" format="2">
  <advance width="1492"/>
  <unicode hex="00D0"/>
  <anchor x="600" y="0" name="bottom"/>
  <anchor x="896" y="1314" name="top"/>
  <anchor x="1619" y="1314" name="topright"/>
  <outline>
    <contour>
      <point x="43" y="0" type="line"/>
      <point x="561" y="0" type="line" smooth="yes"/>
      <point x="1255" y="0"/>
      <point x="1481" y="481"/>
      <point x="1481" y="817" type="curve" smooth="yes"/>
      <point x="1481" y="1142"/>
      <point x="1270" y="1314"/>
      <point x="868" y="1314" type="curve" smooth="yes"/>
      <point x="371" y="1314" type="line"/>
    </contour>
    <contour>
      <point x="525" y="241" type="line"/>
      <point x="548" y="212" type="line"/>
      <point x="770" y="1103" type="line"/>
      <point x="733" y="1073" type="line"/>
      <point x="834" y="1073" type="line" smooth="yes"/>
      <point x="957" y="1073"/>
      <point x="1016" y="992"/>
      <point x="1016" y="823" type="curve" smooth="yes"/>
      <point x="1016" y="632"/>
      <point x="942" y="241"/>
      <point x="611" y="241" type="curve" smooth="yes"/>
    </contour>
    <contour>
      <point x="27" y="561" type="line"/>
      <point x="807" y="561" type="line"/>
      <point x="896" y="789" type="line"/>
      <point x="83" y="789" type="line"/>
    </contour>
  </outline>
  <guideline angle="90" x="640" y="0"/>
</glyph>
<glyph name="multiply" format="2">
  <advance width="1118"/>
  <unicode hex="00D7"/>
  <outline>
    <contour>
      <point x="89" y="774" type="line"/>
      <point x="285" y="971" type="line"/>
      <point x="1083" y="172" type="line"/>
      <point x="887" y="-24" type="line"/>
    </contour>
    <contour>
      <point x="89" y="172" type="line"/>
      <point x="887" y="971" type="line"/>
      <point x="1083" y="774" type="line"/>
      <point x="285" y="-24" type="line"/>
    </contour>
  </outline>
</glyph>
<glyph name="Oslash" format="2">
  <advance width="1505"/>
  <unicode hex="00D8"/>
  <anchor x="675" y="0" name="bottom"/>
  <anchor x="939" y="1314" name="top"/>
  <outline>
    <contour>
      <point x="702" y="-24" type="curve" smooth="yes"/>
      <point x="334" y="-24"/>
      <point x="114" y="189"/>
      <point x="114" y="546" type="curve" smooth="yes"/>
      <point x="114" y="993"/>
      <point x="453" y="1338"/>
      <point x="891" y="1338" type="curve" smooth="yes"/>
      <point x="1259" y="1338"/>
      <point x="1479" y="1125"/>
      <point x="1479" y="768" type="curve" smooth="yes"/>
      <point x="1479" y="321"/>
      <point x="1140" y="-24"/>
    </contour>
    <contour>
      <point x="693" y="209" type="curve" smooth="yes"/>
      <point x="940" y="209"/>
      <point x="1032" y="706"/>
      <point x="1032" y="890" type="curve" smooth="yes"/>
      <point x="1032" y="1032"/>
      <point x="987" y="1105"/>
      <point x="901" y="1105" type="curve" smooth="yes"/>
      <point x="665" y="1105"/>
      <point x="563" y="637"/>
      <point x="563" y="425" type="curve" smooth="yes"/>
      <point x="563" y="282"/>
      <point x="607" y="209"/>
    </contour>
    <contour>
      <point x="231" y="-51" type="line"/>
      <point x="68" y="100" type="line"/>
      <point x="1358" y="1365" type="line"/>
      <point x="1521" y="1213" type="line"/>
    </contour>
  </outline>
  <guideline angle="0" x="0" y="1365"/>
  <guideline angle="0" x="0" y="-51"/>
</glyph>
<glyph name="Thorn" format="2">
  <advance width="1302"/>
  <unicode hex="00DE"/>
  <anchor x="478" y="0" name="bottom"/>
  <anchor x="795" y="1314" name="top"/>
  <outline>
    <contour>
      <point x="-17" y="0" type="line"/>
      <point x="311" y="1314" type="line"/>
      <point x="763" y="1314" type="line"/>
      <point x="434" y="0" type="line"/>
    </contour>
    <contour>
      <point x="466" y="248" type="line"/>
      <point x="528" y="494" type="line"/>
      <point x="614" y="494" type="line" smooth="yes"/>
      <point x="754" y="494"/>
      <point x="842" y="580"/>
      <point x="842" y="716" type="curve" smooth="yes"/>
      <point x="842" y="816"/>
      <point x="794" y="866"/>
      <point x="699" y="866" type="curve" smooth="yes"/>
      <point x="621" y="866" type="line"/>
      <point x="681" y="1105" type="line"/>
      <point x="796" y="1105" type="line" smooth="yes"/>
      <point x="1130" y="1105"/>
      <point x="1305" y="980"/>
      <point x="1305" y="742" type="curve" smooth="yes"/>
      <point x="1305" y="444"/>
      <point x="1040" y="248"/>
      <point x="636" y="248" type="curve" smooth="yes"/>
    </contour>
  </outline>
  <guideline angle="90" x="469" y="0"/>
</glyph>
<glyph name="germandbls" format="2">
  <advance width="1338"/>
  <unicode hex="00DF"/>
  <anchor x="556" y="0" name="bottom"/>
  <anchor x="850" y="1417" name="top"/>
  <outline>
    <contour>
      <point x="-27" y="0" type="line"/>
      <point x="222" y="993" type="line" smooth="yes"/>
      <point x="295" y="1283"/>
      <point x="532" y="1443"/>
      <point x="890" y="1443" type="curve" smooth="yes"/>
      <point x="1188" y="1443"/>
      <point x="1356" y="1331"/>
      <point x="1356" y="1148" type="curve" smooth="yes"/>
      <point x="1356" y="1055"/>
      <point x="1313" y="986"/>
      <point x="1204" y="900" type="curve" smooth="yes"/>
      <point x="1135" y="845"/>
      <point x="1078" y="801"/>
      <point x="1078" y="726" type="curve" smooth="yes"/>
      <point x="1078" y="680"/>
      <point x="1092" y="656"/>
      <point x="1163" y="569" type="curve" smooth="yes"/>
      <point x="1238" y="477"/>
      <point x="1267" y="412"/>
      <point x="1267" y="323" type="curve" smooth="yes"/>
      <point x="1267" y="117"/>
      <point x="1080" y="-24"/>
      <point x="807" y="-24" type="curve" smooth="yes"/>
      <point x="708" y="-24"/>
      <point x="608" y="-2"/>
      <point x="543" y="35" type="curve"/>
      <point x="516" y="228" type="line"/>
      <point x="523" y="233" type="line"/>
      <point x="598" y="197"/>
      <point x="663" y="180"/>
      <point x="722" y="180" type="curve" smooth="yes"/>
      <point x="799" y="180"/>
      <point x="838" y="207"/>
      <point x="838" y="261" type="curve" smooth="yes"/>
      <point x="838" y="300"/>
      <point x="821" y="331"/>
      <point x="763" y="400" type="curve" smooth="yes"/>
      <point x="682" y="496"/>
      <point x="656" y="553"/>
      <point x="656" y="628" type="curve" smooth="yes"/>
      <point x="656" y="716"/>
      <point x="690" y="780"/>
      <point x="801" y="890" type="curve" smooth="yes"/>
      <point x="914" y="1002"/>
      <point x="937" y="1044"/>
      <point x="937" y="1116" type="curve" smooth="yes"/>
      <point x="937" y="1190"/>
      <point x="904" y="1228"/>
      <point x="841" y="1228" type="curve" smooth="yes"/>
      <point x="752" y="1228"/>
      <point x="704" y="1158"/>
      <point x="654" y="959" type="curve" smooth="yes"/>
      <point x="415" y="0" type="line"/>
    </contour>
  </outline>
  <guideline angle="76.0015" x="1196.04" y="0"/>
</glyph>
<glyph name="ae" format="2">
  <advance width="1802"/>
  <unicode hex="00E6"/>
  <anchor x="816" y="0" name="bottom"/>
  <anchor x="992" y="946" name="top"/>
  <outline>
    <contour>
      <point x="685" y="121" type="line"/>
      <point x="601" y="25"/>
      <point x="502" y="-24"/>
      <point x="385" y="-24" type="curve" smooth="yes"/>
      <point x="176" y="-24"/>
      <point x="43" y="126"/>
      <point x="43" y="362" type="curve" smooth="yes"/>
      <point x="43" y="676"/>
      <point x="275" y="971"/>
      <point x="635" y="971" type="curve" smooth="yes"/>
      <point x="735" y="971"/>
      <point x="798" y="950"/>
      <point x="885" y="886" type="curve"/>
      <point x="821" y="723" type="line"/>
      <point x="787" y="756"/>
      <point x="767" y="766"/>
      <point x="733" y="766" type="curve" smooth="yes"/>
      <point x="566" y="766"/>
      <point x="491" y="505"/>
      <point x="491" y="357" type="curve" smooth="yes"/>
      <point x="491" y="262"/>
      <point x="524" y="210"/>
      <point x="584" y="210" type="curve" smooth="yes"/>
      <point x="633" y="210"/>
      <point x="682" y="248"/>
      <point x="716" y="311" type="curve"/>
    </contour>
    <contour>
      <point x="661" y="0" type="line"/>
      <point x="656" y="30"/>
      <point x="653" y="60"/>
      <point x="653" y="88" type="curve" smooth="yes"/>
      <point x="653" y="128"/>
      <point x="657" y="170"/>
      <point x="666" y="210" type="curve"/>
      <point x="660" y="210" type="line"/>
      <point x="795" y="750" type="line"/>
      <point x="874" y="946" type="line"/>
      <point x="1108" y="946" type="line"/>
      <point x="1066" y="776" type="line"/>
      <point x="992" y="776" type="line"/>
      <point x="868" y="280" type="line"/>
      <point x="949" y="280" type="line"/>
      <point x="929" y="201"/>
      <point x="897" y="93"/>
      <point x="897" y="23" type="curve" smooth="yes"/>
      <point x="897" y="18"/>
      <point x="897" y="9"/>
      <point x="898" y="0" type="curve"/>
    </contour>
    <contour>
      <point x="1139" y="510" type="line"/>
      <point x="1343" y="534"/>
      <point x="1438" y="595"/>
      <point x="1438" y="701" type="curve" smooth="yes"/>
      <point x="1438" y="754"/>
      <point x="1414" y="786"/>
      <point x="1374" y="786" type="curve" smooth="yes"/>
      <point x="1273" y="786"/>
      <point x="1169" y="608"/>
      <point x="1169" y="433" type="curve" smooth="yes"/>
      <point x="1169" y="274"/>
      <point x="1250" y="192"/>
      <point x="1408" y="192" type="curve" smooth="yes"/>
      <point x="1505" y="192"/>
      <point x="1621" y="221"/>
      <point x="1689" y="263" type="curve"/>
      <point x="1697" y="257" type="line"/>
      <point x="1604" y="65" type="line"/>
      <point x="1518" y="14"/>
      <point x="1354" y="-24"/>
      <point x="1220" y="-24" type="curve" smooth="yes"/>
      <point x="979" y="-24"/>
      <point x="830" y="92"/>
      <point x="796" y="307" type="curve"/>
      <point x="885" y="707" type="line"/>
      <point x="995" y="875"/>
      <point x="1191" y="971"/>
      <point x="1421" y="971" type="curve" smooth="yes"/>
      <point x="1649" y="971"/>
      <point x="1784" y="879"/>
      <point x="1784" y="723" type="curve" smooth="yes"/>
      <point x="1784" y="529"/>
      <point x="1582" y="416"/>
      <point x="1139" y="366" type="curve"/>
    </contour>
  </outline>
  <guideline angle="0" x="0" y="842"/>
</glyph>
<glyph name="eth" format="2">
  <advance width="1278"/>
  <unicode hex="00F0"/>
  <anchor x="550" y="0" name="bottom"/>
  <anchor x="786" y="1417" name="top"/>
  <anchor x="1420" y="1417" name="topright"/>
  <outline>
    <contour>
      <point x="822" y="705" type="curve"/>
      <point x="822" y="884" type="line"/>
      <point x="755" y="913"/>
      <point x="684" y="928"/>
      <point x="608" y="928" type="curve" smooth="yes"/>
      <point x="309" y="928"/>
      <point x="49" y="725"/>
      <point x="49" y="405" type="curve" smooth="yes"/>
      <point x="49" y="132"/>
      <point x="236" y="-24"/>
      <point x="564" y="-24" type="curve" smooth="yes"/>
      <point x="994" y="-24"/>
      <point x="1236" y="264"/>
      <point x="1236" y="658" type="curve" smooth="yes"/>
      <point x="1236" y="973"/>
      <point x="1067" y="1246"/>
      <point x="752" y="1443" type="curve"/>
      <point x="423" y="1403" type="line"/>
      <point x="423" y="1389" type="line"/>
      <point x="603" y="1264"/>
      <point x="742" y="1081"/>
      <point x="792" y="904" type="curve"/>
      <point x="779" y="895" type="line"/>
      <point x="788" y="825"/>
      <point x="792" y="764"/>
      <point x="792" y="710" type="curve" smooth="yes"/>
      <point x="792" y="435"/>
      <point x="682" y="169"/>
      <point x="569" y="169" type="curve" smooth="yes"/>
      <point x="516" y="169"/>
      <point x="492" y="220"/>
      <point x="492" y="329" type="curve" smooth="yes"/>
      <point x="492" y="555"/>
      <point x="583" y="737"/>
      <point x="721" y="737" type="curve" smooth="yes"/>
      <point x="751" y="737"/>
      <point x="785" y="726"/>
    </contour>
    <contour>
      <point x="364" y="987" type="line"/>
      <point x="1239" y="1272" type="line"/>
      <point x="1182" y="1441" type="line"/>
      <point x="307" y="1155" type="line"/>
    </contour>
  </outline>
  <guideline angle="0" x="0" y="486"/>
  <guideline angle="76.304" x="-74.2368" y="0"/>
  <guideline angle="103.696" x="482.998" y="0"/>
  <guideline angle="103.696" x="1370.17" y="0"/>
</glyph>
<glyph name="divide" format="2">
  <advance width="1118"/>
  <unicode hex="00F7"/>
  <outline>
    <contour>
      <point x="568" y="-24" type="curve" smooth="yes"/>
      <point x="473" y="-24"/>
      <point x="415" y="34"/>
      <point x="415" y="125" type="curve" smooth="yes"/>
      <point x="415" y="222"/>
      <point x="480" y="276"/>
      <point x="574" y="276" type="curve" smooth="yes"/>
      <point x="667" y="276"/>
      <point x="730" y="222"/>
      <point x="730" y="129" type="curve" smooth="yes"/>
      <point x="730" y="34"/>
      <point x="665" y="-24"/>
    </contour>
    <contour>
      <point x="91" y="348" type="line"/>
      <point x="91" y="598" type="line"/>
      <point x="1055" y="598" type="line"/>
      <point x="1055" y="348" type="line"/>
    </contour>
    <contour>
      <point x="568" y="671" type="curve" smooth="yes"/>
      <point x="473" y="671"/>
      <point x="415" y="728"/>
      <point x="415" y="819" type="curve" smooth="yes"/>
      <point x="415" y="916"/>
      <point x="480" y="971"/>
      <point x="574" y="971" type="curve" smooth="yes"/>
      <point x="667" y="971"/>
      <point x="730" y="917"/>
      <point x="730" y="824" type="curve" smooth="yes"/>
      <point x="730" y="729"/>
      <point x="665" y="671"/>
    </contour>
  </outline>
</glyph>
<glyph name="oslash" format="2">
  <advance width="1267"/>
  <unicode hex="00F8"/>
  <anchor x="544" y="0" name="bottom"/>
  <anchor x="727" y="946" name="top"/>
  <outline>
    <contour>
      <point x="570" y="-24" type="curve" smooth="yes"/>
      <point x="251" y="-24"/>
      <point x="49" y="142"/>
      <point x="49" y="404" type="curve" smooth="yes"/>
      <point x="49" y="704"/>
      <point x="295" y="971"/>
      <point x="692" y="971" type="curve" smooth="yes"/>
      <point x="1011" y="971"/>
      <point x="1212" y="806"/>
      <point x="1212" y="543" type="curve" smooth="yes"/>
      <point x="1212" y="274"/>
      <point x="998" y="-24"/>
    </contour>
    <contour>
      <point x="566" y="167" type="curve" smooth="yes"/>
      <point x="701" y="167"/>
      <point x="774" y="442"/>
      <point x="774" y="631" type="curve" smooth="yes"/>
      <point x="774" y="736"/>
      <point x="750" y="781"/>
      <point x="694" y="781" type="curve" smooth="yes"/>
      <point x="563" y="781"/>
      <point x="486" y="519"/>
      <point x="486" y="316" type="curve" smooth="yes"/>
      <point x="486" y="212"/>
      <point x="510" y="167"/>
    </contour>
    <contour>
      <point x="11" y="116" type="line"/>
      <point x="1115" y="990" type="line"/>
      <point x="1250" y="831" type="line"/>
      <point x="136" y="-42" type="line"/>
    </contour>
  </outline>
  <guideline angle="330.721" x="0" y="1660.71"/>
  <guideline angle="330.721" x="0" y="16.4971"/>
  <guideline angle="0" x="0" y="990"/>
  <guideline angle="0" x="0" y="-42"/>
</glyph>
<glyph name="thorn" format="2">
  <advance width="1279"/>
  <unicode hex="00FE"/>
  <anchor x="392" y="-419" name="bottom"/>
  <anchor x="802" y="1417" name="top"/>
  <anchor x="1304" y="946" name="topright"/>
  <outline>
    <contour>
      <point x="-131" y="-419" type="line"/>
      <point x="312" y="-419" type="line"/>
      <point x="775" y="1443" type="line"/>
      <point x="321" y="1389" type="line"/>
    </contour>
    <contour>
      <point x="395" y="36" type="line"/>
      <point x="463" y="-5"/>
      <point x="538" y="-24"/>
      <point x="631" y="-24" type="curve" smooth="yes"/>
      <point x="987" y="-24"/>
      <point x="1227" y="254"/>
      <point x="1227" y="583" type="curve" smooth="yes"/>
      <point x="1227" y="823"/>
      <point x="1092" y="971"/>
      <point x="874" y="971" type="curve" smooth="yes"/>
      <point x="771" y="971"/>
      <point x="679" y="937"/>
      <point x="603" y="870" type="curve"/>
      <point x="553" y="669" type="line"/>
      <point x="590" y="713"/>
      <point x="635" y="738"/>
      <point x="678" y="738" type="curve" smooth="yes"/>
      <point x="744" y="738"/>
      <point x="779" y="685"/>
      <point x="779" y="586" type="curve" smooth="yes"/>
      <point x="779" y="411"/>
      <point x="699" y="181"/>
      <point x="538" y="181" type="curve" smooth="yes"/>
      <point x="505" y="181"/>
      <point x="469" y="191"/>
      <point x="438" y="208" type="curve"/>
    </contour>
  </outline>
</glyph>
<glyph name="aogonek" format="2">
  <advance width="1276"/>
  <unicode hex="0105"/>
  <anchor x="445" y="-437" name="bottom.mkmk"/>
  <anchor x="750" y="946" name="top"/>
  <anchor x="1391" y="946" name="topright"/>
  <outline>
    <contour>
      <point x="452" y="-447" type="curve" smooth="yes"/>
      <point x="536" y="-447"/>
      <point x="618" y="-420"/>
      <point x="658" y="-397" type="curve"/>
      <point x="734" y="-241" type="line"/>
      <point x="726" y="-234" type="line"/>
      <point x="698" y="-248"/>
      <point x="650" y="-261"/>
      <point x="604" y="-261" type="curve" smooth="yes"/>
      <point x="541" y="-261"/>
      <point x="506" y="-236"/>
      <point x="506" y="-189" type="curve" smooth="yes"/>
      <point x="506" y="-95"/>
      <point x="604" y="15"/>
      <point x="706" y="127" type="curve"/>
      <point x="723" y="307" type="line"/>
      <point x="685" y="244"/>
      <point x="637" y="210"/>
      <point x="587" y="210" type="curve" smooth="yes"/>
      <point x="525" y="210"/>
      <point x="491" y="262"/>
      <point x="491" y="358" type="curve" smooth="yes"/>
      <point x="491" y="522"/>
      <point x="571" y="766"/>
      <point x="735" y="766" type="curve" smooth="yes"/>
      <point x="769" y="766"/>
      <point x="793" y="756"/>
      <point x="832" y="727" type="curve"/>
      <point x="899" y="887" type="line"/>
      <point x="823" y="947"/>
      <point x="750" y="971"/>
      <point x="644" y="971" type="curve" smooth="yes"/>
      <point x="278" y="971"/>
      <point x="43" y="685"/>
      <point x="43" y="363" type="curve" smooth="yes"/>
      <point x="43" y="126"/>
      <point x="177" y="-24"/>
      <point x="389" y="-24" type="curve" smooth="yes"/>
      <point x="404" y="-24"/>
      <point x="474" y="-17"/>
      <point x="525" y="0" type="curve"/>
      <point x="396" y="30" type="line"/>
      <point x="396" y="-27" type="line"/>
      <point x="337" y="-80"/>
      <point x="252" y="-175"/>
      <point x="252" y="-287" type="curve" smooth="yes"/>
      <point x="252" y="-374"/>
      <point x="315" y="-447"/>
    </contour>
    <contour>
      <point x="1093" y="0" type="line"/>
      <point x="1091" y="16"/>
      <point x="1092" y="31"/>
      <point x="1092" y="49" type="curve" smooth="yes"/>
      <point x="1092" y="108"/>
      <point x="1101" y="163"/>
      <point x="1130" y="280" type="curve" smooth="yes"/>
      <point x="1296" y="946" type="line"/>
      <point x="883" y="946" type="line"/>
      <point x="804" y="750" type="line"/>
      <point x="679" y="251" type="line" smooth="yes"/>
      <point x="668" y="209"/>
      <point x="663" y="167"/>
      <point x="663" y="124" type="curve" smooth="yes"/>
      <point x="663" y="80"/>
      <point x="669" y="39"/>
      <point x="680" y="0" type="curve"/>
    </contour>
  </outline>
</glyph>
<glyph name="dcroat" format="2">
  <advance width="1318"/>
  <unicode hex="0111"/>
  <anchor x="567" y="0" name="bottom"/>
  <anchor x="886" y="1417" name="top"/>
  <anchor x="1550" y="1417" name="topright"/>
  <outline>
    <contour>
      <point x="389" y="-24" type="curve" smooth="yes"/>
      <point x="510" y="-24"/>
      <point x="609" y="25"/>
      <point x="694" y="121" type="curve"/>
      <point x="725" y="310" type="line"/>
      <point x="686" y="245"/>
      <point x="637" y="210"/>
      <point x="587" y="210" type="curve" smooth="yes"/>
      <point x="525" y="210"/>
      <point x="491" y="264"/>
      <point x="491" y="356" type="curve" smooth="yes"/>
      <point x="491" y="514"/>
      <point x="562" y="726"/>
      <point x="733" y="726" type="curve" smooth="yes"/>
      <point x="767" y="726"/>
      <point x="797" y="716"/>
      <point x="831" y="701" type="curve"/>
      <point x="875" y="868" type="line"/>
      <point x="805" y="912"/>
      <point x="734" y="931"/>
      <point x="640" y="931" type="curve" smooth="yes"/>
      <point x="267" y="931"/>
      <point x="43" y="686"/>
      <point x="43" y="360" type="curve" smooth="yes"/>
      <point x="43" y="128"/>
      <point x="177" y="-24"/>
    </contour>
    <contour>
      <point x="1095" y="0" type="line"/>
      <point x="1093" y="16"/>
      <point x="1093" y="31"/>
      <point x="1093" y="46" type="curve" smooth="yes"/>
      <point x="1093" y="124"/>
      <point x="1111" y="195"/>
      <point x="1132" y="280" type="curve" smooth="yes"/>
      <point x="1421" y="1443" type="line"/>
      <point x="965" y="1389" type="line"/>
      <point x="678" y="240" type="line" smooth="yes"/>
      <point x="669" y="202"/>
      <point x="664" y="156"/>
      <point x="664" y="112" type="curve" smooth="yes"/>
      <point x="664" y="63"/>
      <point x="670" y="24"/>
      <point x="681" y="0" type="curve"/>
    </contour>
    <contour>
      <point x="1463" y="1026" type="line"/>
      <point x="1544" y="1233" type="line"/>
      <point x="622" y="1233" type="line"/>
      <point x="570" y="1026" type="line"/>
    </contour>
  </outline>
  <guideline angle="0" x="0" y="931"/>
  <guideline angle="248.63" x="1489" y="1140"/>
  <guideline angle="0" x="0" y="1233"/>
</glyph>
<glyph name="Hbar" format="2">
  <advance width="1526"/>
  <unicode hex="0126"/>
  <anchor x="657" y="0" name="bottom"/>
  <anchor x="957" y="1314" name="top"/>
  <anchor x="1713" y="1314" name="topright"/>
  <outline>
    <contour>
      <point x="42" y="0" type="line"/>
      <point x="494" y="0" type="line"/>
      <point x="823" y="1314" type="line"/>
      <point x="371" y="1314" type="line"/>
    </contour>
    <contour>
      <point x="789" y="0" type="line"/>
      <point x="1241" y="0" type="line"/>
      <point x="1569" y="1314" type="line"/>
      <point x="1117" y="1314" type="line"/>
    </contour>
    <contour>
      <point x="590" y="524" type="line"/>
      <point x="944" y="524" type="line"/>
      <point x="1003" y="756" type="line"/>
      <point x="649" y="756" type="line"/>
    </contour>
    <contour>
      <point x="114" y="914" type="line"/>
      <point x="1615" y="914" type="line"/>
      <point x="1696" y="1121" type="line"/>
      <point x="166" y="1121" type="line"/>
    </contour>
  </outline>
  <guideline angle="0" x="0" y="1121"/>
  <guideline angle="68.49" x="1717" y="1194"/>
</glyph>
<glyph name="hbar" format="2">
  <advance width="1303"/>
  <unicode hex="0127"/>
  <anchor x="903" y="1417" name="top"/>
  <anchor x="568" y="0" name="bottom"/>
  <anchor x="1368" y="946" name="topright"/>
  <outline>
    <contour>
      <point x="461" y="0" type="line"/>
      <point x="820" y="1442" type="line"/>
      <point x="365" y="1389" type="line"/>
      <point x="18" y="0" type="line"/>
    </contour>
    <contour>
      <point x="1097" y="0" type="line"/>
      <point x="1236" y="558" type="line" smooth="yes"/>
      <point x="1246" y="600"/>
      <point x="1251" y="640"/>
      <point x="1251" y="677" type="curve" smooth="yes"/>
      <point x="1251" y="837"/>
      <point x="1149" y="931"/>
      <point x="975" y="931" type="curve" smooth="yes"/>
      <point x="851" y="931"/>
      <point x="732" y="883"/>
      <point x="629" y="791" type="curve"/>
      <point x="583" y="608" type="line"/>
      <point x="637" y="660"/>
      <point x="697" y="691"/>
      <point x="744" y="691" type="curve" smooth="yes"/>
      <point x="786" y="691"/>
      <point x="807" y="669"/>
      <point x="807" y="625" type="curve" smooth="yes"/>
      <point x="807" y="604"/>
      <point x="803" y="578"/>
      <point x="785" y="507" type="curve" smooth="yes"/>
      <point x="657" y="0" type="line"/>
    </contour>
    <contour>
      <point x="1010" y="1026" type="line"/>
      <point x="1091" y="1233" type="line"/>
      <point x="169" y="1233" type="line"/>
      <point x="117" y="1026" type="line"/>
    </contour>
  </outline>
  <guideline angle="0" x="0" y="940"/>
</glyph>
<glyph name="kgreenlandic" format="2">
  <advance width="1286"/>
  <unicode hex="0138"/>
  <anchor x="554" y="0" name="bottom"/>
  <anchor x="760" y="946" name="top"/>
  <outline>
    <contour>
      <point x="716" y="0" type="line"/>
      <point x="516" y="520" type="line"/>
      <point x="938" y="946" type="line"/>
      <point x="1316" y="946" type="line"/>
      <point x="898" y="526" type="line"/>
      <point x="914" y="596" type="line"/>
      <point x="1172" y="0" type="line"/>
    </contour>
    <contour>
      <point x="-27" y="0" type="line"/>
      <point x="209" y="946" type="line"/>
      <point x="653" y="946" type="line"/>
      <point x="417" y="0" type="line"/>
    </contour>
  </outline>
  <guideline angle="76.0015" x="873.428" y="0"/>
  <guideline angle="76.0015" x="554" y="0"/>
  <guideline angle="90" x="796" y="0"/>
</glyph>
<glyph name="Lslash" format="2">
  <advance width="1098"/>
  <unicode hex="0141"/>
  <anchor x="507" y="0" name="bottom"/>
  <anchor x="598" y="1314" name="top"/>
  <anchor x="1245" y="1314" name="topright"/>
  <outline>
    <contour>
      <point x="930" y="0" type="line"/>
      <point x="1024" y="241" type="line"/>
      <point x="516" y="241" type="line"/>
      <point x="547" y="210" type="line"/>
      <point x="823" y="1314" type="line"/>
      <point x="371" y="1314" type="line"/>
      <point x="43" y="0" type="line"/>
    </contour>
    <contour>
      <point x="914" y="712" type="line"/>
      <point x="1016" y="972" type="line"/>
      <point x="49" y="651" type="line"/>
      <point x="-12" y="405" type="line"/>
    </contour>
  </outline>
</glyph>
<glyph name="lslash" format="2">
  <advance width="849"/>
  <unicode hex="0142"/>
  <anchor x="304" y="0" name="bottom"/>
  <anchor x="660" y="1417" name="top"/>
  <outline>
    <contour>
      <point x="525" y="0" type="line"/>
      <point x="884" y="1443" type="line"/>
      <point x="429" y="1389" type="line"/>
      <point x="82" y="0" type="line"/>
    </contour>
    <contour>
      <point x="848" y="704" type="line"/>
      <point x="947" y="942" type="line"/>
      <point x="79" y="671" type="line"/>
      <point x="23" y="447" type="line"/>
    </contour>
  </outline>
  <guideline angle="76" x="172" y="1020"/>
  <guideline angle="247" x="896" y="840"/>
</glyph>
<glyph name="Eng" format="2">
  <advance width="1396"/>
  <unicode hex="014A"/>
  <anchor x="907" y="1314" name="top"/>
  <anchor x="561" y="-419" name="bottom"/>
  <outline>
    <contour>
      <point x="322" y="0" type="line"/>
      <point x="488" y="670" type="line"/>
      <point x="498" y="670" type="line"/>
      <point x="521" y="607"/>
      <point x="562" y="530"/>
      <point x="596" y="461" type="curve" smooth="yes"/>
      <point x="828" y="-16" type="line"/>
      <point x="811" y="-82" type="line" smooth="yes"/>
      <point x="782" y="-195"/>
      <point x="697" y="-227"/>
      <point x="628" y="-227" type="curve" smooth="yes"/>
      <point x="555" y="-227"/>
      <point x="511" y="-207"/>
      <point x="481" y="-192" type="curve"/>
      <point x="475" y="-198" type="line"/>
      <point x="504" y="-389" type="line"/>
      <point x="538" y="-413"/>
      <point x="618" y="-444"/>
      <point x="729" y="-444" type="curve" smooth="yes"/>
      <point x="956" y="-444"/>
      <point x="1091" y="-322"/>
      <point x="1157" y="-56" type="curve" smooth="yes"/>
      <point x="1499" y="1314" type="line"/>
      <point x="1160" y="1314" type="line"/>
      <point x="1006" y="696" type="line"/>
      <point x="996" y="696" type="line"/>
      <point x="972" y="761"/>
      <point x="941" y="808"/>
      <point x="911" y="872" type="curve" smooth="yes"/>
      <point x="706" y="1314" type="line"/>
      <point x="311" y="1314" type="line"/>
      <point x="-17" y="0" type="line"/>
    </contour>
  </outline>
</glyph>
<glyph name="eng" format="2">
  <advance width="1258"/>
  <unicode hex="014B"/>
  <anchor x="419" y="-419" name="bottom"/>
  <anchor x="741" y="946" name="top"/>
  <outline>
    <contour>
      <point x="546" y="-444" type="curve" smooth="yes"/>
      <point x="829" y="-444"/>
      <point x="988" y="-260"/>
      <point x="1048" y="-16" type="curve" smooth="yes"/>
      <point x="1200" y="598" type="line" smooth="yes"/>
      <point x="1210" y="640"/>
      <point x="1215" y="680"/>
      <point x="1215" y="717" type="curve" smooth="yes"/>
      <point x="1215" y="877"/>
      <point x="1112" y="971"/>
      <point x="939" y="971" type="curve" smooth="yes"/>
      <point x="806" y="971"/>
      <point x="683" y="916"/>
      <point x="568" y="804" type="curve"/>
      <point x="532" y="627" type="line"/>
      <point x="595" y="695"/>
      <point x="657" y="731"/>
      <point x="708" y="731" type="curve" smooth="yes"/>
      <point x="749" y="731"/>
      <point x="771" y="708"/>
      <point x="771" y="665" type="curve" smooth="yes"/>
      <point x="771" y="644"/>
      <point x="767" y="618"/>
      <point x="749" y="547" type="curve" smooth="yes"/>
      <point x="607" y="-24" type="line" smooth="yes"/>
      <point x="567" y="-184"/>
      <point x="512" y="-230"/>
      <point x="408" y="-230" type="curve" smooth="yes"/>
      <point x="359" y="-230"/>
      <point x="316" y="-211"/>
      <point x="294" y="-199" type="curve"/>
      <point x="288" y="-205" type="line"/>
      <point x="317" y="-394" type="line"/>
      <point x="343" y="-412"/>
      <point x="435" y="-444"/>
    </contour>
    <contour>
      <point x="416" y="0" type="line"/>
      <point x="591" y="705" type="line"/>
      <point x="587" y="736" type="line"/>
      <point x="593" y="767"/>
      <point x="597" y="805"/>
      <point x="597" y="841" type="curve" smooth="yes"/>
      <point x="597" y="880"/>
      <point x="593" y="920"/>
      <point x="586" y="946" type="curve"/>
      <point x="180" y="946" type="line"/>
      <point x="180" y="881"/>
      <point x="163" y="762"/>
      <point x="139" y="665" type="curve" smooth="yes"/>
      <point x="-27" y="0" type="line"/>
    </contour>
  </outline>
</glyph>
<glyph name="OE" format="2">
  <advance width="1850"/>
  <unicode hex="0152"/>
  <anchor x="883" y="0" name="bottom"/>
  <anchor x="1147" y="1314" name="top"/>
  <outline>
    <contour>
      <point x="829" y="3" type="line"/>
      <point x="766" y="-16"/>
      <point x="707" y="-25"/>
      <point x="647" y="-25" type="curve" smooth="yes"/>
      <point x="327" y="-25"/>
      <point x="113" y="203"/>
      <point x="113" y="544" type="curve" smooth="yes"/>
      <point x="113" y="945"/>
      <point x="404" y="1338"/>
      <point x="912" y="1338" type="curve" smooth="yes"/>
      <point x="1005" y="1338"/>
      <point x="1090" y="1325"/>
      <point x="1154" y="1301" type="curve"/>
      <point x="1092" y="1059" type="line"/>
      <point x="1044" y="1088"/>
      <point x="991" y="1104"/>
      <point x="937" y="1104" type="curve" smooth="yes"/>
      <point x="664" y="1104"/>
      <point x="563" y="689"/>
      <point x="563" y="448" type="curve" smooth="yes"/>
      <point x="563" y="289"/>
      <point x="617" y="210"/>
      <point x="725" y="210" type="curve" smooth="yes"/>
      <point x="776" y="210"/>
      <point x="833" y="228"/>
      <point x="893" y="262" type="curve"/>
    </contour>
    <contour>
      <point x="782" y="0" type="line"/>
      <point x="1110" y="1314" type="line"/>
      <point x="1999" y="1314" type="line"/>
      <point x="1904" y="1073" type="line"/>
      <point x="1459" y="1073" type="line"/>
      <point x="1505" y="1104" type="line"/>
      <point x="1283" y="212" type="line"/>
      <point x="1254" y="241" type="line"/>
      <point x="1752" y="241" type="line"/>
      <point x="1692" y="0" type="line"/>
    </contour>
    <contour>
      <point x="1337" y="561" type="line"/>
      <point x="1396" y="798" type="line"/>
      <point x="1774" y="798" type="line"/>
      <point x="1716" y="561" type="line"/>
    </contour>
  </outline>
</glyph>
<glyph name="oe" format="2">
  <advance width="1816"/>
  <unicode hex="0153"/>
  <anchor x="826" y="0" name="bottom"/>
  <anchor x="999" y="946" name="top"/>
  <outline>
    <contour>
      <point x="858" y="136" type="curve"/>
      <point x="990" y="136" type="line"/>
      <point x="869" y="27"/>
      <point x="731" y="-24"/>
      <point x="554" y="-24" type="curve" smooth="yes"/>
      <point x="239" y="-24"/>
      <point x="49" y="135"/>
      <point x="49" y="399" type="curve" smooth="yes"/>
      <point x="49" y="718"/>
      <point x="301" y="971"/>
      <point x="691" y="971" type="curve" smooth="yes"/>
      <point x="874" y="971"/>
      <point x="1004" y="918"/>
      <point x="1092" y="806" type="curve"/>
      <point x="961" y="806" type="line"/>
      <point x="1093" y="916"/>
      <point x="1251" y="971"/>
      <point x="1433" y="971" type="curve" smooth="yes"/>
      <point x="1665" y="971"/>
      <point x="1797" y="882"/>
      <point x="1797" y="725" type="curve" smooth="yes"/>
      <point x="1797" y="529"/>
      <point x="1596" y="415"/>
      <point x="1152" y="366" type="curve"/>
      <point x="1152" y="509" type="line"/>
      <point x="1357" y="535"/>
      <point x="1451" y="595"/>
      <point x="1451" y="701" type="curve" smooth="yes"/>
      <point x="1451" y="754"/>
      <point x="1427" y="786"/>
      <point x="1387" y="786" type="curve" smooth="yes"/>
      <point x="1285" y="786"/>
      <point x="1182" y="608"/>
      <point x="1182" y="434" type="curve" smooth="yes"/>
      <point x="1182" y="275"/>
      <point x="1264" y="192"/>
      <point x="1421" y="192" type="curve" smooth="yes"/>
      <point x="1518" y="192"/>
      <point x="1634" y="221"/>
      <point x="1702" y="263" type="curve"/>
      <point x="1710" y="257" type="line"/>
      <point x="1617" y="65" type="line"/>
      <point x="1526" y="11"/>
      <point x="1376" y="-24"/>
      <point x="1237" y="-24" type="curve" smooth="yes"/>
      <point x="1064" y="-24"/>
      <point x="944" y="26"/>
    </contour>
    <contour>
      <point x="567" y="169" type="curve" smooth="yes"/>
      <point x="687" y="169"/>
      <point x="760" y="445"/>
      <point x="760" y="631" type="curve" smooth="yes"/>
      <point x="760" y="730"/>
      <point x="735" y="779"/>
      <point x="684" y="779" type="curve" smooth="yes"/>
      <point x="570" y="779"/>
      <point x="491" y="514"/>
      <point x="491" y="317" type="curve" smooth="yes"/>
      <point x="491" y="218"/>
      <point x="516" y="169"/>
    </contour>
  </outline>
  <guideline angle="90" x="1152" y="0"/>
</glyph>
<glyph name="tbar" format="2">
  <advance width="897"/>
  <unicode hex="0167"/>
  <anchor x="417" y="0" name="bottom"/>
  <anchor x="561" y="1241" name="top"/>
  <anchor x="1012" y="946" name="topright"/>
  <outline>
    <contour>
      <point x="399" y="-24" type="curve" smooth="yes"/>
      <point x="516" y="-24"/>
      <point x="633" y="2"/>
      <point x="724" y="49" type="curve"/>
      <point x="813" y="231" type="line"/>
      <point x="804" y="237" type="line"/>
      <point x="756" y="210"/>
      <point x="680" y="189"/>
      <point x="628" y="189" type="curve" smooth="yes"/>
      <point x="566" y="189"/>
      <point x="535" y="217"/>
      <point x="535" y="273" type="curve" smooth="yes"/>
      <point x="535" y="292"/>
      <point x="540" y="318"/>
      <point x="550" y="358" type="curve" smooth="yes"/>
      <point x="777" y="1268" type="line"/>
      <point x="325" y="1215" type="line"/>
      <point x="107" y="343" type="line" smooth="yes"/>
      <point x="96" y="299"/>
      <point x="90" y="258"/>
      <point x="90" y="221" type="curve" smooth="yes"/>
      <point x="90" y="62"/>
      <point x="198" y="-24"/>
    </contour>
    <contour>
      <point x="787" y="398" type="line"/>
      <point x="868" y="604" type="line"/>
      <point x="57" y="604" type="line"/>
      <point x="6" y="398" type="line"/>
    </contour>
    <contour>
      <point x="863" y="731" type="line"/>
      <point x="944" y="937" type="line"/>
      <point x="466" y="937" type="line"/>
      <point x="137" y="924" type="line"/>
      <point x="89" y="731" type="line"/>
    </contour>
  </outline>
  <guideline angle="0" x="0" y="731"/>
  <guideline angle="76" x="112" y="823"/>
  <guideline angle="0" x="0" y="398"/>
  <guideline angle="76" x="916" y="823"/>
</glyph>
<glyph name="uogonek" format="2">
  <advance width="1256"/>
  <unicode hex="0173"/>
  <anchor x="454" y="-437" name="bottom.mkmk"/>
  <anchor x="732" y="946" name="top"/>
  <outline>
    <contour>
      <point x="425" y="-447" type="curve" smooth="yes"/>
      <point x="510" y="-447"/>
      <point x="590" y="-421"/>
      <point x="634" y="-397" type="curve"/>
      <point x="710" y="-241" type="line"/>
      <point x="702" y="-234" type="line"/>
      <point x="674" y="-248"/>
      <point x="626" y="-261"/>
      <point x="580" y="-261" type="curve" smooth="yes"/>
      <point x="514" y="-261"/>
      <point x="480" y="-234"/>
      <point x="480" y="-177" type="curve" smooth="yes"/>
      <point x="480" y="-113"/>
      <point x="526" y="-22"/>
      <point x="668" y="125" type="curve"/>
      <point x="707" y="319" type="line"/>
      <point x="670" y="261"/>
      <point x="599" y="216"/>
      <point x="543" y="216" type="curve" smooth="yes"/>
      <point x="502" y="216"/>
      <point x="480" y="239"/>
      <point x="480" y="281" type="curve" smooth="yes"/>
      <point x="480" y="302"/>
      <point x="484" y="329"/>
      <point x="503" y="404" type="curve" smooth="yes"/>
      <point x="639" y="946" type="line"/>
      <point x="199" y="946" type="line"/>
      <point x="53" y="359" type="line" smooth="yes"/>
      <point x="42" y="313"/>
      <point x="36" y="270"/>
      <point x="36" y="230" type="curve" smooth="yes"/>
      <point x="36" y="71"/>
      <point x="140" y="-24"/>
      <point x="312" y="-24" type="curve" smooth="yes"/>
      <point x="351" y="-24"/>
      <point x="399" y="-18"/>
      <point x="447" y="-3" type="curve"/>
      <point x="380" y="24" type="line"/>
      <point x="380" y="-25" type="line"/>
      <point x="311" y="-82"/>
      <point x="228" y="-179"/>
      <point x="228" y="-293" type="curve" smooth="yes"/>
      <point x="228" y="-374"/>
      <point x="291" y="-447"/>
    </contour>
    <contour>
      <point x="1073" y="0" type="line"/>
      <point x="1071" y="16"/>
      <point x="1071" y="31"/>
      <point x="1071" y="46" type="curve" smooth="yes"/>
      <point x="1071" y="124"/>
      <point x="1089" y="195"/>
      <point x="1110" y="280" type="curve" smooth="yes"/>
      <point x="1276" y="946" type="line"/>
      <point x="833" y="946" type="line"/>
      <point x="661" y="256" type="line" smooth="yes"/>
      <point x="648" y="204"/>
      <point x="642" y="163"/>
      <point x="642" y="125" type="curve" smooth="yes"/>
      <point x="642" y="88"/>
      <point x="648" y="47"/>
      <point x="661" y="0" type="curve"/>
    </contour>
  </outline>
</glyph>
<glyph name="longs" format="2">
  <advance width="678"/>
  <unicode hex="017F"/>
  <anchor x="247" y="0" name="bottom"/>
  <anchor x="673" y="1417" name="top"/>
  <anchor x="1059" y="1417" name="topright"/>
  <outline>
    <contour>
      <point x="430" y="0" type="line"/>
      <point x="668" y="960" type="line" smooth="yes"/>
      <point x="713" y="1141"/>
      <point x="765" y="1208"/>
      <point x="910" y="1208" type="curve" smooth="yes"/>
      <point x="944" y="1208"/>
      <point x="975" y="1204"/>
      <point x="1004" y="1196" type="curve"/>
      <point x="1059" y="1416" type="line"/>
      <point x="999" y="1431"/>
      <point x="918" y="1443"/>
      <point x="829" y="1443" type="curve" smooth="yes"/>
      <point x="596" y="1443"/>
      <point x="326" y="1362"/>
      <point x="233" y="987" type="curve" smooth="yes"/>
      <point x="-13" y="0" type="line"/>
    </contour>
    <contour>
      <point x="248" y="731" type="line"/>
      <point x="293" y="931" type="line"/>
      <point x="135" y="925" type="line"/>
      <point x="59" y="731" type="line"/>
    </contour>
  </outline>
</glyph>
<glyph name="Oopen" format="2">
  <advance width="1302"/>
  <unicode hex="0186"/>
  <anchor x="448" y="0" name="bottom"/>
  <anchor x="676" y="1314" name="top"/>
  <anchor x="1429" y="1314" name="topright"/>
  <outline>
    <contour>
      <point x="400" y="-24" type="curve" smooth="yes"/>
      <point x="919" y="-24"/>
      <point x="1272" y="294"/>
      <point x="1272" y="760" type="curve" smooth="yes"/>
      <point x="1272" y="1128"/>
      <point x="1051" y="1338"/>
      <point x="662" y="1338" type="curve" smooth="yes"/>
      <point x="523" y="1338"/>
      <point x="393" y="1312"/>
      <point x="289" y="1262" type="curve"/>
      <point x="178" y="1037" type="line"/>
      <point x="184" y="1030" type="line"/>
      <point x="258" y="1065"/>
      <point x="377" y="1088"/>
      <point x="478" y="1088" type="curve" smooth="yes"/>
      <point x="699" y="1088"/>
      <point x="809" y="974"/>
      <point x="809" y="742" type="curve" smooth="yes"/>
      <point x="809" y="437"/>
      <point x="618" y="230"/>
      <point x="337" y="230" type="curve" smooth="yes"/>
      <point x="217" y="230"/>
      <point x="76" y="268"/>
      <point x="-6" y="323" type="curve"/>
      <point x="-64" y="91" type="line"/>
      <point x="42" y="18"/>
      <point x="212" y="-24"/>
    </contour>
  </outline>
  <guideline angle="76" x="-66" y="87"/>
</glyph>
<glyph name="Eturned" format="2">
  <advance width="1064"/>
  <unicode hex="018E"/>
  <anchor x="373" y="0" name="bottom"/>
  <anchor x="718" y="1314" name="top"/>
  <outline>
    <contour>
      <point x="1167" y="1314" type="line"/>
      <point x="839" y="0" type="line"/>
      <point x="-63" y="0" type="line"/>
      <point x="32" y="241" type="line"/>
      <point x="482" y="241" type="line"/>
      <point x="441" y="211" type="line"/>
      <point x="662" y="1102" type="line"/>
      <point x="685" y="1073" type="line"/>
      <point x="203" y="1073" type="line"/>
      <point x="264" y="1314" type="line"/>
    </contour>
    <contour>
      <point x="617" y="797" type="line"/>
      <point x="558" y="560" type="line"/>
      <point x="172" y="560" type="line"/>
      <point x="231" y="797" type="line"/>
    </contour>
  </outline>
  <guideline angle="0" x="0" y="798"/>
  <guideline angle="0" x="0" y="561"/>
  <guideline angle="255.86" x="-63" y="0"/>
</glyph>
<glyph name="Schwa" format="2">
  <advance width="1408"/>
  <unicode hex="018F"/>
  <anchor x="613" y="0" name="bottom"/>
  <anchor x="811" y="1314" name="top"/>
  <outline>
    <contour>
      <point x="594" y="-24" type="curve" smooth="yes"/>
      <point x="1053" y="-24"/>
      <point x="1381" y="326"/>
      <point x="1381" y="780" type="curve" smooth="yes"/>
      <point x="1381" y="1128"/>
      <point x="1173" y="1338"/>
      <point x="783" y="1338" type="curve" smooth="yes"/>
      <point x="637" y="1338"/>
      <point x="524" y="1314"/>
      <point x="374" y="1249" type="curve"/>
      <point x="254" y="1009" type="line"/>
      <point x="260" y="1003" type="line"/>
      <point x="352" y="1050"/>
      <point x="495" y="1088"/>
      <point x="623" y="1088" type="curve" smooth="yes"/>
      <point x="815" y="1088"/>
      <point x="929" y="985"/>
      <point x="929" y="750" type="curve" smooth="yes"/>
      <point x="929" y="498"/>
      <point x="805" y="210"/>
      <point x="626" y="210" type="curve" smooth="yes"/>
      <point x="524" y="210"/>
      <point x="490" y="274"/>
      <point x="490" y="387" type="curve" smooth="yes"/>
      <point x="490" y="422"/>
      <point x="495" y="492"/>
      <point x="527" y="602" type="curve"/>
      <point x="459" y="479" type="line"/>
      <point x="903" y="479" type="line"/>
      <point x="962" y="716" type="line"/>
      <point x="132" y="716" type="line"/>
      <point x="100" y="617"/>
      <point x="86" y="531"/>
      <point x="86" y="446" type="curve" smooth="yes"/>
      <point x="86" y="140"/>
      <point x="277" y="-24"/>
    </contour>
  </outline>
</glyph>
<glyph name="Eopen" format="2">
  <advance width="1124"/>
  <unicode hex="0190"/>
  <anchor x="514" y="0" name="bottom"/>
  <anchor x="757" y="1314" name="top"/>
  <anchor x="1321" y="1314" name="topright"/>
  <outline>
    <contour>
      <point x="528" y="-24" type="curve" smooth="yes"/>
      <point x="678" y="-24"/>
      <point x="823" y="8"/>
      <point x="928" y="62" type="curve"/>
      <point x="1045" y="296" type="line"/>
      <point x="1040" y="302" type="line"/>
      <point x="958" y="258"/>
      <point x="826" y="230"/>
      <point x="702" y="230" type="curve" smooth="yes"/>
      <point x="532" y="230"/>
      <point x="440" y="282"/>
      <point x="440" y="380" type="curve" smooth="yes"/>
      <point x="440" y="518"/>
      <point x="620" y="572"/>
      <point x="823" y="572" type="curve" smooth="yes"/>
      <point x="862" y="572"/>
      <point x="908" y="570"/>
      <point x="940" y="566" type="curve"/>
      <point x="996" y="789" type="line"/>
      <point x="965" y="787"/>
      <point x="928" y="787"/>
      <point x="876" y="787" type="curve" smooth="yes"/>
      <point x="704" y="787"/>
      <point x="602" y="832"/>
      <point x="602" y="931" type="curve" smooth="yes"/>
      <point x="602" y="1059"/>
      <point x="758" y="1088"/>
      <point x="865" y="1088" type="curve" smooth="yes"/>
      <point x="966" y="1088"/>
      <point x="1071" y="1067"/>
      <point x="1139" y="1035" type="curve"/>
      <point x="1199" y="1258" type="line"/>
      <point x="1075" y="1309"/>
      <point x="947" y="1338"/>
      <point x="795" y="1338" type="curve" smooth="yes"/>
      <point x="455" y="1338"/>
      <point x="218" y="1193"/>
      <point x="218" y="984" type="curve" smooth="yes"/>
      <point x="218" y="876"/>
      <point x="282" y="778"/>
      <point x="423" y="732" type="curve"/>
      <point x="421" y="725" type="line"/>
      <point x="199" y="687"/>
      <point x="26" y="542"/>
      <point x="26" y="332" type="curve" smooth="yes"/>
      <point x="26" y="108"/>
      <point x="223" y="-24"/>
    </contour>
  </outline>
  <guideline angle="76.15" x="1053" y="179"/>
  <guideline angle="63.44" x="1102" y="425"/>
</glyph>
<glyph name="fhook" format="2">
  <advance width="775"/>
  <unicode hex="0192"/>
  <anchor x="-16" y="-419" name="bottom"/>
  <anchor x="673" y="1417" name="top"/>
  <anchor x="1055" y="1417" name="topright"/>
  <outline>
    <contour>
      <point x="-346" y="-195" type="curve"/>
      <point x="-352" y="-201" type="line"/>
      <point x="-323" y="-389" type="line"/>
      <point x="-278" y="-421"/>
      <point x="-175" y="-444"/>
      <point x="-78" y="-444" type="curve" smooth="yes"/>
      <point x="178" y="-444"/>
      <point x="350" y="-300"/>
      <point x="418" y="-26" type="curve" smooth="yes"/>
      <point x="664" y="960" type="line" smooth="yes"/>
      <point x="711" y="1150"/>
      <point x="768" y="1208"/>
      <point x="906" y="1208" type="curve" smooth="yes"/>
      <point x="940" y="1208"/>
      <point x="971" y="1204"/>
      <point x="1000" y="1196" type="curve"/>
      <point x="1055" y="1416" type="line"/>
      <point x="986" y="1433"/>
      <point x="903" y="1443"/>
      <point x="824" y="1443" type="curve" smooth="yes"/>
      <point x="501" y="1443"/>
      <point x="302" y="1285"/>
      <point x="228" y="987" type="curve" smooth="yes"/>
      <point x="-26" y="-34" type="line" smooth="yes"/>
      <point x="-62" y="-179"/>
      <point x="-110" y="-230"/>
      <point x="-209" y="-230" type="curve" smooth="yes"/>
      <point x="-255" y="-230"/>
      <point x="-298" y="-219"/>
    </contour>
    <contour>
      <point x="54" y="730" type="line"/>
      <point x="819" y="730" type="line"/>
      <point x="871" y="937" type="line"/>
      <point x="432" y="937" type="line"/>
      <point x="130" y="925" type="line"/>
    </contour>
  </outline>
</glyph>
<glyph name="GammaLatin" format="2">
  <advance width="1395"/>
  <unicode hex="0194"/>
  <anchor x="522" y="-419" name="bottom"/>
  <anchor x="876" y="1314" name="top"/>
  <anchor x="1642" y="1314" name="topright"/>
  <outline>
    <contour>
      <point x="526" y="-447" type="curve" smooth="yes"/>
      <point x="807" y="-447"/>
      <point x="1005" y="-290"/>
      <point x="1005" y="-67" type="curve" smooth="yes"/>
      <point x="1005" y="63"/>
      <point x="938" y="205"/>
      <point x="816" y="336" type="curve"/>
      <point x="816" y="56" type="line"/>
      <point x="1572" y="1314" type="line"/>
      <point x="1222" y="1314" type="line"/>
      <point x="752" y="510" type="line"/>
      <point x="746" y="510" type="line"/>
      <point x="669" y="1314" type="line"/>
      <point x="207" y="1314" type="line"/>
      <point x="338" y="196" type="line"/>
      <point x="571" y="146" type="line"/>
      <point x="615" y="84"/>
      <point x="642" y="6"/>
      <point x="642" y="-60" type="curve" smooth="yes"/>
      <point x="642" y="-151"/>
      <point x="591" y="-212"/>
      <point x="516" y="-212" type="curve" smooth="yes"/>
      <point x="453" y="-212"/>
      <point x="408" y="-168"/>
      <point x="408" y="-107" type="curve" smooth="yes"/>
      <point x="408" y="-33"/>
      <point x="475" y="75"/>
      <point x="564" y="146" type="curve"/>
      <point x="667" y="146" type="line"/>
      <point x="419" y="288" type="line"/>
      <point x="235" y="159"/>
      <point x="139" y="11"/>
      <point x="139" y="-142" type="curve" smooth="yes"/>
      <point x="139" y="-332"/>
      <point x="285" y="-447"/>
    </contour>
  </outline>
  <guideline angle="0" x="0" y="510"/>
  <guideline angle="0" x="0" y="-212"/>
</glyph>
<glyph name="IotaLatin" format="2">
  <advance width="868"/>
  <unicode hex="0196"/>
  <anchor x="535" y="1314" name="top"/>
  <anchor x="338" y="0" name="bottom"/>
  <outline>
    <contour>
      <point x="356" y="-24" type="curve" smooth="yes"/>
      <point x="486" y="-24"/>
      <point x="604" y="2"/>
      <point x="696" y="49" type="curve"/>
      <point x="789" y="239" type="line"/>
      <point x="780" y="245" type="line"/>
      <point x="732" y="218"/>
      <point x="652" y="197"/>
      <point x="599" y="197" type="curve" smooth="yes"/>
      <point x="536" y="197"/>
      <point x="505" y="225"/>
      <point x="505" y="281" type="curve" smooth="yes"/>
      <point x="505" y="300"/>
      <point x="510" y="326"/>
      <point x="520" y="366" type="curve" smooth="yes"/>
      <point x="757" y="1314" type="line"/>
      <point x="305" y="1314" type="line"/>
      <point x="63" y="343" type="line" smooth="yes"/>
      <point x="53" y="301"/>
      <point x="46" y="258"/>
      <point x="46" y="221" type="curve" smooth="yes"/>
      <point x="46" y="63"/>
      <point x="155" y="-24"/>
    </contour>
  </outline>
  <guideline angle="63.94" x="737" y="140"/>
</glyph>
<glyph name="Ibar" format="2">
  <advance width="798"/>
  <unicode hex="0197"/>
  <anchor x="276" y="0" name="bottom"/>
  <anchor x="604" y="1314" name="top"/>
  <anchor x="975" y="1314" name="topright"/>
  <outline>
    <contour>
      <point x="52" y="0" type="line"/>
      <point x="503" y="0" type="line"/>
      <point x="832" y="1314" type="line"/>
      <point x="380" y="1314" type="line"/>
    </contour>
    <contour>
      <point x="28" y="561" type="line"/>
      <point x="797" y="561" type="line"/>
      <point x="886" y="789" type="line"/>
      <point x="84" y="789" type="line"/>
    </contour>
  </outline>
  <guideline angle="0" x="0" y="789"/>
</glyph>
<glyph name="lbar" format="2">
  <advance width="803"/>
  <unicode hex="019A"/>
  <anchor x="277" y="0" name="bottom"/>
  <anchor x="633" y="1417" name="top"/>
  <outline>
    <contour>
      <point x="498" y="0" type="line"/>
      <point x="857" y="1443" type="line"/>
      <point x="402" y="1389" type="line"/>
      <point x="55" y="0" type="line"/>
    </contour>
    <contour>
      <point x="794" y="565" type="line"/>
      <point x="874" y="771" type="line"/>
      <point x="85" y="771" type="line"/>
      <point x="34" y="565" type="line"/>
    </contour>
  </outline>
  <guideline angle="0" x="0" y="597"/>
  <guideline angle="0" x="0" y="944"/>
  <guideline angle="0" x="0" y="391"/>
  <guideline angle="0" x="0" y="738"/>
</glyph>
<glyph name="lambdabar" format="2">
  <advance width="1175"/>
  <unicode hex="019B"/>
  <anchor x="694" y="1417" name="top"/>
  <anchor x="496" y="0" name="bottom"/>
  <anchor x="1220" y="1146" name="topright"/>
  <outline>
    <contour>
      <point x="368" y="0" type="line"/>
      <point x="704" y="496" type="line"/>
      <point x="791" y="496" type="line"/>
      <point x="679" y="968" type="line"/>
      <point x="-118" y="0" type="line"/>
    </contour>
    <contour>
      <point x="1090" y="895" type="line"/>
      <point x="1193" y="1137" type="line"/>
      <point x="311" y="965" type="line"/>
      <point x="255" y="739" type="line"/>
    </contour>
    <contour>
      <point x="1058" y="0" type="line"/>
      <point x="883" y="1029" type="line" smooth="yes"/>
      <point x="834" y="1315"/>
      <point x="715" y="1443"/>
      <point x="498" y="1443" type="curve" smooth="yes"/>
      <point x="438" y="1443"/>
      <point x="384" y="1434"/>
      <point x="339" y="1415" type="curve"/>
      <point x="163" y="1125" type="line"/>
      <point x="170" y="1116" type="line"/>
      <point x="248" y="1140"/>
      <point x="298" y="1149"/>
      <point x="361" y="1149" type="curve" smooth="yes"/>
      <point x="544" y="1149"/>
      <point x="632" y="1079"/>
      <point x="652" y="937" type="curve" smooth="yes"/>
      <point x="665" y="843" type="line"/>
      <point x="686" y="759" type="line"/>
      <point x="788" y="0" type="line"/>
    </contour>
  </outline>
  <guideline angle="247" x="1077" y="840"/>
  <guideline angle="76" x="287" y="827"/>
  <guideline angle="0" x="0" y="739"/>
  <guideline angle="0" x="0" y="1134"/>
</glyph>
<glyph name="Mturned" format="2">
  <advance width="1922"/>
  <unicode hex="019C"/>
  <anchor x="887" y="0" name="bottom"/>
  <anchor x="1215" y="1314" name="top"/>
  <anchor x="2128" y="1314" name="topright"/>
  <outline>
    <contour>
      <point x="303" y="1314" type="line"/>
      <point x="109" y="528" type="line" smooth="yes"/>
      <point x="89" y="449"/>
      <point x="79" y="378"/>
      <point x="79" y="325" type="curve" smooth="yes"/>
      <point x="79" y="108"/>
      <point x="256" y="-24"/>
      <point x="546" y="-24" type="curve" smooth="yes"/>
      <point x="713" y="-24"/>
      <point x="818" y="20"/>
      <point x="891" y="120" type="curve"/>
      <point x="855" y="116" type="line"/>
      <point x="932" y="24"/>
      <point x="1063" y="-24"/>
      <point x="1238" y="-24" type="curve" smooth="yes"/>
      <point x="1559" y="-24"/>
      <point x="1740" y="136"/>
      <point x="1829" y="499" type="curve" smooth="yes"/>
      <point x="2029" y="1314" type="line"/>
      <point x="1685" y="1314" type="line"/>
      <point x="1481" y="482" type="line" smooth="yes"/>
      <point x="1452" y="365"/>
      <point x="1426" y="215"/>
      <point x="1298" y="215" type="curve" smooth="yes"/>
      <point x="1235" y="215"/>
      <point x="1202" y="251"/>
      <point x="1202" y="317" type="curve" smooth="yes"/>
      <point x="1202" y="352"/>
      <point x="1211" y="399"/>
      <point x="1243" y="530" type="curve" smooth="yes"/>
      <point x="1436" y="1314" type="line"/>
      <point x="994" y="1314" type="line"/>
      <point x="790" y="482" type="line" smooth="yes"/>
      <point x="761" y="365"/>
      <point x="735" y="215"/>
      <point x="607" y="215" type="curve" smooth="yes"/>
      <point x="544" y="215"/>
      <point x="511" y="251"/>
      <point x="511" y="317" type="curve" smooth="yes"/>
      <point x="511" y="352"/>
      <point x="520" y="399"/>
      <point x="552" y="530" type="curve" smooth="yes"/>
      <point x="745" y="1314" type="line"/>
    </contour>
  </outline>
  <guideline angle="0" x="0" y="101"/>
  <guideline angle="90" x="846" y="0"/>
  <guideline angle="76" x="1215" y="1314"/>
</glyph>
